Amstelvar-Roman-opsz8.ufo
<glyph name="numbersign" format="2">
	<unicode hex="0023"/>
	<advance width="1480"/>
	<outline>
		<contour>
			<point x="90" y="410" type="line"/>
			<point x="90" y="585" type="line"/>
			<point x="1238" y="585" type="line"/>
			<point x="1238" y="410" type="line"/>
		</contour>
		<contour>
			<point x="206" y="909" type="line"/>
			<point x="206" y="1084" type="line"/>
			<point x="1390" y="1084" type="line"/>
			<point x="1390" y="909" type="line"/>
		</contour>
		<contour>
			<point x="140" y="-18" type="line"/>
			<point x="714" y="1541" type="line"/>
			<point x="852" y="1514" type="line"/>
			<point x="278" y="-45" type="line"/>
		</contour>
		<contour>
			<point x="628" y="-18" type="line"/>
			<point x="1204" y="1541" type="line"/>
			<point x="1341" y="1514" type="line"/>
			<point x="765" y="-45" type="line"/>
		</contour>
	</outline>
</glyph>
<glyph name="zero" format="2">
	<unicode hex="0030"/>
	<advance width="1000"/>
	<outline>
		<contour>
			<point x="74" y="746" type="qcurve" smooth="yes"/>
			<point x="76" y="1119"/>
			<point x="281" y="1520"/>
			<point x="501" y="1520" type="qcurve" smooth="yes"/>
			<point x="721" y="1520"/>
			<point x="926" y="1132"/>
			<point x="926" y="754" type="qcurve" smooth="yes"/>
			<point x="926" y="376"/>
			<point x="726" y="-30"/>
			<point x="507" y="-30" type="qcurve" smooth="yes"/>
			<point x="288" y="-30"/>
			<point x="72" y="373"/>
		</contour>
		<contour>
			<point x="298" y="773" type="qcurve" smooth="yes"/>
			<point x="299" y="506"/>
			<point x="382" y="145"/>
			<point x="499" y="145" type="qcurve" smooth="yes"/>
			<point x="619" y="145"/>
			<point x="700" y="475"/>
			<point x="702" y="749" type="qcurve" smooth="yes"/>
			<point x="704" y="1006"/>
			<point x="612" y="1336"/>
			<point x="502" y="1336" type="qcurve" smooth="yes"/>
			<point x="381" y="1336"/>
			<point x="297" y="1037"/>
		</contour>
	</outline>
</glyph>
<glyph name="three" format="2">
	<unicode hex="0033"/>
	<advance width="1000"/>
	<outline>
		<contour>
			<point x="0" y="149" type="qcurve"/>
			<point x="88" y="288" type="line"/>
			<point x="176" y="210"/>
			<point x="315" y="143"/>
			<point x="407" y="143" type="qcurve" smooth="yes"/>
			<point x="525" y="143"/>
			<point x="662" y="282"/>
			<point x="662" y="425" type="qcurve" smooth="yes"/>
			<point x="662" y="572"/>
			<point x="462" y="714"/>
			<point x="276" y="714" type="qcurve" smooth="yes"/>
			<point x="229" y="714" type="line"/>
			<point x="181" y="868" type="line"/>
			<point x="297" y="873" type="line" smooth="yes"/>
			<point x="463" y="880"/>
			<point x="636" y="1015"/>
			<point x="636" y="1140" type="qcurve" smooth="yes"/>
			<point x="636" y="1237"/>
			<point x="523" y="1339"/>
			<point x="431" y="1339" type="qcurve" smooth="yes"/>
			<point x="346" y="1339"/>
			<point x="201" y="1267"/>
			<point x="132" y="1203" type="qcurve"/>
			<point x="50" y="1350" type="line"/>
			<point x="104" y="1415"/>
			<point x="327" y="1520"/>
			<point x="468" y="1520" type="qcurve" smooth="yes"/>
			<point x="638" y="1520"/>
			<point x="865" y="1333"/>
			<point x="865" y="1185" type="qcurve" smooth="yes"/>
			<point x="865" y="1026"/>
			<point x="712" y="855"/>
			<point x="567" y="802" type="qcurve"/>
			<point x="567" y="795" type="line"/>
			<point x="708" y="769"/>
			<point x="896" y="567"/>
			<point x="896" y="393" type="qcurve" smooth="yes"/>
			<point x="896" y="199"/>
			<point x="615" y="-26"/>
			<point x="432" y="-26" type="qcurve" smooth="yes"/>
			<point x="288" y="-26"/>
			<point x="72" y="78"/>
		</contour>
	</outline>
</glyph>
<glyph name="four" format="2">
	<unicode hex="0034"/>
	<advance width="1000"/>
	<outline>
		<contour>
			<point x="6" y="554" type="line"/>
			<point x="615" y="1519" type="line"/>
			<point x="752" y="1491" type="line"/>
			<point x="809" y="1476" type="line"/>
			<point x="791" y="499" type="line"/>
			<point x="803" y="179" type="line"/>
			<point x="991" y="144" type="line"/>
			<point x="991" y="0" type="line"/>
			<point x="356" y="0" type="line"/>
			<point x="356" y="144" type="line"/>
			<point x="584" y="179" type="line"/>
			<point x="595" y="497" type="line"/>
			<point x="595" y="1228" type="line"/>
			<point x="199" y="578" type="line"/>
			<point x="204" y="567" type="line"/>
			<point x="988" y="567" type="line"/>
			<point x="988" y="430" type="line"/>
			<point x="26" y="410" type="line"/>
		</contour>
	</outline>
</glyph>
<glyph name="nine" format="2">
	<unicode hex="0039"/>
	<advance width="1000"/>
	<outline>
		<contour>
			<point x="34" y="1018" type="qcurve" smooth="yes"/>
			<point x="34" y="1236"/>
			<point x="287" y="1520"/>
			<point x="499" y="1520" type="qcurve" smooth="yes"/>
			<point x="734" y="1520"/>
			<point x="966" y="1177"/>
			<point x="966" y="860" type="qcurve" smooth="yes"/>
			<point x="966" y="532"/>
			<point x="592" y="24"/>
			<point x="194" y="-67" type="qcurve"/>
			<point x="194" y="111" type="line"/>
			<point x="469" y="180"/>
			<point x="743" y="561"/>
			<point x="741" y="897" type="qcurve" smooth="yes"/>
			<point x="739" y="1134"/>
			<point x="627" y="1358"/>
			<point x="498" y="1358" type="qcurve" smooth="yes"/>
			<point x="378" y="1358"/>
			<point x="248" y="1178"/>
			<point x="248" y="1029" type="qcurve" smooth="yes"/>
			<point x="248" y="879"/>
			<point x="364" y="726"/>
			<point x="476" y="726" type="qcurve" smooth="yes"/>
			<point x="533" y="726"/>
			<point x="607" y="743"/>
			<point x="637" y="757" type="qcurve"/>
			<point x="671" y="652" type="line"/>
			<point x="642" y="622"/>
			<point x="510" y="555"/>
			<point x="422" y="555" type="qcurve" smooth="yes"/>
			<point x="234" y="555"/>
			<point x="34" y="794"/>
		</contour>
	</outline>
</glyph>
<glyph name="at" format="2">
	<unicode hex="0040"/>
	<advance width="1766"/>
	<outline>
		<contour>
			<point x="66" y="722" type="qcurve" smooth="yes"/>
			<point x="66" y="1054"/>
			<point x="524" y="1530"/>
			<point x="881" y="1530" type="qcurve" smooth="yes"/>
			<point x="1238" y="1530"/>
			<point x="1709" y="1135"/>
			<point x="1709" y="813" type="qcurve" smooth="yes"/>
			<point x="1709" y="564"/>
			<point x="1454" y="314"/>
			<point x="1298" y="314" type="qcurve" smooth="yes"/>
			<point x="1218" y="314"/>
			<point x="1101" y="360"/>
			<point x="1069" y="412" type="qcurve"/>
			<point x="1023" y="359"/>
			<point x="873" y="302"/>
			<point x="793" y="302" type="qcurve" smooth="yes"/>
			<point x="627" y="302"/>
			<point x="480" y="453"/>
			<point x="480" y="560" type="qcurve" smooth="yes"/>
			<point x="480" y="674"/>
			<point x="752" y="859"/>
			<point x="1073" y="909" type="qcurve"/>
			<point x="1082" y="781" type="line"/>
			<point x="888" y="757"/>
			<point x="696" y="642"/>
			<point x="696" y="571" type="qcurve" smooth="yes"/>
			<point x="696" y="508"/>
			<point x="769" y="449"/>
			<point x="839" y="449" type="qcurve" smooth="yes"/>
			<point x="926" y="449"/>
			<point x="1027" y="519"/>
			<point x="1036" y="555" type="qcurve"/>
			<point x="1038" y="813" type="line" smooth="yes"/>
			<point x="1039" y="933"/>
			<point x="937" y="1030"/>
			<point x="851" y="1030" type="qcurve" smooth="yes"/>
			<point x="781" y="1030"/>
			<point x="676" y="993"/>
			<point x="638" y="969" type="qcurve" smooth="yes"/>
			<point x="630" y="963"/>
			<point x="611" y="935"/>
			<point x="590" y="935" type="qcurve" smooth="yes"/>
			<point x="565" y="935"/>
			<point x="500" y="1004"/>
			<point x="500" y="1033" type="qcurve" smooth="yes"/>
			<point x="500" y="1056"/>
			<point x="535" y="1081"/>
			<point x="543" y="1088" type="qcurve" smooth="yes"/>
			<point x="587" y="1127"/>
			<point x="758" y="1201"/>
			<point x="869" y="1201" type="qcurve" smooth="yes"/>
			<point x="1009" y="1201"/>
			<point x="1226" y="1032"/>
			<point x="1226" y="825" type="qcurve" smooth="yes"/>
			<point x="1226" y="461" type="line"/>
			<point x="1244" y="452"/>
			<point x="1278" y="446"/>
			<point x="1308" y="446" type="qcurve" smooth="yes"/>
			<point x="1415" y="446"/>
			<point x="1552" y="619"/>
			<point x="1552" y="809" type="qcurve" smooth="yes"/>
			<point x="1552" y="1030"/>
			<point x="1193" y="1369"/>
			<point x="893" y="1369" type="qcurve" smooth="yes"/>
			<point x="595" y="1369"/>
			<point x="233" y="1020"/>
			<point x="235" y="736" type="qcurve" smooth="yes"/>
			<point x="237" y="449"/>
			<point x="598" y="72"/>
			<point x="888" y="72" type="qcurve" smooth="yes"/>
			<point x="1017" y="72"/>
			<point x="1228" y="109"/>
			<point x="1285" y="133" type="qcurve"/>
			<point x="1337" y="16" type="line"/>
			<point x="1257" y="-28"/>
			<point x="1017" y="-77"/>
			<point x="882" y="-77" type="qcurve" smooth="yes"/>
			<point x="531" y="-77"/>
			<point x="66" y="365"/>
		</contour>
	</outline>
</glyph>
<glyph name="A" format="2">
  <advance width="1571"/>
  <unicode hex="0041"/>
  <anchor x="785.5" y="0" name="bottom"/>
  <anchor x="1145" y="0" name="ogonek"/>
  <anchor x="785.5" y="1500" name="top"/>
  <outline>
    <contour>
      <point x="-11" y="0" type="line"/>
      <point x="-11" y="150" type="line"/>
      <point x="183" y="185" type="line"/>
      <point x="332" y="549" type="line"/>
      <point x="698" y="1508" type="line"/>
      <point x="869" y="1508" type="line"/>
      <point x="1223" y="609" type="line"/>
      <point x="1399" y="185" type="line"/>
      <point x="1582" y="150" type="line"/>
      <point x="1582" y="0" type="line"/>
      <point x="979" y="0" type="line"/>
      <point x="979" y="150" type="line"/>
      <point x="1153" y="181" type="line"/>
      <point x="1038" y="503" type="line"/>
      <point x="757" y="1219" type="line"/>
      <point x="507" y="550" type="line"/>
      <point x="370" y="180" type="line"/>
      <point x="555" y="150" type="line"/>
      <point x="555" y="0" type="line"/>
    </contour>
    <contour>
      <point x="767" y="602" type="line"/>
      <point x="1122" y="613" type="line"/>
      <point x="1153" y="458" type="line"/>
      <point x="767" y="458" type="line"/>
    </contour>
    <contour>
      <point x="360" y="458" type="line"/>
      <point x="402" y="612" type="line"/>
      <point x="767" y="602" type="line"/>
      <point x="767" y="458" type="line"/>
    </contour>
  </outline>
</glyph>
<glyph name="C" format="2">
  <advance width="1494"/>
  <unicode hex="0043"/>
  <anchor x="864.0" y="0" name="bottom"/>
  <anchor x="854.0" y="1500" name="top"/>
  <outline>
    <contour>
      <point x="80" y="699" type="qcurve" smooth="yes"/>
      <point x="80" y="1071"/>
      <point x="535" y="1520"/>
      <point x="850" y="1520" type="qcurve" smooth="yes"/>
      <point x="984" y="1520"/>
      <point x="1175" y="1466"/>
      <point x="1231" y="1420" type="qcurve"/>
      <point x="1260" y="1501" type="line"/>
      <point x="1389" y="1501" type="line"/>
      <point x="1389" y="1031" type="line"/>
      <point x="1232" y="1031" type="line"/>
      <point x="1194" y="1201" type="line" smooth="yes"/>
      <point x="1179" y="1269"/>
      <point x="1032" y="1337"/>
      <point x="882" y="1337" type="qcurve" smooth="yes"/>
      <point x="628" y="1337"/>
      <point x="316" y="1032"/>
      <point x="318" y="743" type="qcurve" smooth="yes"/>
      <point x="320" y="466"/>
      <point x="640" y="155"/>
      <point x="872" y="155" type="qcurve" smooth="yes"/>
      <point x="1071" y="155"/>
      <point x="1303" y="276"/>
      <point x="1367" y="367" type="qcurve"/>
      <point x="1488" y="245" type="line"/>
      <point x="1384" y="111"/>
      <point x="1070" y="-30"/>
      <point x="864" y="-30" type="qcurve" smooth="yes"/>
      <point x="509" y="-30"/>
      <point x="80" y="382"/>
    </contour>
  </outline>
</glyph>
<glyph name="I" format="2">
  <advance width="824"/>
  <unicode hex="0049"/>
  <anchor x="412.0" y="0" name="bottom"/>
  <anchor x="245" y="0" name="ogonek"/>
  <anchor x="412.0" y="1500" name="top"/>
  <outline>
    <contour>
      <point x="82" y="0" type="line"/>
      <point x="82" y="150" type="line"/>
      <point x="300" y="185" type="line"/>
      <point x="302" y="754" type="line"/>
      <point x="300" y="1302" type="line"/>
      <point x="82" y="1336" type="line"/>
      <point x="82" y="1500" type="line"/>
      <point x="742" y="1500" type="line"/>
      <point x="742" y="1336" type="line"/>
      <point x="524" y="1302" type="line"/>
      <point x="522" y="754" type="line"/>
      <point x="524" y="186" type="line"/>
      <point x="742" y="150" type="line"/>
      <point x="742" y="0" type="line"/>
    </contour>
  </outline>
</glyph>
<glyph name="L" format="2">
  <advance width="1314"/>
  <unicode hex="004C"/>
  <anchor x="712.0" y="0" name="bottom"/>
  <anchor x="1007.0" y="779.0" name="center"/>
  <anchor x="657.0" y="1500" name="top"/>
  <anchor x="778" y="1051" name="topright"/>
  <outline>
    <contour>
      <point x="82" y="0" type="line"/>
      <point x="82" y="150" type="line"/>
      <point x="290" y="182" type="line"/>
      <point x="292" y="754" type="line"/>
      <point x="290" y="1302" type="line"/>
      <point x="82" y="1336" type="line"/>
      <point x="82" y="1500" type="line"/>
      <point x="756" y="1500" type="line"/>
      <point x="756" y="1336" type="line"/>
      <point x="514" y="1302" type="line"/>
      <point x="512" y="754" type="line"/>
      <point x="514" y="185" type="line"/>
      <point x="554" y="158" type="line"/>
      <point x="1071" y="158" type="line"/>
      <point x="1157" y="439" type="line"/>
      <point x="1309" y="439" type="line"/>
      <point x="1263" y="0" type="line"/>
    </contour>
  </outline>
</glyph>
<glyph name="underscore" format="2">
	<unicode hex="005F"/>
	<advance width="1448"/>
	<outline>
		<contour>
			<point x="-20" y="-502" type="line"/>
			<point x="-20" y="-317" type="line"/>
			<point x="728" y="-317" type="line"/>
			<point x="1468" y="-317" type="line"/>
			<point x="1468" y="-502" type="line"/>
			<point x="728" y="-495" type="line"/>
		</contour>
	</outline>
</glyph>
<glyph name="grave" format="2">
  <advance width="1024"/>
  <unicode hex="0060"/>
  <outline>
    <contour>
      <point x="272" y="1599" type="qcurve" smooth="yes"/>
      <point x="272" y="1634"/>
      <point x="340" y="1693"/>
      <point x="389" y="1693" type="qcurve" smooth="yes"/>
      <point x="426" y="1693"/>
      <point x="497" y="1642"/>
      <point x="534" y="1603" type="qcurve" smooth="yes"/>
      <point x="745" y="1376" type="line"/>
      <point x="651" y="1270" type="line"/>
      <point x="348" y="1477" type="line" smooth="yes"/>
      <point x="307" y="1505"/>
      <point x="272" y="1552"/>
    </contour>
  </outline>
</glyph>
<glyph name="c" format="2">
  <advance width="1039"/>
  <unicode hex="0063"/>
  <anchor x="596" y="0" name="bottom"/>
  <anchor x="541" y="1050" name="top"/>
  <outline>
    <contour>
      <point x="64" y="508" type="qcurve" smooth="yes"/>
      <point x="64" y="776"/>
      <point x="350" y="1072"/>
      <point x="541" y="1072" type="qcurve" smooth="yes"/>
      <point x="640" y="1072"/>
      <point x="774" y="1026"/>
      <point x="806" y="995" type="qcurve"/>
      <point x="837" y="1053" type="line"/>
      <point x="962" y="1053" type="line"/>
      <point x="962" y="653" type="line"/>
      <point x="830" y="651" type="line"/>
      <point x="794" y="759" type="line" smooth="yes"/>
      <point x="769" y="835"/>
      <point x="664" y="907"/>
      <point x="571" y="907" type="qcurve" smooth="yes"/>
      <point x="447" y="907"/>
      <point x="291" y="709"/>
      <point x="291" y="518" type="qcurve" smooth="yes"/>
      <point x="291" y="350"/>
      <point x="486" y="151"/>
      <point x="638" y="151" type="qcurve" smooth="yes"/>
      <point x="745" y="151"/>
      <point x="881" y="219"/>
      <point x="931" y="266" type="qcurve"/>
      <point x="1023" y="150" type="line"/>
      <point x="971" y="82"/>
      <point x="764" y="-22"/>
      <point x="595" y="-22" type="qcurve" smooth="yes"/>
      <point x="356" y="-22"/>
      <point x="64" y="269"/>
    </contour>
  </outline>
</glyph>
<glyph name="j" format="2">
  <advance width="599"/>
  <unicode hex="006A"/>
  <anchor x="299.5" y="-436" name="bottom"/>
  <anchor x="299.5" y="1050" name="top"/>
  <outline>
    <contour>
      <point x="-40" y="-484" type="qcurve"/>
      <point x="-40" y="-333" type="line"/>
      <point x="112" y="-338"/>
      <point x="222" y="-222"/>
      <point x="221" y="-48" type="qcurve" smooth="yes"/>
      <point x="219" y="552" type="line"/>
      <point x="213" y="835" type="line"/>
      <point x="45" y="865" type="line"/>
      <point x="45" y="1016" type="line"/>
      <point x="367" y="1050" type="line"/>
      <point x="414" y="1050" type="line"/>
      <point x="437" y="1011" type="line"/>
      <point x="431" y="552" type="line"/>
      <point x="433" y="-27" type="line" smooth="yes"/>
      <point x="434" y="-271"/>
      <point x="201" y="-501"/>
    </contour>
    <contour>
      <point x="173" y="1366" type="qcurve" smooth="yes"/>
      <point x="173" y="1429"/>
      <point x="249" y="1503"/>
      <point x="320" y="1503" type="qcurve" smooth="yes"/>
      <point x="387" y="1503"/>
      <point x="467" y="1426"/>
      <point x="467" y="1366" type="qcurve" smooth="yes"/>
      <point x="467" y="1308"/>
      <point x="398" y="1225"/>
      <point x="320" y="1225" type="qcurve" smooth="yes"/>
      <point x="246" y="1225"/>
      <point x="173" y="1311"/>
    </contour>
  </outline>
</glyph>
<glyph name="asciitilde" format="2">
  <advance width="1024"/>
  <unicode hex="007E"/>
  <outline>
    <contour>
      <point x="18" y="601" type="line"/>
      <point x="80" y="694"/>
      <point x="260" y="816"/>
      <point x="348" y="816" type="qcurve"/>
      <point x="731" y="698" type="line"/>
      <point x="791" y="698"/>
      <point x="853" y="779"/>
      <point x="886" y="833" type="qcurve"/>
      <point x="1006" y="761" type="line"/>
      <point x="956" y="657"/>
      <point x="812" y="506"/>
      <point x="680" y="506" type="qcurve"/>
      <point x="320" y="617" type="line"/>
      <point x="259" y="617"/>
      <point x="163" y="559"/>
      <point x="106" y="507" type="qcurve"/>
    </contour>
  </outline>
</glyph>
<glyph name="dieresis" format="2">
  <advance width="1024"/>
  <unicode hex="00A8"/>
  <outline>
    <contour>
      <point x="609" y="1295" type="qcurve" smooth="yes"/>
      <point x="609" y="1359"/>
      <point x="677" y="1428"/>
      <point x="742" y="1428" type="qcurve" smooth="yes"/>
      <point x="803" y="1428"/>
      <point x="875" y="1354"/>
      <point x="875" y="1295" type="qcurve" smooth="yes"/>
      <point x="875" y="1232"/>
      <point x="808" y="1164"/>
      <point x="742" y="1164" type="qcurve" smooth="yes"/>
      <point x="681" y="1164"/>
      <point x="609" y="1235"/>
    </contour>
    <contour>
      <point x="149" y="1295" type="qcurve" smooth="yes"/>
      <point x="149" y="1359"/>
      <point x="217" y="1428"/>
      <point x="282" y="1428" type="qcurve" smooth="yes"/>
      <point x="343" y="1428"/>
      <point x="415" y="1354"/>
      <point x="415" y="1295" type="qcurve" smooth="yes"/>
      <point x="415" y="1232"/>
      <point x="348" y="1164"/>
      <point x="282" y="1164" type="qcurve" smooth="yes"/>
      <point x="221" y="1164"/>
      <point x="149" y="1235"/>
    </contour>
  </outline>
</glyph>
<glyph name="acute" format="2">
  <advance width="1024"/>
  <unicode hex="00B4"/>
  <outline>
    <contour>
      <point x="754" y="1604" type="qcurve" smooth="yes"/>
      <point x="754" y="1557"/>
      <point x="719" y="1511"/>
      <point x="678" y="1482" type="qcurve" smooth="yes"/>
      <point x="380" y="1270" type="line"/>
      <point x="286" y="1376" type="line"/>
      <point x="497" y="1603" type="line" smooth="yes"/>
      <point x="534" y="1642"/>
      <point x="605" y="1693"/>
      <point x="642" y="1693" type="qcurve" smooth="yes"/>
      <point x="691" y="1693"/>
      <point x="754" y="1639"/>
    </contour>
  </outline>
</glyph>
<glyph name="AE" format="2">
  <advance width="1941"/>
  <unicode hex="00C6"/>
  <anchor x="1143" y="1500" name="top"/>
  <outline>
    <contour>
      <point x="-120" y="0" type="line"/>
      <point x="-120" y="155" type="line"/>
      <point x="64" y="186" type="line"/>
      <point x="294" y="540" type="line"/>
      <point x="771" y="1317" type="line"/>
      <point x="603" y="1336" type="line"/>
      <point x="603" y="1500" type="line"/>
      <point x="1824" y="1500" type="line"/>
      <point x="1824" y="1131" type="line"/>
      <point x="1672" y="1131" type="line"/>
      <point x="1637" y="1332" type="line"/>
      <point x="1213" y="1332" type="line"/>
      <point x="1144" y="1312" type="line"/>
      <point x="1142" y="783" type="line"/>
      <point x="1144" y="182" type="line"/>
      <point x="1214" y="158" type="line"/>
      <point x="1700" y="158" type="line"/>
      <point x="1776" y="399" type="line"/>
      <point x="1928" y="399" type="line"/>
      <point x="1888" y="0" type="line"/>
      <point x="713" y="0" type="line"/>
      <point x="713" y="150" type="line"/>
      <point x="921" y="187" type="line"/>
      <point x="923" y="783" type="line"/>
      <point x="921" y="1277" type="line"/>
      <point x="908" y="1284" type="line"/>
      <point x="449" y="503" type="line"/>
      <point x="264" y="181" type="line"/>
      <point x="416" y="155" type="line"/>
      <point x="416" y="0" type="line"/>
    </contour>
    <contour>
      <point x="318" y="448" type="line"/>
      <point x="384" y="605" type="line"/>
      <point x="646" y="590" type="line"/>
      <point x="646" y="448" type="line"/>
    </contour>
    <contour>
      <point x="646" y="590" type="line"/>
      <point x="990" y="606" type="line"/>
      <point x="990" y="448" type="line"/>
      <point x="646" y="448" type="line"/>
    </contour>
    <contour>
      <point x="1033" y="713" type="line"/>
      <point x="1033" y="855" type="line"/>
      <point x="1498" y="865" type="line"/>
      <point x="1533" y="1025" type="line"/>
      <point x="1678" y="1025" type="line"/>
      <point x="1678" y="547" type="line"/>
      <point x="1533" y="547" type="line"/>
      <point x="1498" y="703" type="line"/>
    </contour>
  </outline>
</glyph>
<glyph name="germandbls" format="2">
	<unicode hex="00DF"/>
	<advance width="1406"/>
	<outline>
		<contour>
			<point x="1073" y="1228" type="qcurve" smooth="yes"/>
			<point x="1073" y="1125"/>
			<point x="993" y="995"/>
			<point x="911" y="944" type="qcurve" smooth="yes"/>
			<point x="833" y="896"/>
			<point x="767" y="839"/>
			<point x="767" y="803" type="qcurve" smooth="yes"/>
			<point x="767" y="753"/>
			<point x="849" y="693"/>
			<point x="1018" y="647" type="qcurve" smooth="yes"/>
			<point x="1202" y="597"/>
			<point x="1374" y="433"/>
			<point x="1374" y="311" type="qcurve" smooth="yes"/>
			<point x="1374" y="169"/>
			<point x="1167" y="-20"/>
			<point x="991" y="-20" type="qcurve" smooth="yes"/>
			<point x="902" y="-20"/>
			<point x="781" y="17"/>
			<point x="725" y="51" type="qcurve"/>
			<point x="692" y="0" type="line"/>
			<point x="555" y="0" type="line"/>
			<point x="555" y="390" type="line"/>
			<point x="712" y="390" type="line"/>
			<point x="742" y="225" type="line"/>
			<point x="784" y="193"/>
			<point x="879" y="148"/>
			<point x="972" y="148" type="qcurve" smooth="yes"/>
			<point x="1074" y="148"/>
			<point x="1166" y="210"/>
			<point x="1166" y="282" type="qcurve" smooth="yes"/>
			<point x="1166" y="356"/>
			<point x="1062" y="433"/>
			<point x="899" y="480" type="qcurve" smooth="yes"/>
			<point x="726" y="529"/>
			<point x="567" y="673"/>
			<point x="567" y="762" type="qcurve" smooth="yes"/>
			<point x="567" y="852"/>
			<point x="668" y="954"/>
			<point x="721" y="993" type="qcurve" smooth="yes"/>
			<point x="777" y="1034"/>
			<point x="860" y="1125"/>
			<point x="860" y="1195" type="qcurve" smooth="yes"/>
			<point x="860" y="1260"/>
			<point x="757" y="1345"/>
			<point x="652" y="1345" type="qcurve" smooth="yes"/>
			<point x="549" y="1345"/>
			<point x="432" y="1246"/>
			<point x="433" y="1153" type="qcurve" smooth="yes"/>
			<point x="437" y="552" type="line"/>
			<point x="437" y="54" type="line"/>
			<point x="376" y="-20" type="line"/>
			<point x="54" y="0" type="line"/>
			<point x="54" y="137" type="line"/>
			<point x="222" y="172" type="line"/>
			<point x="228" y="552" type="line"/>
			<point x="223" y="1126" type="line" smooth="yes"/>
			<point x="222" y="1284"/>
			<point x="440" y="1521"/>
			<point x="654" y="1521" type="qcurve" smooth="yes"/>
			<point x="857" y="1521"/>
			<point x="1073" y="1349"/>
		</contour>
	</outline>
</glyph>
<glyph name="ae" format="2">
  <advance width="1706"/>
  <unicode hex="00E6"/>
  <outline>
    <contour>
      <point x="38" y="288" type="qcurve" smooth="yes"/>
      <point x="38" y="441"/>
      <point x="352" y="640"/>
      <point x="736" y="664" type="qcurve"/>
      <point x="746" y="535" type="line"/>
      <point x="506" y="516"/>
      <point x="255" y="424"/>
      <point x="255" y="316" type="qcurve" smooth="yes"/>
      <point x="255" y="226"/>
      <point x="382" y="132"/>
      <point x="453" y="132" type="qcurve" smooth="yes"/>
      <point x="527" y="132"/>
      <point x="700" y="224"/>
      <point x="751" y="275" type="qcurve"/>
      <point x="742" y="311"/>
      <point x="725" y="427"/>
      <point x="724" y="480" type="qcurve" smooth="yes"/>
      <point x="722" y="637" type="line" smooth="yes"/>
      <point x="720" y="781"/>
      <point x="595" y="920"/>
      <point x="489" y="920" type="qcurve" smooth="yes"/>
      <point x="398" y="920"/>
      <point x="319" y="901"/>
      <point x="293" y="882" type="qcurve"/>
      <point x="325" y="864"/>
      <point x="362" y="812"/>
      <point x="362" y="777" type="qcurve" smooth="yes"/>
      <point x="362" y="741"/>
      <point x="300" y="674"/>
      <point x="244" y="674" type="qcurve" smooth="yes"/>
      <point x="188" y="674"/>
      <point x="121" y="743"/>
      <point x="121" y="813" type="qcurve" smooth="yes"/>
      <point x="121" y="944"/>
      <point x="352" y="1064"/>
      <point x="493" y="1064" type="qcurve" smooth="yes"/>
      <point x="635" y="1064"/>
      <point x="806" y="954"/>
      <point x="835" y="881" type="qcurve"/>
      <point x="839" y="881" type="line"/>
      <point x="876" y="964"/>
      <point x="1095" y="1072"/>
      <point x="1207" y="1072" type="qcurve" smooth="yes"/>
      <point x="1420" y="1072"/>
      <point x="1659" y="843"/>
      <point x="1678" y="621" type="qcurve"/>
      <point x="1678" y="510" type="line"/>
      <point x="892" y="510" type="line"/>
      <point x="892" y="654" type="line"/>
      <point x="1482" y="654" type="line"/>
      <point x="1463" y="786"/>
      <point x="1317" y="914"/>
      <point x="1202" y="914" type="qcurve" smooth="yes"/>
      <point x="1067" y="914"/>
      <point x="914" y="717"/>
      <point x="915" y="548" type="qcurve" smooth="yes"/>
      <point x="916" y="362"/>
      <point x="1118" y="150"/>
      <point x="1271" y="150" type="qcurve" smooth="yes"/>
      <point x="1375" y="150"/>
      <point x="1511" y="193"/>
      <point x="1562" y="231" type="qcurve"/>
      <point x="1643" y="124" type="line"/>
      <point x="1593" y="63"/>
      <point x="1399" y="-20"/>
      <point x="1255" y="-20" type="qcurve" smooth="yes"/>
      <point x="1084" y="-20"/>
      <point x="861" y="100"/>
      <point x="822" y="170" type="qcurve"/>
      <point x="773" y="109"/>
      <point x="502" y="-15"/>
      <point x="361" y="-15" type="qcurve" smooth="yes"/>
      <point x="224" y="-15"/>
      <point x="38" y="144"/>
    </contour>
  </outline>
</glyph>
<glyph name="idotless" format="2">
  <advance width="683"/>
  <unicode hex="0131"/>
  <outline>
    <contour>
      <point x="77" y="0" type="line"/>
      <point x="77" y="137" type="line"/>
      <point x="245" y="172" type="line"/>
      <point x="247" y="552" type="line"/>
      <point x="240" y="835" type="line"/>
      <point x="72" y="865" type="line"/>
      <point x="72" y="1017" type="line"/>
      <point x="394" y="1050" type="line"/>
      <point x="441" y="1050" type="line"/>
      <point x="464" y="1011" type="line"/>
      <point x="457" y="552" type="line"/>
      <point x="459" y="172" type="line"/>
      <point x="617" y="137" type="line"/>
      <point x="617" y="0" type="line"/>
    </contour>
  </outline>
</glyph>
<glyph name="jdotless" format="2">
  <advance width="599"/>
  <unicode hex="0237"/>
  <anchor x="299.5" y="-436" name="bottom"/>
  <anchor x="299.5" y="1050" name="top"/>
  <outline>
    <contour>
      <point x="-40" y="-484" type="qcurve"/>
      <point x="-40" y="-333" type="line"/>
      <point x="112" y="-338"/>
      <point x="222" y="-222"/>
      <point x="221" y="-48" type="qcurve" smooth="yes"/>
      <point x="219" y="552" type="line"/>
      <point x="213" y="835" type="line"/>
      <point x="45" y="865" type="line"/>
      <point x="45" y="1016" type="line"/>
      <point x="367" y="1050" type="line"/>
      <point x="414" y="1050" type="line"/>
      <point x="437" y="1011" type="line"/>
      <point x="431" y="552" type="line"/>
      <point x="433" y="-27" type="line" smooth="yes"/>
      <point x="434" y="-271"/>
      <point x="201" y="-501"/>
    </contour>
  </outline>
</glyph>
<glyph name="circumflex" format="2">
  <advance width="1024"/>
  <unicode hex="02C6"/>
  <outline>
    <contour>
      <point x="512.0" y="1673" type="qcurve" smooth="yes"/>
      <point x="560.0" y="1673"/>
      <point x="614.0" y="1646"/>
      <point x="667.0" y="1586" type="qcurve" smooth="yes"/>
      <point x="865.0" y="1363" type="line"/>
      <point x="747.0" y="1270" type="line"/>
      <point x="512.0" y="1480" type="line"/>
      <point x="277.0" y="1270" type="line"/>
      <point x="159.0" y="1363" type="line"/>
      <point x="357.0" y="1586" type="line" smooth="yes"/>
      <point x="417.0" y="1653"/>
      <point x="459.0" y="1673"/>
    </contour>
  </outline>
</glyph>
<glyph name="caron" format="2">
  <advance width="1024"/>
  <unicode hex="02C7"/>
  <outline>
    <contour>
      <point x="512" y="1270" type="qcurve" smooth="yes"/>
      <point x="459" y="1270"/>
      <point x="417" y="1290"/>
      <point x="357" y="1357" type="qcurve" smooth="yes"/>
      <point x="159" y="1580" type="line"/>
      <point x="277" y="1673" type="line"/>
      <point x="512" y="1463" type="line"/>
      <point x="747" y="1673" type="line"/>
      <point x="865" y="1580" type="line"/>
      <point x="667" y="1357" type="line" smooth="yes"/>
      <point x="614" y="1297"/>
      <point x="560" y="1270"/>
    </contour>
  </outline>
</glyph>
<glyph name="breve" format="2">
  <advance width="1024"/>
  <unicode hex="02D8"/>
  <outline>
    <contour>
      <point x="754.0" y="1590.0" type="qcurve"/>
      <point x="908.0" y="1537.0" type="line"/>
      <point x="885.0" y="1446.0"/>
      <point x="668.0" y="1270.0"/>
      <point x="519.0" y="1270.0" type="qcurve" smooth="yes"/>
      <point x="360.0" y="1270.0"/>
      <point x="144.0" y="1425.0"/>
      <point x="116.0" y="1534.0" type="qcurve"/>
      <point x="270.0" y="1591.0" type="line"/>
      <point x="301.0" y="1545.0"/>
      <point x="415.0" y="1450.0"/>
      <point x="512.0" y="1450.0" type="qcurve" smooth="yes"/>
      <point x="603.0" y="1450.0"/>
      <point x="721.0" y="1538.0"/>
    </contour>
  </outline>
</glyph>
<glyph name="dotaccent" format="2">
  <advance width="1024"/>
  <unicode hex="02D9"/>
  <outline>
    <contour>
      <point x="370.0" y="1407.0" type="qcurve" smooth="yes"/>
      <point x="370.0" y="1471.0"/>
      <point x="442.0" y="1548.0"/>
      <point x="512.0" y="1548.0" type="qcurve" smooth="yes"/>
      <point x="577.0" y="1548.0"/>
      <point x="654.0" y="1469.0"/>
      <point x="654.0" y="1407.0" type="qcurve" smooth="yes"/>
      <point x="654.0" y="1344.0"/>
      <point x="582.0" y="1270.0"/>
      <point x="512.0" y="1270.0" type="qcurve" smooth="yes"/>
      <point x="446.0" y="1270.0"/>
      <point x="370.0" y="1347.0"/>
    </contour>
  </outline>
</glyph>
<glyph name="ring" format="2">
  <advance width="1024"/>
  <unicode hex="02DA"/>
  <outline>
    <contour>
      <point x="282.0" y="1492.0" type="qcurve" smooth="yes"/>
      <point x="282.0" y="1589.0"/>
      <point x="411.0" y="1714.0"/>
      <point x="512.0" y="1714.0" type="qcurve" smooth="yes"/>
      <point x="613.0" y="1714.0"/>
      <point x="742.0" y="1589.0"/>
      <point x="742.0" y="1492.0" type="qcurve" smooth="yes"/>
      <point x="742.0" y="1395.0"/>
      <point x="613.0" y="1270.0"/>
      <point x="512.0" y="1270.0" type="qcurve" smooth="yes"/>
      <point x="411.0" y="1270.0"/>
      <point x="282.0" y="1395.0"/>
    </contour>
    <contour>
      <point x="408.0" y="1492.0" type="qcurve" smooth="yes"/>
      <point x="408.0" y="1446.0"/>
      <point x="465.0" y="1387.0"/>
      <point x="512.0" y="1387.0" type="qcurve" smooth="yes"/>
      <point x="562.0" y="1387.0"/>
      <point x="615.0" y="1442.0"/>
      <point x="615.0" y="1492.0" type="qcurve" smooth="yes"/>
      <point x="615.0" y="1538.0"/>
      <point x="559.0" y="1597.0"/>
      <point x="512.0" y="1597.0" type="qcurve" smooth="yes"/>
      <point x="462.0" y="1597.0"/>
      <point x="408.0" y="1542.0"/>
    </contour>
  </outline>
</glyph>
<glyph name="ogonek" format="2">
  <advance width="1024"/>
  <unicode hex="02DB"/>
  <outline>
    <contour>
      <point x="442.0" y="-233.0" type="qcurve" smooth="yes"/>
      <point x="442.0" y="-280.0"/>
      <point x="500.0" y="-329.0"/>
      <point x="550.0" y="-329.0" type="qcurve" smooth="yes"/>
      <point x="595.0" y="-329.0"/>
      <point x="715.0" y="-281.0"/>
      <point x="775.0" y="-237.0" type="qcurve"/>
      <point x="836.0" y="-343.0" type="line"/>
      <point x="787.0" y="-396.0"/>
      <point x="614.0" y="-471.0"/>
      <point x="518.0" y="-471.0" type="qcurve" smooth="yes"/>
      <point x="421.0" y="-471.0"/>
      <point x="277.0" y="-378.0"/>
      <point x="277.0" y="-288.0" type="qcurve"/>
      <point x="277.0" y="-201.0"/>
      <point x="412.0" y="-26.0"/>
      <point x="491.0" y="36.0" type="qcurve" smooth="yes"/>
      <point x="514.0" y="54.0" type="line"/>
      <point x="612.0" y="0.0" type="line"/>
      <point x="600.0" y="-11.0" type="line" smooth="yes"/>
      <point x="533.0" y="-73.0"/>
      <point x="442.0" y="-189.0"/>
    </contour>
  </outline>
</glyph>
<glyph name="tilde" format="2">
  <advance width="1024"/>
  <unicode hex="02DC"/>
  <outline>
    <contour>
      <point x="104.0" y="1416.0" type="line"/>
      <point x="143.0" y="1473.0"/>
      <point x="262.0" y="1574.0"/>
      <point x="333.0" y="1574.0" type="qcurve" smooth="yes"/>
      <point x="376.0" y="1574.0"/>
      <point x="454.0" y="1553.0"/>
      <point x="495.0" y="1530.0" type="qcurve" smooth="yes"/>
      <point x="524.0" y="1514.0"/>
      <point x="634.0" y="1451.0"/>
      <point x="677.0" y="1451.0" type="qcurve" smooth="yes"/>
      <point x="719.0" y="1451.0"/>
      <point x="786.0" y="1490.0"/>
      <point x="824.0" y="1540.0" type="qcurve"/>
      <point x="920.0" y="1429.0" type="line"/>
      <point x="879.0" y="1362.0"/>
      <point x="748.0" y="1270.0"/>
      <point x="690.0" y="1270.0" type="qcurve" smooth="yes"/>
      <point x="640.0" y="1270.0"/>
      <point x="538.0" y="1300.0"/>
      <point x="502.0" y="1325.0" type="qcurve" smooth="yes"/>
      <point x="468.0" y="1348.0"/>
      <point x="391.0" y="1383.0"/>
      <point x="361.0" y="1383.0" type="qcurve" smooth="yes"/>
      <point x="311.0" y="1383.0"/>
      <point x="220.0" y="1321.0"/>
      <point x="201.0" y="1293.0" type="qcurve"/>
    </contour>
  </outline>
</glyph>
<glyph name="hungarumlaut" format="2">
  <advance width="1024"/>
  <unicode hex="02DD"/>
  <outline>
    <contour>
      <point x="540.0" y="1594" type="qcurve" smooth="yes"/>
      <point x="540.0" y="1547"/>
      <point x="484.0" y="1488"/>
      <point x="445.0" y="1456" type="qcurve" smooth="yes"/>
      <point x="222.0" y="1270" type="line"/>
      <point x="108.0" y="1366" type="line"/>
      <point x="289.0" y="1593" type="line" smooth="yes"/>
      <point x="323.0" y="1635"/>
      <point x="391.0" y="1683"/>
      <point x="428.0" y="1683" type="qcurve" smooth="yes"/>
      <point x="477.0" y="1683"/>
      <point x="540.0" y="1629"/>
    </contour>
    <contour>
      <point x="944.0" y="1594" type="qcurve" smooth="yes"/>
      <point x="944.0" y="1547"/>
      <point x="888.0" y="1487"/>
      <point x="849.0" y="1456" type="qcurve" smooth="yes"/>
      <point x="620.0" y="1270" type="line"/>
      <point x="513.0" y="1366" type="line"/>
      <point x="687.0" y="1593" type="line" smooth="yes"/>
      <point x="719.0" y="1635"/>
      <point x="795.0" y="1683"/>
      <point x="832.0" y="1683" type="qcurve" smooth="yes"/>
      <point x="881.0" y="1683"/>
      <point x="944.0" y="1629"/>
    </contour>
  </outline>
</glyph>
<glyph name="hookabovecomb" format="2">
  <advance width="1024"/>
  <unicode hex="0309"/>
  <outline>
    <contour>
      <point x="361" y="1040" type="line"/>
      <point x="361" y="1178" type="line"/>
      <point x="449" y="1283" type="line"/>
      <point x="465" y="1276"/>
      <point x="515" y="1269"/>
      <point x="536" y="1269" type="qcurve" smooth="yes"/>
      <point x="588" y="1269"/>
      <point x="632" y="1314"/>
      <point x="632" y="1359" type="qcurve" smooth="yes"/>
      <point x="632" y="1403"/>
      <point x="561" y="1435"/>
      <point x="517" y="1435" type="qcurve" smooth="yes"/>
      <point x="453" y="1435"/>
      <point x="324" y="1402"/>
      <point x="286" y="1384" type="qcurve"/>
      <point x="234" y="1513" type="line"/>
      <point x="294" y="1548"/>
      <point x="463" y="1579"/>
      <point x="530" y="1579" type="qcurve" smooth="yes"/>
      <point x="650" y="1579"/>
      <point x="815" y="1463"/>
      <point x="815" y="1358" type="qcurve" smooth="yes"/>
      <point x="815" y="1266"/>
      <point x="684" y="1142"/>
      <point x="608" y="1142" type="qcurve" smooth="yes"/>
      <point x="578" y="1142"/>
      <point x="540" y="1149"/>
      <point x="524" y="1153" type="qcurve"/>
      <point x="524" y="1040" type="line"/>
    </contour>
  </outline>
</glyph>
<glyph name="breveinvertedcomb" format="2">
  <advance width="1024"/>
  <unicode hex="030F"/>
  <anchor x="512.0" y="1050" name="_top"/>
  <anchor x="512.0" y="1591.0" name="top"/>
  <outline>
    <contour>
      <point x="270.0" y="1271.0" type="qcurve"/>
      <point x="116.0" y="1324.0" type="line"/>
      <point x="139.0" y="1415.0"/>
      <point x="356.0" y="1591.0"/>
      <point x="505.0" y="1591.0" type="qcurve" smooth="yes"/>
      <point x="664.0" y="1591.0"/>
      <point x="880.0" y="1436.0"/>
      <point x="908.0" y="1327.0" type="qcurve"/>
      <point x="754.0" y="1270.0" type="line"/>
      <point x="723.0" y="1316.0"/>
      <point x="609.0" y="1411.0"/>
      <point x="512.0" y="1411.0" type="qcurve" smooth="yes"/>
      <point x="421.0" y="1411.0"/>
      <point x="303.0" y="1323.0"/>
    </contour>
  </outline>
</glyph>
<glyph name="dblgravecomb" format="2">
  <advance width="1024"/>
  <unicode hex="0311"/>
  <anchor x="512.0" y="1050" name="_top"/>
  <anchor x="512.0" y="1683" name="top"/>
  <outline>
    <contour>
      <point x="-42" y="1594.0" type="qcurve" smooth="yes"/>
      <point x="-42" y="1629.0"/>
      <point x="21" y="1683.0"/>
      <point x="70" y="1683.0" type="qcurve" smooth="yes"/>
      <point x="107" y="1683.0"/>
      <point x="183" y="1635.0"/>
      <point x="215" y="1593.0" type="qcurve" smooth="yes"/>
      <point x="389" y="1366.0" type="line"/>
      <point x="282" y="1270.0" type="line"/>
      <point x="53" y="1456.0" type="line" smooth="yes"/>
      <point x="14" y="1487.0"/>
      <point x="-42" y="1547.0"/>
    </contour>
    <contour>
      <point x="362" y="1594.0" type="qcurve" smooth="yes"/>
      <point x="362" y="1629.0"/>
      <point x="425" y="1683.0"/>
      <point x="474" y="1683.0" type="qcurve" smooth="yes"/>
      <point x="511" y="1683.0"/>
      <point x="579" y="1635.0"/>
      <point x="613" y="1593.0" type="qcurve" smooth="yes"/>
      <point x="794" y="1366.0" type="line"/>
      <point x="680" y="1270.0" type="line"/>
      <point x="457" y="1456.0" type="line" smooth="yes"/>
      <point x="418" y="1488.0"/>
      <point x="362" y="1547.0"/>
    </contour>
  </outline>
</glyph>
<glyph name="dotbelowcomb" format="2">
  <advance width="1024"/>
  <unicode hex="0323"/>
  <anchor x="512.0" y="0" name="_bottom"/>
  <anchor x="512.0" y="-480.0" name="bottom"/>
  <outline>
    <contour>
      <point x="375.0" y="-347.0" type="qcurve" smooth="yes"/>
      <point x="375.0" y="-285.0"/>
      <point x="445.0" y="-210.0"/>
      <point x="512.0" y="-210.0" type="qcurve" smooth="yes"/>
      <point x="575.0" y="-210.0"/>
      <point x="649.0" y="-287.0"/>
      <point x="649.0" y="-347.0" type="qcurve" smooth="yes"/>
      <point x="649.0" y="-408.0"/>
      <point x="579.0" y="-480.0"/>
      <point x="512.0" y="-480.0" type="qcurve" smooth="yes"/>
      <point x="448.0" y="-480.0"/>
      <point x="375.0" y="-406.0"/>
    </contour>
  </outline>
</glyph>
<glyph name="commaaccentcomb" format="2">
  <advance width="1024"/>
  <unicode hex="0326"/>
  <anchor x="512.0" y="0" name="_bottom"/>
  <anchor x="512.0" y="-700.0" name="bottom"/>
  <outline>
    <contour>
      <point x="358.0" y="-613.0" type="line"/>
      <point x="402.0" y="-561.0"/>
      <point x="465.0" y="-467.0"/>
      <point x="480.0" y="-412.0" type="qcurve"/>
      <point x="415.0" y="-398.0"/>
      <point x="356.0" y="-341.0"/>
      <point x="356.0" y="-283.0" type="qcurve" smooth="yes"/>
      <point x="356.0" y="-229.0"/>
      <point x="432.0" y="-146.0"/>
      <point x="499.0" y="-146.0" type="qcurve" smooth="yes"/>
      <point x="563.0" y="-146.0"/>
      <point x="664.0" y="-227.0"/>
      <point x="664.0" y="-318.0" type="qcurve" smooth="yes"/>
      <point x="664.0" y="-424.0"/>
      <point x="521.0" y="-635.0"/>
      <point x="440.0" y="-700.0" type="qcurve"/>
    </contour>
  </outline>
</glyph>
<glyph name="brevebelowcomb" format="2">
  <advance width="1024"/>
  <unicode hex="032E"/>
  <outline>
    <contour>
      <point x="754" y="-100" type="qcurve"/>
      <point x="908" y="-153" type="line"/>
      <point x="885" y="-244"/>
      <point x="668" y="-420"/>
      <point x="519" y="-420" type="qcurve" smooth="yes"/>
      <point x="360" y="-420"/>
      <point x="144" y="-265"/>
      <point x="116" y="-156" type="qcurve"/>
      <point x="270" y="-99" type="line"/>
      <point x="301" y="-145"/>
      <point x="415" y="-240"/>
      <point x="512" y="-240" type="qcurve" smooth="yes"/>
      <point x="603" y="-240"/>
      <point x="721" y="-152"/>
    </contour>
  </outline>
</glyph>
<glyph name="macronbelowcomb" format="2">
  <advance width="1024"/>
  <unicode hex="0331"/>
  <anchor x="512.0" y="0" name="_bottom"/>
  <anchor x="512.0" y="-369" name="bottom"/>
  <outline>
    <contour>
      <point x="196" y="-369" type="line"/>
      <point x="196" y="-188" type="line"/>
      <point x="828" y="-188" type="line"/>
      <point x="828" y="-369" type="line"/>
    </contour>
  </outline>
</glyph>
<glyph name="numeralsign" format="2">
	<unicode hex="0374"/>
	<advance width="389"/>
	<outline>
		<contour>
			<point x="155" y="922" type="line"/>
			<point x="20" y="967" type="line"/>
			<point x="132" y="1500" type="line"/>
			<point x="316" y="1479" type="line"/>
			<point x="351" y="1419" type="line"/>
		</contour>
	</outline>
</glyph>
<glyph name="lownumeralsign" format="2">
	<unicode hex="0375"/>
	<advance width="381"/>
	<outline>
		<contour>
			<point x="179" y="-267" type="line"/>
			<point x="-5" y="-246" type="line"/>
			<point x="-40" y="-186" type="line"/>
			<point x="156" y="311" type="line"/>
			<point x="291" y="266" type="line"/>
		</contour>
	</outline>
</glyph>
<glyph name="tonos" format="2">
	<unicode hex="0384"/>
	<advance width="895"/>
	<outline>
		<contour>
			<point x="421" y="1200" type="line"/>
			<point x="286" y="1245" type="line"/>
			<point x="398" y="1728" type="line"/>
			<point x="582" y="1707" type="line"/>
			<point x="617" y="1647" type="line"/>
		</contour>
	</outline>
</glyph>
<glyph name="dieresistonos" format="2">
	<unicode hex="0385"/>
	<advance width="1214"/>
	<outline>
		<contour>
			<point x="282" y="1204" type="qcurve" smooth="yes"/>
			<point x="221" y="1204"/>
			<point x="149" y="1275"/>
			<point x="149" y="1335" type="qcurve" smooth="yes"/>
			<point x="149" y="1399"/>
			<point x="217" y="1468"/>
			<point x="282" y="1468" type="qcurve" smooth="yes"/>
			<point x="343" y="1468"/>
			<point x="415" y="1394"/>
			<point x="415" y="1335" type="qcurve" smooth="yes"/>
			<point x="415" y="1272"/>
			<point x="348" y="1204"/>
		</contour>
		<contour>
			<point x="649" y="1200" type="line"/>
			<point x="509" y="1221" type="line"/>
			<point x="535" y="1716" type="line"/>
			<point x="720" y="1727" type="line"/>
			<point x="765" y="1674" type="line"/>
		</contour>
		<contour>
			<point x="932" y="1204" type="qcurve" smooth="yes"/>
			<point x="871" y="1204"/>
			<point x="799" y="1275"/>
			<point x="799" y="1335" type="qcurve" smooth="yes"/>
			<point x="799" y="1399"/>
			<point x="867" y="1468"/>
			<point x="932" y="1468" type="qcurve" smooth="yes"/>
			<point x="993" y="1468"/>
			<point x="1065" y="1394"/>
			<point x="1065" y="1335" type="qcurve" smooth="yes"/>
			<point x="1065" y="1272"/>
			<point x="998" y="1204"/>
		</contour>
	</outline>
</glyph>
<glyph name="Gamma" format="2">
	<unicode hex="0393"/>
	<advance width="1158"/>
	<outline>
		<contour>
			<point x="82" y="0" type="line"/>
			<point x="82" y="150" type="line"/>
			<point x="290" y="187" type="line"/>
			<point x="292" y="760" type="line"/>
			<point x="290" y="1302" type="line"/>
			<point x="82" y="1336" type="line"/>
			<point x="82" y="1500" type="line"/>
			<point x="1145" y="1500" type="line"/>
			<point x="1145" y="1051" type="line"/>
			<point x="973" y="1051" type="line"/>
			<point x="938" y="1332" type="line"/>
			<point x="554" y="1332" type="line"/>
			<point x="515" y="1312" type="line"/>
			<point x="513" y="760" type="line"/>
			<point x="515" y="182" type="line"/>
			<point x="743" y="150" type="line"/>
			<point x="743" y="0" type="line"/>
		</contour>
	</outline>
</glyph>
<glyph name="Delta" format="2">
	<unicode hex="0394"/>
	<advance width="1475"/>
	<outline>
		<contour>
			<point x="77" y="0" type="line"/>
			<point x="77" y="145" type="line"/>
			<point x="254" y="549" type="line"/>
			<point x="660" y="1508" type="line"/>
			<point x="831" y="1508" type="line"/>
			<point x="1206" y="609" type="line"/>
			<point x="1401" y="145" type="line"/>
			<point x="1401" y="0" type="line"/>
		</contour>
		<contour>
			<point x="295" y="187" type="line"/>
			<point x="726" y="178" type="line"/>
			<point x="1142" y="188" type="line"/>
			<point x="1011" y="503" type="line"/>
			<point x="719" y="1219" type="line"/>
			<point x="439" y="550" type="line"/>
		</contour>
	</outline>
</glyph>
<glyph name="Theta" format="2">
	<unicode hex="0398"/>
	<advance width="1760"/>
	<outline>
		<contour>
			<point x="884" y="-31" type="qcurve" smooth="yes"/>
			<point x="529" y="-31"/>
			<point x="80" y="396"/>
			<point x="80" y="737" type="qcurve" smooth="yes"/>
			<point x="80" y="1068"/>
			<point x="516" y="1520"/>
			<point x="880" y="1520" type="qcurve" smooth="yes"/>
			<point x="1244" y="1520"/>
			<point x="1680" y="1097"/>
			<point x="1680" y="752" type="qcurve" smooth="yes"/>
			<point x="1680" y="423"/>
			<point x="1248" y="-31"/>
		</contour>
		<contour>
			<point x="882" y="151" type="qcurve" smooth="yes"/>
			<point x="1155" y="151"/>
			<point x="1441" y="460"/>
			<point x="1441" y="745" type="qcurve" smooth="yes"/>
			<point x="1441" y="998"/>
			<point x="1135" y="1330"/>
			<point x="882" y="1330" type="qcurve" smooth="yes"/>
			<point x="609" y="1330"/>
			<point x="319" y="1029"/>
			<point x="319" y="769" type="qcurve" smooth="yes"/>
			<point x="319" y="499"/>
			<point x="631" y="151"/>
		</contour>
		<contour>
			<point x="520" y="649" type="line"/>
			<point x="520" y="852" type="line"/>
			<point x="550" y="852" type="line"/>
			<point x="876" y="826" type="line"/>
			<point x="886" y="826" type="line"/>
			<point x="1210" y="852" type="line"/>
			<point x="1240" y="852" type="line"/>
			<point x="1240" y="649" type="line"/>
			<point x="1210" y="649" type="line"/>
			<point x="886" y="675" type="line"/>
			<point x="876" y="675" type="line"/>
			<point x="550" y="649" type="line"/>
		</contour>
	</outline>
</glyph>
<glyph name="Xi" format="2">
	<unicode hex="039E"/>
	<advance width="1292"/>
	<outline>
		<contour>
			<point x="53" y="0" type="line"/>
			<point x="13" y="399" type="line"/>
			<point x="183" y="399" type="line"/>
			<point x="243" y="204" type="line"/>
			<point x="646" y="200" type="line"/>
			<point x="1049" y="204" type="line"/>
			<point x="1109" y="399" type="line"/>
			<point x="1279" y="399" type="line"/>
			<point x="1239" y="0" type="line"/>
		</contour>
		<contour>
			<point x="241" y="522" type="line"/>
			<point x="241" y="988" type="line"/>
			<point x="389" y="988" type="line"/>
			<point x="424" y="863" type="line"/>
			<point x="646" y="859" type="line"/>
			<point x="868" y="863" type="line"/>
			<point x="903" y="988" type="line"/>
			<point x="1051" y="988" type="line"/>
			<point x="1051" y="522" type="line"/>
			<point x="903" y="522" type="line"/>
			<point x="868" y="657" type="line"/>
			<point x="646" y="661" type="line"/>
			<point x="424" y="657" type="line"/>
			<point x="389" y="522" type="line"/>
		</contour>
		<contour>
			<point x="56" y="1095" type="line"/>
			<point x="56" y="1500" type="line"/>
			<point x="1236" y="1500" type="line"/>
			<point x="1236" y="1095" type="line"/>
			<point x="1054" y="1095" type="line"/>
			<point x="1029" y="1296" type="line"/>
			<point x="646" y="1300" type="line"/>
			<point x="263" y="1296" type="line"/>
			<point x="238" y="1095" type="line"/>
		</contour>
	</outline>
	<guideline x="721" y="1008" angle="90" identifier="GCiNqpylsp"/>
</glyph>
<glyph name="Pi" format="2">
	<unicode hex="03A0"/>
	<advance width="1748"/>
	<outline>
		<contour>
			<point x="82" y="0" type="line"/>
			<point x="82" y="150" type="line"/>
			<point x="290" y="185" type="line"/>
			<point x="292" y="754" type="line"/>
			<point x="290" y="1302" type="line"/>
			<point x="82" y="1336" type="line"/>
			<point x="82" y="1500" type="line"/>
			<point x="1666" y="1500" type="line"/>
			<point x="1666" y="1336" type="line"/>
			<point x="1458" y="1302" type="line"/>
			<point x="1456" y="754" type="line"/>
			<point x="1458" y="185" type="line"/>
			<point x="1666" y="150" type="line"/>
			<point x="1666" y="0" type="line"/>
			<point x="1026" y="0" type="line"/>
			<point x="1026" y="150" type="line"/>
			<point x="1234" y="185" type="line"/>
			<point x="1236" y="754" type="line"/>
			<point x="1234" y="1302" type="line"/>
			<point x="914" y="1305" type="line"/>
			<point x="514" y="1302" type="line"/>
			<point x="512" y="754" type="line"/>
			<point x="514" y="185" type="line"/>
			<point x="722" y="150" type="line"/>
			<point x="722" y="0" type="line"/>
		</contour>
	</outline>
</glyph>
<glyph name="Sigma" format="2">
	<unicode hex="03A3"/>
	<advance width="1213"/>
	<outline>
		<contour>
			<point x="63" y="0" type="line"/>
			<point x="26" y="102" type="line"/>
			<point x="540" y="718" type="line"/>
			<point x="91" y="1369" type="line"/>
			<point x="91" y="1500" type="line"/>
			<point x="1153" y="1500" type="line"/>
			<point x="1153" y="1051" type="line"/>
			<point x="1001" y="1051" type="line"/>
			<point x="952" y="1332" type="line"/>
			<point x="403" y="1332" type="line"/>
			<point x="395" y="1315" type="line"/>
			<point x="771" y="775" type="line"/>
			<point x="771" y="736" type="line"/>
			<point x="325" y="202" type="line"/>
			<point x="339" y="186" type="line"/>
			<point x="981" y="186" type="line"/>
			<point x="1040" y="399" type="line"/>
			<point x="1200" y="399" type="line"/>
			<point x="1160" y="0" type="line"/>
		</contour>
	</outline>
</glyph>
<glyph name="Phi" format="2">
	<unicode hex="03A6"/>
	<advance width="1689"/>
	<outline>
		<contour>
			<point x="549" y="-60" type="line"/>
			<point x="549" y="84" type="line"/>
			<point x="737" y="118" type="line"/>
			<point x="737" y="274" type="line"/>
			<point x="747" y="274" type="line"/>
			<point x="749" y="740" type="line"/>
			<point x="939" y="740" type="line"/>
			<point x="941" y="274" type="line"/>
			<point x="951" y="274" type="line"/>
			<point x="951" y="118" type="line"/>
			<point x="1139" y="84" type="line"/>
			<point x="1139" y="-60" type="line"/>
		</contour>
		<contour>
			<point x="749" y="740" type="line"/>
			<point x="747" y="1206" type="line"/>
			<point x="737" y="1206" type="line"/>
			<point x="737" y="1382" type="line"/>
			<point x="549" y="1416" type="line"/>
			<point x="549" y="1560" type="line"/>
			<point x="1139" y="1560" type="line"/>
			<point x="1139" y="1416" type="line"/>
			<point x="951" y="1382" type="line"/>
			<point x="951" y="1206" type="line"/>
			<point x="941" y="1206" type="line"/>
			<point x="939" y="740" type="line"/>
		</contour>
		<contour>
			<point x="788" y="255" type="line"/>
			<point x="397" y="255"/>
			<point x="80" y="496"/>
			<point x="80" y="713" type="qcurve" smooth="yes"/>
			<point x="80" y="969"/>
			<point x="434" y="1234"/>
			<point x="788" y="1243" type="qcurve"/>
			<point x="790" y="1093" type="line"/>
			<point x="537" y="1081"/>
			<point x="304" y="898"/>
			<point x="304" y="727" type="qcurve" smooth="yes"/>
			<point x="304" y="562"/>
			<point x="537" y="407"/>
			<point x="790" y="397" type="qcurve"/>
		</contour>
		<contour>
			<point x="900" y="255" type="qcurve"/>
			<point x="898" y="397" type="line"/>
			<point x="1152" y="409"/>
			<point x="1385" y="592"/>
			<point x="1385" y="763" type="qcurve" smooth="yes"/>
			<point x="1385" y="928"/>
			<point x="1152" y="1083"/>
			<point x="898" y="1093" type="qcurve"/>
			<point x="900" y="1243" type="line"/>
			<point x="1292" y="1243"/>
			<point x="1609" y="1002"/>
			<point x="1609" y="785" type="qcurve" smooth="yes"/>
			<point x="1609" y="529"/>
			<point x="1255" y="264"/>
		</contour>
	</outline>
</glyph>
<glyph name="Psi" format="2">
	<unicode hex="03A8"/>
	<advance width="1875"/>
	<outline>
		<contour>
			<point x="618" y="0" type="line"/>
			<point x="618" y="150" type="line"/>
			<point x="836" y="185" type="line"/>
			<point x="837" y="535" type="line"/>
			<point x="846" y="535" type="line"/>
			<point x="848" y="754" type="line"/>
			<point x="846" y="1302" type="line"/>
			<point x="668" y="1336" type="line"/>
			<point x="668" y="1500" type="line"/>
			<point x="1228" y="1500" type="line"/>
			<point x="1228" y="1336" type="line"/>
			<point x="1050" y="1302" type="line"/>
			<point x="1048" y="754" type="line"/>
			<point x="1049" y="535" type="line"/>
			<point x="1059" y="535" type="line"/>
			<point x="1060" y="186" type="line"/>
			<point x="1278" y="150" type="line"/>
			<point x="1278" y="0" type="line"/>
		</contour>
		<contour>
			<point x="913" y="462" type="line"/>
			<point x="550" y="470"/>
			<point x="295" y="716"/>
			<point x="278" y="1007" type="qcurve" smooth="yes"/>
			<point x="255" y="1306" type="line"/>
			<point x="74" y="1336" type="line"/>
			<point x="74" y="1500" type="line"/>
			<point x="421" y="1500" type="line"/>
			<point x="456" y="1473" type="line"/>
			<point x="493" y="1016" type="line" smooth="yes"/>
			<point x="513" y="763"/>
			<point x="715" y="624"/>
			<point x="913" y="624" type="qcurve"/>
		</contour>
		<contour>
			<point x="984" y="462" type="qcurve"/>
			<point x="984" y="624" type="line"/>
			<point x="1182" y="624"/>
			<point x="1384" y="763"/>
			<point x="1404" y="1016" type="qcurve" smooth="yes"/>
			<point x="1441" y="1473" type="line"/>
			<point x="1476" y="1500" type="line"/>
			<point x="1823" y="1500" type="line"/>
			<point x="1823" y="1336" type="line"/>
			<point x="1642" y="1306" type="line"/>
			<point x="1619" y="1007" type="line" smooth="yes"/>
			<point x="1602" y="716"/>
			<point x="1347" y="470"/>
		</contour>
	</outline>
</glyph>
<glyph name="Omega" format="2">
	<unicode hex="03A9"/>
	<advance width="1489"/>
	<outline>
		<contour>
			<point x="2" y="0" type="line"/>
			<point x="-38" y="399" type="line"/>
			<point x="122" y="399" type="line"/>
			<point x="189" y="161" type="line"/>
			<point x="502" y="159" type="line"/>
			<point x="515" y="247" type="line"/>
			<point x="311" y="323"/>
			<point x="76" y="647"/>
			<point x="76" y="874" type="qcurve" smooth="yes"/>
			<point x="76" y="1160"/>
			<point x="449" y="1520"/>
			<point x="776" y="1520" type="qcurve" smooth="yes"/>
			<point x="1117" y="1520"/>
			<point x="1476" y="1168"/>
			<point x="1476" y="874" type="qcurve" smooth="yes"/>
			<point x="1476" y="647"/>
			<point x="1241" y="323"/>
			<point x="1037" y="247" type="qcurve"/>
			<point x="1050" y="159" type="line"/>
			<point x="1363" y="161" type="line"/>
			<point x="1430" y="399" type="line"/>
			<point x="1590" y="399" type="line"/>
			<point x="1550" y="0" type="line"/>
			<point x="891" y="0" type="line"/>
			<point x="857" y="356" type="line"/>
			<point x="1062" y="428"/>
			<point x="1247" y="689"/>
			<point x="1247" y="866" type="qcurve" smooth="yes"/>
			<point x="1247" y="1093"/>
			<point x="997" y="1330"/>
			<point x="776" y="1330" type="qcurve" smooth="yes"/>
			<point x="554" y="1330"/>
			<point x="305" y="1093"/>
			<point x="305" y="866" type="qcurve" smooth="yes"/>
			<point x="305" y="689"/>
			<point x="490" y="428"/>
			<point x="695" y="356" type="qcurve"/>
			<point x="661" y="0" type="line"/>
		</contour>
	</outline>
	<anchor name="GRKtopleft" x="133" y="1500"/>
</glyph>
<glyph name="alpha" format="2">
	<unicode hex="03B1"/>
	<advance width="1346"/>
	<outline>
		<contour>
			<point x="512" y="-9" type="qcurve" smooth="yes"/>
			<point x="309" y="-9"/>
			<point x="68" y="271"/>
			<point x="68" y="512" type="qcurve" smooth="yes"/>
			<point x="68" y="760"/>
			<point x="332" y="1070"/>
			<point x="554" y="1070" type="qcurve" smooth="yes"/>
			<point x="747" y="1070"/>
			<point x="953" y="801"/>
			<point x="981" y="543" type="qcurve"/>
			<point x="1014" y="543" type="line"/>
			<point x="1067" y="300"/>
			<point x="1144" y="167"/>
			<point x="1226" y="167" type="qcurve" smooth="yes"/>
			<point x="1298" y="167" type="line"/>
			<point x="1298" y="30" type="line"/>
			<point x="1110" y="-8" type="line"/>
			<point x="1015" y="-8"/>
			<point x="908" y="118"/>
			<point x="854" y="417" type="qcurve"/>
			<point x="846" y="417" type="line"/>
			<point x="795" y="675"/>
			<point x="656" y="895"/>
			<point x="543" y="895" type="qcurve" smooth="yes"/>
			<point x="423" y="895"/>
			<point x="292" y="680"/>
			<point x="292" y="520" type="qcurve" smooth="yes"/>
			<point x="292" y="339"/>
			<point x="427" y="156"/>
			<point x="533" y="156" type="qcurve" smooth="yes"/>
			<point x="648" y="156"/>
			<point x="798" y="373"/>
			<point x="883" y="613" type="qcurve"/>
			<point x="897" y="614" type="line"/>
			<point x="1067" y="1030" type="line"/>
			<point x="1275" y="1050" type="line"/>
			<point x="1301" y="1013" type="line"/>
			<point x="1002" y="421" type="line"/>
			<point x="958" y="421" type="line"/>
			<point x="879" y="221"/>
			<point x="669" y="-9"/>
		</contour>
	</outline>
	<anchor name="GRKtop" x="565" y="1049"/>
</glyph>
<glyph name="beta" format="2">
	<unicode hex="03B2"/>
	<advance width="1305"/>
	<outline>
		<contour>
			<point x="191" y="-480" type="line"/>
			<point x="156" y="-453" type="line"/>
			<point x="174" y="295" type="line"/>
			<point x="183" y="993" type="line" smooth="yes"/>
			<point x="187" y="1316"/>
			<point x="455" y="1587"/>
			<point x="671" y="1587" type="qcurve" smooth="yes"/>
			<point x="874" y="1587"/>
			<point x="1110" y="1365"/>
			<point x="1110" y="1190" type="qcurve"/>
			<point x="1110" y="998"/>
			<point x="887" y="761"/>
			<point x="647" y="726" type="qcurve" smooth="yes"/>
			<point x="530" y="709" type="line"/>
			<point x="495" y="736" type="line"/>
			<point x="590" y="964" type="line"/>
			<point x="708" y="940" type="line" smooth="yes"/>
			<point x="1007" y="879"/>
			<point x="1237" y="654"/>
			<point x="1237" y="455" type="qcurve" smooth="yes"/>
			<point x="1237" y="247"/>
			<point x="957" y="-22"/>
			<point x="708" y="-22" type="qcurve" smooth="yes"/>
			<point x="570" y="-22"/>
			<point x="361" y="92"/>
			<point x="283" y="210" type="qcurve"/>
			<point x="283" y="314" type="line"/>
			<point x="360" y="314" type="line"/>
			<point x="416" y="232"/>
			<point x="577" y="148"/>
			<point x="703" y="148" type="qcurve"/>
			<point x="852" y="148"/>
			<point x="1009" y="324"/>
			<point x="1009" y="469" type="qcurve" smooth="yes"/>
			<point x="1009" y="635"/>
			<point x="764" y="797"/>
			<point x="615" y="797" type="qcurve"/>
			<point x="629" y="839" type="line"/>
			<point x="741" y="846"/>
			<point x="910" y="1010"/>
			<point x="910" y="1152" type="qcurve"/>
			<point x="910" y="1276"/>
			<point x="781" y="1410"/>
			<point x="668" y="1410" type="qcurve" smooth="yes"/>
			<point x="530" y="1410"/>
			<point x="395" y="1237"/>
			<point x="391" y="1035" type="qcurve" smooth="yes"/>
			<point x="375" y="164" type="line"/>
			<point x="381" y="-462" type="line"/>
		</contour>
	</outline>
</glyph>
<glyph name="gamma" format="2">
	<unicode hex="03B3"/>
	<advance width="1150"/>
	<outline>
		<contour>
			<point x="502" y="-480" type="line"/>
			<point x="467" y="-453" type="line"/>
			<point x="502" y="97" type="line"/>
			<point x="556" y="97" type="line"/>
			<point x="716" y="601" type="line"/>
			<point x="848" y="1030" type="line"/>
			<point x="1052" y="1050" type="line"/>
			<point x="1077" y="1014" type="line"/>
			<point x="863" y="497" type="line"/>
			<point x="614" y="-150" type="line"/>
			<point x="540" y="-150" type="line"/>
			<point x="302" y="480" type="line"/>
			<point x="182" y="786" type="line" smooth="yes"/>
			<point x="171" y="814"/>
			<point x="147" y="833"/>
			<point x="113" y="840" type="qcurve" smooth="yes"/>
			<point x="-10" y="865" type="line"/>
			<point x="-10" y="1016" type="line"/>
			<point x="206" y="1050" type="line"/>
			<point x="259" y="1049"/>
			<point x="324" y="999"/>
			<point x="352" y="918" type="qcurve" smooth="yes"/>
			<point x="462" y="597" type="line"/>
			<point x="638" y="97" type="line"/>
			<point x="666" y="97" type="line"/>
			<point x="692" y="-462" type="line"/>
		</contour>
	</outline>
	<guideline x="673" y="-40" angle="0" identifier="g2zcNzszsg"/>
</glyph>
<glyph name="delta" format="2">
	<unicode hex="03B4"/>
	<advance width="1188"/>
	<outline>
		<contour>
			<point x="588" y="-20" type="qcurve" smooth="yes"/>
			<point x="342" y="-20"/>
			<point x="64" y="242"/>
			<point x="64" y="456" type="qcurve" smooth="yes"/>
			<point x="64" y="665"/>
			<point x="344" y="954"/>
			<point x="575" y="994" type="qcurve"/>
			<point x="676" y="994" type="line"/>
			<point x="670" y="893" type="line"/>
			<point x="512" y="869"/>
			<point x="288" y="655"/>
			<point x="286" y="474" type="qcurve" smooth="yes"/>
			<point x="283" y="318"/>
			<point x="456" y="148"/>
			<point x="589" y="148" type="qcurve" smooth="yes"/>
			<point x="736" y="148"/>
			<point x="912" y="336"/>
			<point x="912" y="479" type="qcurve" smooth="yes"/>
			<point x="912" y="608"/>
			<point x="721" y="820"/>
			<point x="542" y="908" type="qcurve" smooth="yes"/>
			<point x="361" y="997"/>
			<point x="204" y="1155"/>
			<point x="204" y="1268" type="qcurve" smooth="yes"/>
			<point x="204" y="1417"/>
			<point x="449" y="1587"/>
			<point x="666" y="1587" type="qcurve" smooth="yes"/>
			<point x="798" y="1587"/>
			<point x="1040" y="1514"/>
			<point x="1074" y="1477" type="qcurve"/>
			<point x="1052" y="1187" type="line"/>
			<point x="920" y="1185" type="line"/>
			<point x="865" y="1352" type="line"/>
			<point x="839" y="1386"/>
			<point x="715" y="1424"/>
			<point x="633" y="1424" type="qcurve" smooth="yes"/>
			<point x="533" y="1424"/>
			<point x="425" y="1342"/>
			<point x="425" y="1285" type="qcurve"/>
			<point x="425" y="1233"/>
			<point x="501" y="1151"/>
			<point x="690" y="1053" type="qcurve" smooth="yes"/>
			<point x="941" y="923"/>
			<point x="1124" y="654"/>
			<point x="1124" y="492" type="qcurve" smooth="yes"/>
			<point x="1124" y="264"/>
			<point x="826" y="-20"/>
		</contour>
	</outline>
</glyph>
<glyph name="epsilon" format="2">
	<unicode hex="03B5"/>
	<advance width="1083"/>
	<outline>
		<contour>
			<point x="551" y="-22" type="qcurve" smooth="yes"/>
			<point x="331" y="-22"/>
			<point x="74" y="132"/>
			<point x="74" y="273" type="qcurve" smooth="yes"/>
			<point x="74" y="407"/>
			<point x="364" y="593"/>
			<point x="676" y="636" type="qcurve" smooth="yes"/>
			<point x="712" y="641" type="line"/>
			<point x="747" y="614" type="line"/>
			<point x="652" y="386" type="line"/>
			<point x="611" y="394" type="line" smooth="yes"/>
			<point x="314" y="452"/>
			<point x="114" y="631"/>
			<point x="114" y="751" type="qcurve" smooth="yes"/>
			<point x="114" y="886"/>
			<point x="353" y="1072"/>
			<point x="580" y="1072" type="qcurve" smooth="yes"/>
			<point x="717" y="1072"/>
			<point x="934" y="1012"/>
			<point x="972" y="974" type="qcurve"/>
			<point x="972" y="653" type="line"/>
			<point x="840" y="651" type="line"/>
			<point x="775" y="865" type="line"/>
			<point x="747" y="884"/>
			<point x="634" y="907"/>
			<point x="575" y="907" type="qcurve" smooth="yes"/>
			<point x="452" y="907"/>
			<point x="321" y="822"/>
			<point x="321" y="742" type="qcurve" smooth="yes"/>
			<point x="321" y="683"/>
			<point x="459" y="578"/>
			<point x="637" y="554" type="qcurve"/>
			<point x="629" y="468" type="line"/>
			<point x="455" y="464"/>
			<point x="303" y="363"/>
			<point x="303" y="293" type="qcurve" smooth="yes"/>
			<point x="303" y="216"/>
			<point x="456" y="151"/>
			<point x="566" y="151" type="qcurve" smooth="yes"/>
			<point x="704" y="151"/>
			<point x="914" y="233"/>
			<point x="985" y="324" type="qcurve"/>
			<point x="1077" y="208" type="line"/>
			<point x="987" y="84"/>
			<point x="701" y="-22"/>
		</contour>
	</outline>
	<anchor name="GRKtop" x="592" y="1024"/>
</glyph>
<glyph name="zeta" format="2">
	<unicode hex="03B6"/>
	<advance width="863"/>
	<outline>
		<contour>
			<point x="676" y="-313" type="line"/>
			<point x="646" y="-134" type="line" smooth="yes"/>
			<point x="637" y="-83"/>
			<point x="616" y="-40"/>
			<point x="578" y="-37" type="qcurve" smooth="yes"/>
			<point x="550" y="-35" type="line" smooth="yes"/>
			<point x="322" y="-19"/>
			<point x="64" y="167"/>
			<point x="64" y="376" type="qcurve" smooth="yes"/>
			<point x="64" y="534"/>
			<point x="295" y="909"/>
			<point x="694" y="1369" type="qcurve"/>
			<point x="704" y="1312" type="line"/>
			<point x="148" y="1302" type="line"/>
			<point x="113" y="1329" type="line"/>
			<point x="134" y="1534" type="line"/>
			<point x="867" y="1515" type="line"/>
			<point x="867" y="1331" type="line"/>
			<point x="474" y="853"/>
			<point x="287" y="524"/>
			<point x="287" y="404" type="qcurve" smooth="yes"/>
			<point x="287" y="287"/>
			<point x="426" y="170"/>
			<point x="614" y="162" type="qcurve" smooth="yes"/>
			<point x="689" y="159" type="line" smooth="yes"/>
			<point x="765" y="156"/>
			<point x="844" y="79"/>
			<point x="840" y="-2" type="qcurve"/>
			<point x="802" y="-313" type="line"/>
		</contour>
	</outline>
</glyph>
<glyph name="theta" format="2">
  <advance width="1256"/>
  <unicode hex="03B8"/>
  <outline>
    <contour>
      <point x="627" y="-22" type="qcurve" smooth="yes"/>
      <point x="354" y="-22"/>
      <point x="75" y="320"/>
      <point x="74" y="723" type="qcurve" smooth="yes"/>
      <point x="73" y="1136"/>
      <point x="361" y="1521"/>
      <point x="634" y="1521" type="qcurve" smooth="yes"/>
      <point x="897" y="1521"/>
      <point x="1181" y="1207"/>
      <point x="1182" y="782" type="qcurve" smooth="yes"/>
      <point x="1183" y="364"/>
      <point x="895" y="-22"/>
    </contour>
    <contour>
      <point x="628" y="148" type="qcurve" smooth="yes"/>
      <point x="800" y="148"/>
      <point x="955" y="440"/>
      <point x="955" y="736" type="qcurve" smooth="yes"/>
      <point x="955" y="1102"/>
      <point x="798" y="1344"/>
      <point x="631" y="1344" type="qcurve" smooth="yes"/>
      <point x="451" y="1344"/>
      <point x="296" y="1073"/>
      <point x="296" y="759" type="qcurve" smooth="yes"/>
      <point x="296" y="412"/>
      <point x="459" y="148"/>
    </contour>
    <contour>
      <point x="233" y="648" type="line"/>
      <point x="233" y="848" type="line"/>
      <point x="626" y="823" type="line"/>
      <point x="1012" y="848" type="line"/>
      <point x="1012" y="648" type="line"/>
      <point x="626" y="673" type="line"/>
    </contour>
  </outline>
</glyph>
<glyph name="mu" format="2">
	<unicode hex="03BC"/>
	<advance width="1381"/>
	<outline>
		<contour>
			<point x="251" y="-480" type="line"/>
			<point x="216" y="-453" type="line"/>
			<point x="235" y="402" type="line"/>
			<point x="226" y="1028" type="line"/>
			<point x="417" y="1050" type="line"/>
			<point x="452" y="1023" type="line"/>
			<point x="440" y="390" type="line"/>
			<point x="440" y="258"/>
			<point x="561" y="160"/>
			<point x="658" y="160" type="qcurve"/>
			<point x="727" y="160"/>
			<point x="877" y="227"/>
			<point x="929" y="283" type="qcurve"/>
			<point x="929" y="354" type="line"/>
			<point x="919" y="1028" type="line"/>
			<point x="1110" y="1050" type="line"/>
			<point x="1145" y="1023" type="line"/>
			<point x="1132" y="324" type="line"/>
			<point x="1133" y="211"/>
			<point x="1192" y="167"/>
			<point x="1243" y="167" type="qcurve" smooth="yes"/>
			<point x="1313" y="167" type="line"/>
			<point x="1313" y="30" type="line"/>
			<point x="1125" y="-8" type="line"/>
			<point x="1059" y="-9"/>
			<point x="968" y="60"/>
			<point x="944" y="145" type="qcurve"/>
			<point x="943" y="145" type="line"/>
			<point x="910" y="89"/>
			<point x="759" y="-21"/>
			<point x="646" y="-21" type="qcurve" smooth="yes"/>
			<point x="583" y="-21"/>
			<point x="460" y="38"/>
			<point x="436" y="79" type="qcurve"/>
			<point x="441" y="-462" type="line"/>
		</contour>
	</outline>
</glyph>
<glyph name="xi" format="2">
	<unicode hex="03BE"/>
	<advance width="972"/>
	<outline>
		<contour>
			<point x="790" y="-358" type="line"/>
			<point x="754" y="-163" type="line" smooth="yes"/>
			<point x="742" y="-100"/>
			<point x="709" y="-72"/>
			<point x="682" y="-70" type="qcurve" smooth="yes"/>
			<point x="645" y="-67" type="line" smooth="yes"/>
			<point x="379" y="-43"/>
			<point x="80" y="160"/>
			<point x="80" y="344" type="qcurve" smooth="yes"/>
			<point x="80" y="551"/>
			<point x="454" y="822"/>
			<point x="812" y="883" type="qcurve" smooth="yes"/>
			<point x="849" y="889" type="line"/>
			<point x="878" y="851" type="line"/>
			<point x="827" y="665" type="line"/>
			<point x="786" y="670" type="line" smooth="yes"/>
			<point x="412" y="717"/>
			<point x="162" y="906"/>
			<point x="162" y="1054" type="qcurve" smooth="yes"/>
			<point x="162" y="1178"/>
			<point x="305" y="1361"/>
			<point x="481" y="1406" type="qcurve"/>
			<point x="482" y="1398" type="line"/>
			<point x="182" y="1395" type="line"/>
			<point x="153" y="1430" type="line"/>
			<point x="170" y="1579" type="line"/>
			<point x="964" y="1558" type="line"/>
			<point x="940" y="1377" type="line"/>
			<point x="625" y="1354"/>
			<point x="350" y="1208"/>
			<point x="350" y="1078" type="qcurve" smooth="yes"/>
			<point x="350" y="963"/>
			<point x="526" y="831"/>
			<point x="695" y="800" type="qcurve"/>
			<point x="679" y="706" type="line"/>
			<point x="471" y="670"/>
			<point x="300" y="489"/>
			<point x="300" y="369" type="qcurve"/>
			<point x="300" y="265"/>
			<point x="475" y="140"/>
			<point x="684" y="131" type="qcurve" smooth="yes"/>
			<point x="779" y="128" type="line" smooth="yes"/>
			<point x="855" y="125"/>
			<point x="910" y="71"/>
			<point x="906" y="31" type="qcurve"/>
			<point x="892" y="-358" type="line"/>
		</contour>
	</outline>
</glyph>
<glyph name="pi" format="2">
  <advance width="1272"/>
  <unicode hex="03C0"/>
  <outline>
    <contour>
      <point x="1236" y="818" type="line"/>
      <point x="16" y="849" type="line"/>
      <point x="16" y="969" type="line"/>
      <point x="197" y="1025" type="line"/>
      <point x="1222" y="1050" type="line"/>
      <point x="1257" y="1023" type="line"/>
    </contour>
    <contour>
      <point x="220" y="0" type="line"/>
      <point x="185" y="27" type="line"/>
      <point x="242" y="477" type="line"/>
      <point x="291" y="926" type="line"/>
      <point x="425" y="926" type="line"/>
      <point x="414" y="480" type="line"/>
      <point x="410" y="18" type="line"/>
    </contour>
    <contour>
      <point x="1017" y="-8" type="line"/>
      <point x="901" y="-8"/>
      <point x="820" y="120"/>
      <point x="826" y="262" type="qcurve" smooth="yes"/>
      <point x="853" y="937" type="line"/>
      <point x="995" y="937" type="line"/>
      <point x="1022" y="329" type="line" smooth="yes"/>
      <point x="1027" y="221"/>
      <point x="1071" y="167"/>
      <point x="1150" y="167" type="qcurve" smooth="yes"/>
      <point x="1205" y="167" type="line"/>
      <point x="1205" y="30" type="line"/>
    </contour>
  </outline>
</glyph>
<glyph name="finalsigma" format="2">
	<unicode hex="03C2"/>
	<advance width="978"/>
	<outline>
		<contour>
			<point x="717" y="-313" type="line"/>
			<point x="687" y="-134" type="line" smooth="yes"/>
			<point x="678" y="-83"/>
			<point x="657" y="-40"/>
			<point x="619" y="-37" type="qcurve" smooth="yes"/>
			<point x="591" y="-35" type="line" smooth="yes"/>
			<point x="368" y="-19"/>
			<point x="64" y="256"/>
			<point x="64" y="519" type="qcurve" smooth="yes"/>
			<point x="64" y="769"/>
			<point x="348" y="1072"/>
			<point x="586" y="1072" type="qcurve" smooth="yes"/>
			<point x="707" y="1072"/>
			<point x="905" y="1009"/>
			<point x="962" y="954" type="qcurve"/>
			<point x="962" y="653" type="line"/>
			<point x="830" y="651" type="line"/>
			<point x="767" y="861" type="line"/>
			<point x="734" y="882"/>
			<point x="640" y="907"/>
			<point x="591" y="907" type="qcurve" smooth="yes"/>
			<point x="444" y="907"/>
			<point x="291" y="708"/>
			<point x="291" y="529" type="qcurve"/>
			<point x="291" y="363"/>
			<point x="458" y="170"/>
			<point x="655" y="162" type="qcurve" smooth="yes"/>
			<point x="730" y="159" type="line" smooth="yes"/>
			<point x="806" y="156"/>
			<point x="885" y="79"/>
			<point x="881" y="-2" type="qcurve"/>
			<point x="843" y="-313" type="line"/>
		</contour>
	</outline>
</glyph>
<glyph name="sigma" format="2">
	<unicode hex="03C3"/>
	<advance width="1243"/>
	<outline>
		<contour>
			<point x="478" y="-47" type="qcurve" smooth="yes"/>
			<point x="247" y="-47"/>
			<point x="-27" y="228"/>
			<point x="-27" y="452" type="qcurve" smooth="yes"/>
			<point x="-27" y="693"/>
			<point x="289" y="995"/>
			<point x="612" y="1017" type="qcurve" smooth="yes"/>
			<point x="1097" y="1050" type="line"/>
			<point x="1132" y="1023" type="line"/>
			<point x="1111" y="816" type="line"/>
			<point x="690" y="818" type="line" smooth="yes"/>
			<point x="403" y="819"/>
			<point x="192" y="622"/>
			<point x="192" y="456" type="qcurve" smooth="yes"/>
			<point x="192" y="296"/>
			<point x="362" y="118"/>
			<point x="485" y="118" type="qcurve" smooth="yes"/>
			<point x="633" y="118"/>
			<point x="790" y="325"/>
			<point x="790" y="478" type="qcurve" smooth="yes"/>
			<point x="790" y="604"/>
			<point x="704" y="836"/>
			<point x="617" y="902" type="qcurve"/>
			<point x="617" y="951" type="line"/>
			<point x="676" y="951" type="line"/>
			<point x="843" y="846"/>
			<point x="1004" y="622"/>
			<point x="1004" y="479" type="qcurve" smooth="yes"/>
			<point x="1004" y="248"/>
			<point x="719" y="-47"/>
		</contour>
	</outline>
</glyph>
<glyph name="tau" format="2">
	<unicode hex="03C4"/>
	<advance width="972"/>
	<outline>
		<contour>
			<point x="936" y="818" type="line"/>
			<point x="16" y="849" type="line"/>
			<point x="16" y="1000" type="line"/>
			<point x="237" y="1025" type="line"/>
			<point x="922" y="1050" type="line"/>
			<point x="957" y="1023" type="line"/>
		</contour>
		<contour>
			<point x="533" y="-8" type="line"/>
			<point x="450" y="-8"/>
			<point x="354" y="87"/>
			<point x="366" y="262" type="qcurve" smooth="yes"/>
			<point x="413" y="937" type="line"/>
			<point x="545" y="937" type="line"/>
			<point x="572" y="329" type="line" smooth="yes"/>
			<point x="577" y="221"/>
			<point x="632" y="167"/>
			<point x="711" y="167" type="qcurve" smooth="yes"/>
			<point x="836" y="167" type="line"/>
			<point x="836" y="30" type="line"/>
		</contour>
	</outline>
</glyph>
<glyph name="upsilon" format="2">
	<unicode hex="03C5"/>
	<advance width="1192"/>
	<outline>
		<contour>
			<point x="623" y="-22" type="qcurve" smooth="yes"/>
			<point x="411" y="-22"/>
			<point x="193" y="203"/>
			<point x="201" y="383" type="qcurve" smooth="yes"/>
			<point x="214" y="659" type="line" smooth="yes"/>
			<point x="219" y="766"/>
			<point x="177" y="841"/>
			<point x="126" y="851" type="qcurve" smooth="yes"/>
			<point x="56" y="865" type="line"/>
			<point x="56" y="1017" type="line"/>
			<point x="273" y="1050" type="line"/>
			<point x="343" y="1050"/>
			<point x="424" y="920"/>
			<point x="421" y="772" type="qcurve" smooth="yes"/>
			<point x="413" y="401" type="line" smooth="yes"/>
			<point x="410" y="285"/>
			<point x="514" y="157"/>
			<point x="632" y="157" type="qcurve" smooth="yes"/>
			<point x="761" y="157"/>
			<point x="901" y="338"/>
			<point x="901" y="503" type="qcurve" smooth="yes"/>
			<point x="901" y="653"/>
			<point x="799" y="893"/>
			<point x="737" y="966" type="qcurve"/>
			<point x="906" y="1056" type="line"/>
			<point x="1026" y="932"/>
			<point x="1128" y="671"/>
			<point x="1128" y="521" type="qcurve" smooth="yes"/>
			<point x="1128" y="270"/>
			<point x="872" y="-22"/>
		</contour>
	</outline>
	<anchor name="GRKtop" x="593" y="1050"/>
</glyph>
<glyph name="chi" format="2">
  <advance width="1109"/>
  <unicode hex="03C7"/>
  <outline>
    <contour>
      <point x="964" y="-488" type="line"/>
      <point x="903" y="-488"/>
      <point x="820" y="-452"/>
      <point x="799" y="-408" type="qcurve" smooth="yes"/>
      <point x="510" y="202" type="line"/>
      <point x="290" y="656" type="line" smooth="yes"/>
      <point x="235" y="770"/>
      <point x="140" y="840"/>
      <point x="83" y="852" type="qcurve" smooth="yes"/>
      <point x="20" y="865" type="line"/>
      <point x="20" y="1016" type="line"/>
      <point x="236" y="1050" type="line"/>
      <point x="283" y="1049"/>
      <point x="341" y="1008"/>
      <point x="366" y="957" type="qcurve" smooth="yes"/>
      <point x="660" y="360" type="line"/>
      <point x="976" y="-258" type="line" smooth="yes"/>
      <point x="994" y="-294"/>
      <point x="1045" y="-313"/>
      <point x="1119" y="-313" type="qcurve" smooth="yes"/>
      <point x="1153" y="-313" type="line"/>
      <point x="1153" y="-450" type="line"/>
    </contour>
    <contour>
      <point x="76" y="-480" type="line"/>
      <point x="41" y="-453" type="line"/>
      <point x="335" y="20" type="line"/>
      <point x="529" y="343" type="line"/>
      <point x="595" y="205" type="line"/>
      <point x="461" y="-72" type="line"/>
      <point x="275" y="-460" type="line"/>
    </contour>
    <contour>
      <point x="637" y="217" type="line"/>
      <point x="571" y="355" type="line"/>
      <point x="706" y="642" type="line"/>
      <point x="882" y="1030" type="line"/>
      <point x="1081" y="1050" type="line"/>
      <point x="1116" y="1023" type="line"/>
      <point x="832" y="550" type="line"/>
    </contour>
  </outline>
</glyph>
<glyph name="omega" format="2">
  <advance width="1572"/>
  <unicode hex="03C9"/>
  <anchor x="780" y="1050" name="GRKtop"/>
  <outline>
    <contour>
      <point x="463" y="-31" type="qcurve" smooth="yes"/>
      <point x="253" y="-31"/>
      <point x="44" y="239"/>
      <point x="44" y="436" type="qcurve" smooth="yes"/>
      <point x="44" y="689"/>
      <point x="238" y="996"/>
      <point x="352" y="1050" type="qcurve"/>
      <point x="459" y="985" type="line"/>
      <point x="370.0" y="898.0"/>
      <point x="266.0" y="630.0"/>
      <point x="266" y="437" type="qcurve" smooth="yes"/>
      <point x="266" y="292"/>
      <point x="377" y="150"/>
      <point x="471" y="150" type="qcurve" smooth="yes"/>
      <point x="569" y="150"/>
      <point x="683" y="283"/>
      <point x="687" y="423" type="qcurve"/>
      <point x="843" y="423" type="line"/>
      <point x="849" y="274"/>
      <point x="952" y="150"/>
      <point x="1043" y="150" type="qcurve" smooth="yes"/>
      <point x="1144" y="150"/>
      <point x="1260" y="332"/>
      <point x="1260" y="483" type="qcurve" smooth="yes"/>
      <point x="1260" y="616"/>
      <point x="1137" y="887"/>
      <point x="1030" y="982" type="qcurve"/>
      <point x="1199" y="1072" type="line"/>
      <point x="1348" y="955"/>
      <point x="1488" y="654"/>
      <point x="1488" y="499" type="qcurve" smooth="yes"/>
      <point x="1488" y="260"/>
      <point x="1244" y="-31"/>
      <point x="1057" y="-31" type="qcurve" smooth="yes"/>
      <point x="842" y="-31"/>
      <point x="654" y="387"/>
      <point x="650" y="674" type="qcurve" smooth="yes"/>
      <point x="649" y="743" type="line"/>
      <point x="839" y="761" type="line"/>
      <point x="874" y="734" type="line"/>
      <point x="873" y="654" type="line" smooth="yes"/>
      <point x="869" y="352"/>
      <point x="667" y="-31"/>
    </contour>
  </outline>
</glyph>
<glyph name="Kaisymbol" format="2">
	<unicode hex="03CF"/>
	<advance width="1527"/>
	<outline>
		<contour>
			<point x="82" y="0" type="line"/>
			<point x="82" y="150" type="line"/>
			<point x="290" y="185" type="line"/>
			<point x="292" y="754" type="line"/>
			<point x="290" y="1302" type="line"/>
			<point x="82" y="1336" type="line"/>
			<point x="82" y="1500" type="line"/>
			<point x="722" y="1500" type="line"/>
			<point x="722" y="1336" type="line"/>
			<point x="514" y="1302" type="line"/>
			<point x="512" y="754" type="line"/>
			<point x="514" y="185" type="line"/>
			<point x="722" y="150" type="line"/>
			<point x="722" y="0" type="line"/>
		</contour>
		<contour>
			<point x="415" y="461" type="line"/>
			<point x="415" y="657" type="line"/>
			<point x="1035" y="1298" type="line"/>
			<point x="880" y="1336" type="line"/>
			<point x="880" y="1500" type="line"/>
			<point x="1435" y="1500" type="line"/>
			<point x="1435" y="1336" type="line"/>
			<point x="1238" y="1288" type="line"/>
			<point x="793" y="841" type="line"/>
			<point x="756" y="804" type="line"/>
		</contour>
		<contour>
			<point x="1249" y="0" type="line"/>
			<point x="663" y="812" type="line"/>
			<point x="808" y="957" type="line"/>
			<point x="1368" y="185" type="line"/>
			<point x="1561" y="150" type="line"/>
			<point x="1561" y="0" type="line"/>
		</contour>
		<contour>
			<point x="847" y="-510" type="qcurve"/>
			<point x="674" y="-510"/>
			<point x="424" y="-414"/>
			<point x="341" y="-338" type="qcurve"/>
			<point x="423" y="-228" type="line"/>
			<point x="493" y="-283"/>
			<point x="725" y="-346"/>
			<point x="857" y="-346" type="qcurve" smooth="yes"/>
			<point x="1086" y="-346"/>
			<point x="1333" y="-127"/>
			<point x="1353" y="0" type="qcurve"/>
			<point x="1561" y="0" type="line"/>
			<point x="1526" y="-232"/>
			<point x="1132" y="-510"/>
		</contour>
	</outline>
</glyph>
<glyph name="kaisymbol" format="2">
  <advance width="1233"/>
  <unicode hex="03D7"/>
  <outline>
    <contour>
      <point x="624" y="-548" type="qcurve" smooth="yes"/>
      <point x="438" y="-548"/>
      <point x="126" y="-381"/>
      <point x="33" y="-216" type="qcurve"/>
      <point x="150" y="-129" type="line"/>
      <point x="209" y="-208"/>
      <point x="451" y="-363"/>
      <point x="633" y="-363" type="qcurve" smooth="yes"/>
      <point x="863" y="-363"/>
      <point x="1094" y="-102"/>
      <point x="1093" y="159" type="qcurve"/>
      <point x="1264" y="164" type="line"/>
      <point x="1287" y="-147"/>
      <point x="932" y="-548"/>
    </contour>
    <contour>
      <point x="187" y="-13" type="line"/>
      <point x="190" y="501" type="line"/>
      <point x="179" y="1069" type="line"/>
      <point x="385" y="1088" type="line"/>
      <point x="423" y="1060" type="line"/>
      <point x="411" y="501" type="line"/>
      <point x="414" y="-13" type="line"/>
    </contour>
    <contour>
      <point x="338" y="130" type="line"/>
      <point x="338" y="350" type="line"/>
      <point x="823" y="939" type="line" smooth="yes"/>
      <point x="897" y="1030"/>
      <point x="1010" y="1086"/>
      <point x="1106" y="1088" type="qcurve"/>
      <point x="1144" y="1060" type="line"/>
      <point x="1121" y="845" type="line"/>
      <point x="1021" y="845"/>
      <point x="923" y="813"/>
      <point x="869" y="751" type="qcurve" smooth="yes"/>
    </contour>
    <contour>
      <point x="1034" y="-21" type="line"/>
      <point x="974" y="-21"/>
      <point x="877" y="29"/>
      <point x="847" y="89" type="qcurve" smooth="yes"/>
      <point x="594" y="557" type="line"/>
      <point x="724" y="694" type="line"/>
      <point x="1004" y="237" type="line" smooth="yes"/>
      <point x="1030" y="194"/>
      <point x="1100" y="162"/>
      <point x="1141" y="162" type="qcurve" smooth="yes"/>
      <point x="1207" y="162" type="line"/>
      <point x="1207" y="18" type="line"/>
    </contour>
  </outline>
</glyph>
<glyph name="Dje" format="2">
  <advance width="1747"/>
  <unicode hex="0402"/>
  <guideline x="568" y="625" angle="90" identifier="YDADns81zF"/>
  <outline>
    <contour>
      <point x="1078" y="722" type="qcurve" smooth="yes"/>
      <point x="966.7369668246" y="722"/>
      <point x="770.2444329789" y="685.0828946624"/>
      <point x="655" y="646" type="qcurve"/>
      <point x="655" y="813" type="line"/>
      <point x="768.2236362579" y="851.0752051133"/>
      <point x="938.6233480176" y="895"/>
      <point x="1110" y="895" type="qcurve" smooth="yes"/>
      <point x="1381" y="895"/>
      <point x="1677" y="666"/>
      <point x="1677" y="429" type="qcurve" smooth="yes"/>
      <point x="1677" y="232"/>
      <point x="1451" y="0"/>
      <point x="1247" y="0" type="qcurve"/>
      <point x="1247" y="150" type="line"/>
      <point x="1351" y="157"/>
      <point x="1459" y="301"/>
      <point x="1459" y="422" type="qcurve" smooth="yes"/>
      <point x="1459" y="565"/>
      <point x="1282" y="722"/>
    </contour>
    <contour>
      <point x="33" y="1058" type="line"/>
      <point x="33" y="1500" type="line"/>
      <point x="1317" y="1500" type="line"/>
      <point x="1317" y="1058" type="line"/>
      <point x="1157" y="1058" type="line"/>
      <point x="1122" y="1336" type="line"/>
      <point x="786" y="1336" type="line"/>
      <point x="767" y="1316" type="line"/>
      <point x="765" y="754" type="line"/>
      <point x="767" y="186" type="line"/>
      <point x="984" y="150" type="line"/>
      <point x="984" y="0" type="line"/>
      <point x="324" y="0" type="line"/>
      <point x="324" y="150" type="line"/>
      <point x="543" y="186" type="line"/>
      <point x="545" y="754" type="line"/>
      <point x="543" y="1316" type="line"/>
      <point x="524" y="1336" type="line"/>
      <point x="228" y="1336" type="line"/>
      <point x="193" y="1058" type="line"/>
    </contour>
  </outline>
</glyph>
<glyph name="Lje" format="2">
  <advance width="2228"/>
  <unicode hex="0409"/>
  <outline>
    <contour>
      <point x="1939" y="482" type="qcurve" smooth="yes"/>
      <point x="1939" y="618"/>
      <point x="1774" y="747"/>
      <point x="1589" y="747" type="qcurve" smooth="yes"/>
      <point x="1384" y="747" type="line"/>
      <point x="1384" y="747" type="line"/>
      <point x="1386" y="185" type="line"/>
      <point x="1426" y="158" type="line"/>
      <point x="1589" y="158" type="line" smooth="yes"/>
      <point x="1760" y="158"/>
      <point x="1939" y="330"/>
    </contour>
    <contour>
      <point x="1386" y="1302" type="line"/>
      <point x="1385" y="915" type="line"/>
      <point x="1385" y="915" type="line"/>
      <point x="1647" y="915" type="line" smooth="yes"/>
      <point x="1920" y="915"/>
      <point x="2178" y="696"/>
      <point x="2178" y="481" type="qcurve" smooth="yes"/>
      <point x="2178" y="273"/>
      <point x="1905" y="0"/>
      <point x="1646" y="0" type="qcurve" smooth="yes"/>
      <point x="954" y="0" type="line"/>
      <point x="954" y="150" type="line"/>
      <point x="1162" y="185" type="line"/>
      <point x="1164" y="754" type="line"/>
      <point x="1162" y="1312" type="line"/>
      <point x="1117" y="1332" type="line"/>
      <point x="664" y="1332" type="line"/>
      <point x="619" y="1312" type="line"/>
      <point x="582" y="754" type="line" smooth="yes"/>
      <point x="553" y="322"/>
      <point x="363" y="-17"/>
      <point x="139" y="-17" type="qcurve" smooth="yes"/>
      <point x="115" y="-17"/>
      <point x="79" y="-10"/>
      <point x="50" y="0" type="qcurve"/>
      <point x="50" y="228" type="line"/>
      <point x="74" y="220"/>
      <point x="114" y="215"/>
      <point x="135" y="215" type="qcurve" smooth="yes"/>
      <point x="260" y="215"/>
      <point x="377" y="486"/>
      <point x="395" y="754" type="qcurve" smooth="yes"/>
      <point x="431" y="1302" type="line"/>
      <point x="223" y="1336" type="line"/>
      <point x="223" y="1500" type="line"/>
      <point x="1594" y="1500" type="line"/>
      <point x="1594" y="1336" type="line"/>
    </contour>
  </outline>
</glyph>
<glyph name="Nje" format="2">
  <advance width="2320"/>
  <unicode hex="040A"/>
  <outline>
    <contour>
      <point x="82" y="0" type="line"/>
      <point x="82" y="150" type="line"/>
      <point x="290" y="185" type="line"/>
      <point x="292" y="754" type="line"/>
      <point x="290" y="1302" type="line"/>
      <point x="82" y="1336" type="line"/>
      <point x="82" y="1500" type="line"/>
      <point x="722" y="1500" type="line"/>
      <point x="722" y="1336" type="line"/>
      <point x="514" y="1302" type="line"/>
      <point x="512" y="754" type="line"/>
      <point x="514" y="185" type="line"/>
      <point x="722" y="150" type="line"/>
      <point x="722" y="0" type="line"/>
    </contour>
    <contour>
      <point x="402" y="715" type="line"/>
      <point x="402" y="897" type="line"/>
      <point x="884" y="889" type="line"/>
      <point x="1366" y="897" type="line"/>
      <point x="1366" y="715" type="line"/>
      <point x="884" y="715" type="line"/>
    </contour>
    <contour>
      <point x="2031" y="462" type="qcurve" smooth="yes"/>
      <point x="2031" y="598"/>
      <point x="1866" y="727"/>
      <point x="1681" y="727" type="qcurve" smooth="yes"/>
      <point x="1476" y="727" type="line"/>
      <point x="1476" y="727" type="line"/>
      <point x="1478" y="185" type="line"/>
      <point x="1518" y="158" type="line"/>
      <point x="1681" y="158" type="line" smooth="yes"/>
      <point x="1852" y="158"/>
      <point x="2031" y="310"/>
    </contour>
    <contour>
      <point x="1046" y="0" type="line"/>
      <point x="1046" y="150" type="line"/>
      <point x="1254" y="185" type="line"/>
      <point x="1256" y="746" type="line"/>
      <point x="1254" y="1302" type="line"/>
      <point x="1046" y="1336" type="line"/>
      <point x="1046" y="1500" type="line"/>
      <point x="1686" y="1500" type="line"/>
      <point x="1686" y="1336" type="line"/>
      <point x="1478" y="1302" type="line"/>
      <point x="1476" y="895" type="line"/>
      <point x="1476" y="895" type="line"/>
      <point x="1739" y="895" type="line" smooth="yes"/>
      <point x="2012" y="888"/>
      <point x="2270" y="676"/>
      <point x="2270" y="461" type="qcurve" smooth="yes"/>
      <point x="2270" y="253"/>
      <point x="1997" y="0"/>
      <point x="1738" y="0" type="qcurve" smooth="yes"/>
    </contour>
  </outline>
</glyph>
<glyph name="Tshe" format="2">
	<unicode hex="040B"/>
	<advance width="1930"/>
	<outline>
		<contour>
			<point x="33" y="1038" type="line"/>
			<point x="33" y="1500" type="line"/>
			<point x="1317" y="1500" type="line"/>
			<point x="1317" y="1068" type="line"/>
			<point x="1157" y="1068" type="line"/>
			<point x="1122" y="1336" type="line"/>
			<point x="786" y="1336" type="line"/>
			<point x="767" y="1316" type="line"/>
			<point x="765" y="754" type="line"/>
			<point x="767" y="186" type="line"/>
			<point x="984" y="150" type="line"/>
			<point x="984" y="0" type="line"/>
			<point x="324" y="0" type="line"/>
			<point x="324" y="150" type="line"/>
			<point x="543" y="186" type="line"/>
			<point x="545" y="754" type="line"/>
			<point x="543" y="1316" type="line"/>
			<point x="534" y="1336" type="line"/>
			<point x="228" y="1336" type="line"/>
			<point x="193" y="1038" type="line"/>
		</contour>
		<contour>
			<point x="1647" y="380" type="qcurve" smooth="yes"/>
			<point x="1652" y="186" type="line"/>
			<point x="1860" y="150" type="line"/>
			<point x="1860" y="0" type="line"/>
			<point x="1428" y="0" type="line"/>
			<point x="1429" y="360" type="line" smooth="yes"/>
			<point x="1430" y="548"/>
			<point x="1279" y="722"/>
			<point x="1078" y="722" type="qcurve" smooth="yes"/>
			<point x="967" y="722"/>
			<point x="771" y="685"/>
			<point x="656" y="646" type="qcurve"/>
			<point x="656" y="813" type="line"/>
			<point x="769" y="851"/>
			<point x="939" y="895"/>
			<point x="1110" y="895" type="qcurve" smooth="yes"/>
			<point x="1391" y="895"/>
			<point x="1640" y="658"/>
		</contour>
	</outline>
</glyph>
<glyph name="Dzhe" format="2">
  <advance width="1818"/>
  <unicode hex="040F"/>
  <outline>
    <contour>
      <point x="1024" y="0" type="line"/>
      <point x="985" y="-338" type="line"/>
      <point x="833" y="-338" type="line"/>
      <point x="794" y="0" type="line"/>
      <point x="82" y="0" type="line"/>
      <point x="82" y="150" type="line"/>
      <point x="290" y="185" type="line"/>
      <point x="292" y="746" type="line"/>
      <point x="290" y="1302" type="line"/>
      <point x="82" y="1336" type="line"/>
      <point x="82" y="1500" type="line"/>
      <point x="722" y="1500" type="line"/>
      <point x="722" y="1336" type="line"/>
      <point x="514" y="1302" type="line"/>
      <point x="512" y="746" type="line"/>
      <point x="514" y="182" type="line"/>
      <point x="584" y="158" type="line"/>
      <point x="1234" y="158" type="line"/>
      <point x="1304" y="182" type="line"/>
      <point x="1306" y="746" type="line"/>
      <point x="1304" y="1302" type="line"/>
      <point x="1096" y="1336" type="line"/>
      <point x="1096" y="1500" type="line"/>
      <point x="1736" y="1500" type="line"/>
      <point x="1736" y="1336" type="line"/>
      <point x="1528" y="1302" type="line"/>
      <point x="1526" y="746" type="line"/>
      <point x="1528" y="185" type="line"/>
      <point x="1736" y="150" type="line"/>
      <point x="1736" y="0" type="line"/>
    </contour>
  </outline>
</glyph>
<glyph name="Be" format="2">
  <advance width="1381"/>
  <unicode hex="0411"/>
  <outline>
    <contour>
      <point x="1067" y="466" type="qcurve" smooth="yes"/>
      <point x="1067" y="594"/>
      <point x="902" y="716"/>
      <point x="717" y="716" type="qcurve" smooth="yes"/>
      <point x="512" y="716" type="line"/>
      <point x="512" y="716" type="line"/>
      <point x="514" y="185" type="line"/>
      <point x="569" y="158" type="line"/>
      <point x="717" y="158" type="line" smooth="yes"/>
      <point x="888" y="158"/>
      <point x="1067" y="321"/>
    </contour>
    <contour>
      <point x="82" y="0" type="line"/>
      <point x="82" y="150" type="line"/>
      <point x="290" y="185" type="line"/>
      <point x="292" y="746" type="line"/>
      <point x="290" y="1302" type="line"/>
      <point x="82" y="1336" type="line"/>
      <point x="82" y="1500" type="line"/>
      <point x="1175" y="1500" type="line"/>
      <point x="1175" y="1121" type="line"/>
      <point x="1023" y="1121" type="line"/>
      <point x="988" y="1332" type="line"/>
      <point x="554" y="1332" type="line"/>
      <point x="515" y="1312" type="line"/>
      <point x="512" y="884" type="line"/>
      <point x="512" y="884" type="line"/>
      <point x="775" y="884" type="line" smooth="yes"/>
      <point x="1048" y="884"/>
      <point x="1306" y="673"/>
      <point x="1306" y="465" type="qcurve" smooth="yes"/>
      <point x="1306" y="264"/>
      <point x="1033" y="0"/>
      <point x="774" y="0" type="qcurve" smooth="yes"/>
    </contour>
  </outline>
</glyph>
<glyph name="Zhe" format="2">
  <advance width="2228"/>
  <unicode hex="0416"/>
  <guideline x="480" y="796" angle="90" identifier="vQLQteAbfW"/>
  <guideline x="480" y="796" angle="90" identifier="c1CJzngGNH"/>
  <anchor x="1114.0" y="0" name="bottom"/>
  <anchor x="1114.0" y="1500" name="top"/>
  <outline>
    <contour>
      <point x="789" y="0" type="line"/>
      <point x="789" y="150" type="line"/>
      <point x="997" y="185" type="line"/>
      <point x="999" y="754" type="line"/>
      <point x="997" y="1302" type="line"/>
      <point x="789" y="1336" type="line"/>
      <point x="789" y="1500" type="line"/>
      <point x="1429" y="1500" type="line"/>
      <point x="1429" y="1336" type="line"/>
      <point x="1221" y="1302" type="line"/>
      <point x="1219" y="729" type="line"/>
      <point x="1221" y="185" type="line"/>
      <point x="1429" y="150" type="line"/>
      <point x="1429" y="0" type="line"/>
    </contour>
    <contour>
      <point x="1109" y="691" type="line"/>
      <point x="1109" y="873" type="line"/>
      <point x="1383" y="869" type="line"/>
      <point x="1742" y="1298" type="line"/>
      <point x="1587" y="1336" type="line"/>
      <point x="1587" y="1500" type="line"/>
      <point x="2142" y="1500" type="line"/>
      <point x="2142" y="1336" type="line"/>
      <point x="1949" y="1288" type="line"/>
      <point x="1473" y="745" type="line"/>
      <point x="1425" y="691" type="line"/>
    </contour>
    <contour>
      <point x="1370" y="722" type="line"/>
      <point x="1512" y="865" type="line"/>
      <point x="2067" y="185" type="line"/>
      <point x="2248" y="150" type="line"/>
      <point x="2248" y="0" type="line"/>
      <point x="1633" y="0" type="line"/>
      <point x="1633" y="150" type="line"/>
      <point x="1801" y="185" type="line"/>
    </contour>
    <contour>
      <point x="1109" y="691" type="line"/>
      <point x="793" y="691" type="line"/>
      <point x="717" y="745" type="line"/>
      <point x="241" y="1288" type="line"/>
      <point x="56" y="1336" type="line"/>
      <point x="56" y="1500" type="line"/>
      <point x="631" y="1500" type="line"/>
      <point x="631" y="1336" type="line"/>
      <point x="476" y="1298" type="line"/>
      <point x="835" y="869" type="line"/>
      <point x="1109" y="873" type="line"/>
    </contour>
    <contour>
      <point x="848" y="722" type="line"/>
      <point x="417" y="185" type="line"/>
      <point x="585" y="150" type="line"/>
      <point x="585" y="0" type="line"/>
      <point x="-20" y="0" type="line"/>
      <point x="-20" y="150" type="line"/>
      <point x="161" y="185" type="line"/>
      <point x="716" y="865" type="line"/>
    </contour>
  </outline>
</glyph>
<glyph name="Ze" format="2">
	<unicode hex="0417"/>
	<advance width="1335"/>
	<outline>
		<contour>
			<point x="674" y="-33" type="qcurve" smooth="yes"/>
			<point x="542" y="-33"/>
			<point x="354" y="21"/>
			<point x="298" y="67" type="qcurve"/>
			<point x="269" y="-14" type="line"/>
			<point x="140" y="-14" type="line"/>
			<point x="140" y="476" type="line"/>
			<point x="297" y="476" type="line"/>
			<point x="322" y="350" type="line" smooth="yes"/>
			<point x="346" y="230"/>
			<point x="496" y="151"/>
			<point x="672" y="151" type="qcurve" smooth="yes"/>
			<point x="858" y="151"/>
			<point x="1030" y="298"/>
			<point x="1030" y="430" type="qcurve" smooth="yes"/>
			<point x="1030" y="560"/>
			<point x="881" y="689"/>
			<point x="686" y="689" type="qcurve" smooth="yes"/>
			<point x="501" y="689" type="line"/>
			<point x="501" y="863" type="line"/>
			<point x="668" y="863" type="line" smooth="yes"/>
			<point x="815" y="863"/>
			<point x="964" y="987"/>
			<point x="964" y="1110" type="qcurve" smooth="yes"/>
			<point x="964" y="1227"/>
			<point x="835" y="1337"/>
			<point x="684" y="1336" type="qcurve" smooth="yes"/>
			<point x="531" y="1335"/>
			<point x="390" y="1250"/>
			<point x="359" y="1122" type="qcurve" smooth="yes"/>
			<point x="337" y="1031" type="line"/>
			<point x="180" y="1031" type="line"/>
			<point x="180" y="1501" type="line"/>
			<point x="309" y="1501" type="line"/>
			<point x="338" y="1420" type="line"/>
			<point x="393" y="1464"/>
			<point x="584" y="1520"/>
			<point x="715" y="1520" type="qcurve" smooth="yes"/>
			<point x="946" y="1520"/>
			<point x="1187" y="1329"/>
			<point x="1187" y="1154" type="qcurve" smooth="yes"/>
			<point x="1187" y="1013"/>
			<point x="1047" y="835"/>
			<point x="923" y="809" type="qcurve"/>
			<point x="923" y="802" type="line"/>
			<point x="1080" y="778"/>
			<point x="1259" y="595"/>
			<point x="1259" y="433" type="qcurve" smooth="yes"/>
			<point x="1259" y="233"/>
			<point x="977" y="-33"/>
		</contour>
	</outline>
</glyph>
<glyph name="Icyr" format="2">
  <advance width="1848"/>
  <unicode hex="0418"/>
  <guideline x="739" y="930" angle="90" identifier="jpSOnFR6u4"/>
  <guideline x="924" y="814" angle="90" identifier="3fHus3tMSg"/>
  <guideline x="927" y="744" angle="0" identifier="rmoGi5h6UR"/>
  <anchor x="924.0" y="0" name="bottom"/>
  <anchor x="924.0" y="1500" name="top"/>
  <outline>
    <contour>
      <point x="1126" y="0" type="line"/>
      <point x="1126" y="150" type="line"/>
      <point x="1334" y="185" type="line"/>
      <point x="1336" y="754" type="line"/>
      <point x="1334" y="1302" type="line"/>
      <point x="1126" y="1336" type="line"/>
      <point x="1126" y="1500" type="line"/>
      <point x="1766" y="1500" type="line"/>
      <point x="1766" y="1336" type="line"/>
      <point x="1558" y="1302" type="line"/>
      <point x="1556" y="754" type="line"/>
      <point x="1558" y="185" type="line"/>
      <point x="1766" y="150" type="line"/>
      <point x="1766" y="0" type="line"/>
    </contour>
    <contour>
      <point x="82" y="0" type="line"/>
      <point x="82" y="150" type="line"/>
      <point x="290" y="185" type="line"/>
      <point x="292" y="754" type="line"/>
      <point x="290" y="1302" type="line"/>
      <point x="82" y="1336" type="line"/>
      <point x="82" y="1500" type="line"/>
      <point x="722" y="1500" type="line"/>
      <point x="722" y="1336" type="line"/>
      <point x="514" y="1302" type="line"/>
      <point x="512" y="754" type="line"/>
      <point x="514" y="185" type="line"/>
      <point x="722" y="150" type="line"/>
      <point x="722" y="0" type="line"/>
    </contour>
    <contour>
      <point x="513" y="315" type="line"/>
      <point x="415" y="448" type="line"/>
      <point x="873" y="800" type="line"/>
      <point x="1335" y="1172" type="line"/>
      <point x="1433" y="1038" type="line"/>
      <point x="987" y="693" type="line"/>
    </contour>
  </outline>
</glyph>
<glyph name="Ka" format="2">
  <advance width="1541"/>
  <unicode hex="041A"/>
  <guideline x="480" y="796" angle="90" identifier="LxfLwWU0sJ"/>
  <anchor x="832" y="0" name="bottom"/>
  <anchor x="801" y="1500" name="top"/>
  <outline>
    <contour>
      <point x="82" y="0" type="line"/>
      <point x="82" y="150" type="line"/>
      <point x="290" y="185" type="line"/>
      <point x="292" y="754" type="line"/>
      <point x="290" y="1302" type="line"/>
      <point x="82" y="1336" type="line"/>
      <point x="82" y="1500" type="line"/>
      <point x="722" y="1500" type="line"/>
      <point x="722" y="1336" type="line"/>
      <point x="514" y="1302" type="line"/>
      <point x="512" y="729" type="line"/>
      <point x="514" y="185" type="line"/>
      <point x="722" y="150" type="line"/>
      <point x="722" y="0" type="line"/>
    </contour>
    <contour>
      <point x="402" y="691" type="line"/>
      <point x="402" y="873" type="line"/>
      <point x="676" y="869" type="line"/>
      <point x="1055" y="1298" type="line"/>
      <point x="900" y="1336" type="line"/>
      <point x="900" y="1500" type="line"/>
      <point x="1455" y="1500" type="line"/>
      <point x="1455" y="1336" type="line"/>
      <point x="1262" y="1288" type="line"/>
      <point x="766" y="745" type="line"/>
      <point x="718" y="691" type="line"/>
    </contour>
    <contour>
      <point x="663" y="722" type="line"/>
      <point x="805" y="865" type="line"/>
      <point x="1380" y="185" type="line"/>
      <point x="1561" y="150" type="line"/>
      <point x="1561" y="0" type="line"/>
      <point x="946" y="0" type="line"/>
      <point x="946" y="150" type="line"/>
      <point x="1114" y="185" type="line"/>
    </contour>
  </outline>
</glyph>
<glyph name="El" format="2">
  <advance width="1706"/>
  <unicode hex="041B"/>
  <outline>
    <contour>
      <point x="395" y="754" type="qcurve" smooth="yes"/>
      <point x="431" y="1302" type="line"/>
      <point x="223" y="1336" type="line"/>
      <point x="223" y="1500" type="line"/>
      <point x="1624" y="1500" type="line"/>
      <point x="1624" y="1336" type="line"/>
      <point x="1416" y="1302" type="line"/>
      <point x="1414" y="754" type="line"/>
      <point x="1416" y="185" type="line"/>
      <point x="1624" y="150" type="line"/>
      <point x="1624" y="0" type="line"/>
      <point x="984" y="0" type="line"/>
      <point x="984" y="150" type="line"/>
      <point x="1192" y="185" type="line"/>
      <point x="1194" y="754" type="line"/>
      <point x="1192" y="1312" type="line"/>
      <point x="1137" y="1332" type="line"/>
      <point x="674" y="1332" type="line"/>
      <point x="619" y="1312" type="line"/>
      <point x="582" y="754" type="line" smooth="yes"/>
      <point x="553" y="322"/>
      <point x="363" y="-17"/>
      <point x="139" y="-17" type="qcurve" smooth="yes"/>
      <point x="115" y="-17"/>
      <point x="79" y="-10"/>
      <point x="50" y="0" type="qcurve"/>
      <point x="50" y="228" type="line"/>
      <point x="74" y="220"/>
      <point x="114" y="215"/>
      <point x="135" y="215" type="qcurve" smooth="yes"/>
      <point x="260" y="215"/>
      <point x="377" y="486"/>
    </contour>
  </outline>
</glyph>
<glyph name="Pe" format="2">
  <advance width="1818"/>
  <unicode hex="041F"/>
  <outline>
    <contour>
      <point x="1304" y="1312" type="line"/>
      <point x="1239" y="1332" type="line"/>
      <point x="579" y="1332" type="line"/>
      <point x="514" y="1312" type="line"/>
      <point x="512" y="754" type="line"/>
      <point x="514" y="185" type="line"/>
      <point x="722" y="150" type="line"/>
      <point x="722" y="0" type="line"/>
      <point x="82" y="0" type="line"/>
      <point x="82" y="150" type="line"/>
      <point x="290" y="185" type="line"/>
      <point x="292" y="754" type="line"/>
      <point x="290" y="1302" type="line"/>
      <point x="82" y="1336" type="line"/>
      <point x="82" y="1500" type="line"/>
      <point x="1736" y="1500" type="line"/>
      <point x="1736" y="1336" type="line"/>
      <point x="1528" y="1302" type="line"/>
      <point x="1526" y="754" type="line"/>
      <point x="1528" y="185" type="line"/>
      <point x="1736" y="150" type="line"/>
      <point x="1736" y="0" type="line"/>
      <point x="1096" y="0" type="line"/>
      <point x="1096" y="150" type="line"/>
      <point x="1304" y="185" type="line"/>
      <point x="1306" y="754" type="line"/>
    </contour>
  </outline>
</glyph>
<glyph name="Ucyr" format="2">
	<unicode hex="0423"/>
	<advance width="1420"/>
	<outline>
		<contour>
			<point x="726" y="558" type="qcurve" smooth="yes"/>
			<point x="907" y="950" type="line"/>
			<point x="1059" y="1308" type="line"/>
			<point x="865" y="1336" type="line"/>
			<point x="865" y="1500" type="line"/>
			<point x="1445" y="1500" type="line"/>
			<point x="1445" y="1336" type="line"/>
			<point x="1263" y="1309" type="line"/>
			<point x="1058" y="898" type="line"/>
			<point x="859" y="470" type="line" smooth="yes"/>
			<point x="745" y="226"/>
			<point x="537" y="-17"/>
			<point x="360" y="-17" type="qcurve" smooth="yes"/>
			<point x="328" y="-17"/>
			<point x="287" y="-9"/>
			<point x="260" y="0" type="qcurve"/>
			<point x="260" y="228" type="line"/>
			<point x="284" y="220"/>
			<point x="324" y="215"/>
			<point x="364" y="215" type="qcurve" smooth="yes"/>
			<point x="496" y="215"/>
			<point x="652" y="398"/>
		</contour>
		<contour>
			<point x="642" y="347" type="line"/>
			<point x="395" y="848" type="line"/>
			<point x="156" y="1310" type="line"/>
			<point x="-20" y="1336" type="line"/>
			<point x="-20" y="1500" type="line"/>
			<point x="584" y="1500" type="line"/>
			<point x="584" y="1336" type="line"/>
			<point x="412" y="1301" type="line"/>
			<point x="585" y="939" type="line"/>
			<point x="777" y="561" type="line"/>
		</contour>
	</outline>
</glyph>
<glyph name="Tse" format="2">
  <advance width="1828"/>
  <unicode hex="0426"/>
  <guideline x="1638" y="1367" angle="90" identifier="Ju90KfnAFs"/>
  <outline>
    <contour>
      <point x="1306" y="746" type="line"/>
      <point x="1304" y="1315" type="line"/>
      <point x="1096" y="1350" type="line"/>
      <point x="1096" y="1500" type="line"/>
      <point x="1736" y="1500" type="line"/>
      <point x="1736" y="1350" type="line"/>
      <point x="1528" y="1315" type="line"/>
      <point x="1526" y="746" type="line"/>
      <point x="1528" y="158" type="line"/>
      <point x="1736" y="158" type="line"/>
      <point x="1746" y="-338" type="line"/>
      <point x="1594" y="-338" type="line"/>
      <point x="1525" y="0" type="line"/>
      <point x="82" y="0" type="line"/>
      <point x="82" y="150" type="line"/>
      <point x="290" y="185" type="line"/>
      <point x="292" y="746" type="line"/>
      <point x="290" y="1315" type="line"/>
      <point x="82" y="1350" type="line"/>
      <point x="82" y="1500" type="line"/>
      <point x="722" y="1500" type="line"/>
      <point x="722" y="1350" type="line"/>
      <point x="514" y="1315" type="line"/>
      <point x="512" y="746" type="line"/>
      <point x="514" y="178" type="line"/>
      <point x="579" y="158" type="line"/>
      <point x="1239" y="158" type="line"/>
      <point x="1304" y="178" type="line"/>
    </contour>
  </outline>
</glyph>
<glyph name="Hard" format="2">
	<unicode hex="042A"/>
	<advance width="1576"/>
	<outline>
		<contour>
			<point x="510" y="1311" type="line"/>
			<point x="512" y="746" type="line"/>
			<point x="510" y="185" type="line"/>
			<point x="302" y="150" type="line"/>
			<point x="302" y="0" type="line"/>
			<point x="994" y="0" type="line" smooth="yes"/>
			<point x="1253" y="0"/>
			<point x="1526" y="273"/>
			<point x="1526" y="481" type="qcurve" smooth="yes"/>
			<point x="1526" y="696"/>
			<point x="1268" y="915"/>
			<point x="995" y="915" type="qcurve" smooth="yes"/>
			<point x="622" y="915" type="line"/>
			<point x="622" y="747" type="line"/>
			<point x="937" y="747" type="line" smooth="yes"/>
			<point x="1122" y="747"/>
			<point x="1287" y="618"/>
			<point x="1287" y="482" type="qcurve" smooth="yes"/>
			<point x="1287" y="330"/>
			<point x="1108" y="158"/>
			<point x="937" y="158" type="qcurve" smooth="yes"/>
			<point x="799" y="158" type="line"/>
			<point x="734" y="178" type="line"/>
			<point x="732" y="746" type="line"/>
			<point x="734" y="1302" type="line"/>
			<point x="942" y="1336" type="line"/>
			<point x="942" y="1500" type="line"/>
			<point x="33" y="1500" type="line"/>
			<point x="33" y="1038" type="line"/>
			<point x="193" y="1038" type="line"/>
			<point x="228" y="1332" type="line"/>
			<point x="494" y="1332" type="line"/>
		</contour>
	</outline>
</glyph>
<glyph name="Soft" format="2">
  <advance width="1356"/>
  <unicode hex="042C"/>
  <outline>
    <contour>
      <point x="512" y="747" type="line"/>
      <point x="512" y="747" type="line"/>
      <point x="514" y="185" type="line"/>
      <point x="571" y="158" type="line"/>
      <point x="717" y="158" type="line" smooth="yes"/>
      <point x="888" y="158"/>
      <point x="1067" y="330"/>
      <point x="1067" y="482" type="qcurve" smooth="yes"/>
      <point x="1067" y="618"/>
      <point x="902" y="747"/>
      <point x="717" y="747" type="qcurve" smooth="yes"/>
    </contour>
    <contour>
      <point x="513" y="915" type="line"/>
      <point x="513" y="915" type="line"/>
      <point x="775" y="915" type="line" smooth="yes"/>
      <point x="1048" y="915"/>
      <point x="1306" y="696"/>
      <point x="1306" y="481" type="qcurve" smooth="yes"/>
      <point x="1306" y="273"/>
      <point x="1033" y="0"/>
      <point x="774" y="0" type="qcurve" smooth="yes"/>
      <point x="82" y="0" type="line"/>
      <point x="82" y="150" type="line"/>
      <point x="290" y="185" type="line"/>
      <point x="292" y="746" type="line"/>
      <point x="290" y="1302" type="line"/>
      <point x="82" y="1336" type="line"/>
      <point x="82" y="1500" type="line"/>
      <point x="722" y="1500" type="line"/>
      <point x="722" y="1336" type="line"/>
      <point x="514" y="1302" type="line"/>
    </contour>
  </outline>
</glyph>
<glyph name="Ecyr" format="2">
  <advance width="1569"/>
  <unicode hex="042D"/>
  <guideline x="1147" y="753" angle="90" identifier="Ovo68woMtl"/>
  <guideline x="211" y="787" angle="90" identifier="BltxzGcBtl"/>
  <anchor x="726" y="0" name="bottom"/>
  <anchor x="726" y="1500" name="top"/>
  <outline>
    <contour>
      <point x="1369" y="681" type="line"/>
      <point x="714" y="671" type="line"/>
      <point x="679" y="515" type="line"/>
      <point x="534" y="515" type="line"/>
      <point x="534" y="993" type="line"/>
      <point x="679" y="993" type="line"/>
      <point x="714" y="833" type="line"/>
      <point x="1369" y="823" type="line"/>
    </contour>
    <contour>
      <point x="691" y="151" type="qcurve" smooth="yes"/>
      <point x="963.511627907" y="151"/>
      <point x="1249" y="450"/>
      <point x="1249" y="745" type="qcurve" smooth="yes"/>
      <point x="1249" y="1016"/>
      <point x="964.5287642683" y="1336.9981447412"/>
      <point x="711" y="1336" type="qcurve" smooth="yes"/>
      <point x="529" y="1335"/>
      <point x="380" y="1247"/>
      <point x="354" y="1141" type="qcurve" smooth="yes"/>
      <point x="327" y="1031" type="line"/>
      <point x="170" y="1031" type="line"/>
      <point x="170" y="1501" type="line"/>
      <point x="299" y="1501" type="line"/>
      <point x="328" y="1420" type="line"/>
      <point x="384" y="1466"/>
      <point x="575" y="1520"/>
      <point x="725" y="1520" type="qcurve" smooth="yes"/>
      <point x="1079" y="1520"/>
      <point x="1489" y="1093"/>
      <point x="1489" y="752" type="qcurve" smooth="yes"/>
      <point x="1489" y="412"/>
      <point x="1076" y="-33"/>
      <point x="714" y="-33" type="qcurve" smooth="yes"/>
      <point x="566" y="-33"/>
      <point x="361" y="35"/>
      <point x="312" y="83" type="qcurve"/>
      <point x="279" y="-14" type="line"/>
      <point x="150" y="-14" type="line"/>
      <point x="150" y="476" type="line"/>
      <point x="307" y="476" type="line"/>
      <point x="335" y="334" type="line" smooth="yes"/>
      <point x="354" y="240"/>
      <point x="508" y="151"/>
    </contour>
  </outline>
</glyph>
<glyph name="Yu" format="2">
	<unicode hex="042E"/>
	<advance width="2430"/>
	<outline>
		<contour>
			<point x="82" y="0" type="line"/>
			<point x="82" y="150" type="line"/>
			<point x="290" y="185" type="line"/>
			<point x="292" y="754" type="line"/>
			<point x="290" y="1302" type="line"/>
			<point x="82" y="1336" type="line"/>
			<point x="82" y="1500" type="line"/>
			<point x="722" y="1500" type="line"/>
			<point x="722" y="1336" type="line"/>
			<point x="514" y="1302" type="line"/>
			<point x="512" y="754" type="line"/>
			<point x="514" y="185" type="line"/>
			<point x="722" y="150" type="line"/>
			<point x="722" y="0" type="line"/>
		</contour>
		<contour>
			<point x="402" y="691" type="line"/>
			<point x="402" y="873" type="line"/>
			<point x="934" y="865" type="line"/>
			<point x="934" y="691" type="line"/>
		</contour>
		<contour>
			<point x="810" y="737" type="qcurve" smooth="yes"/>
			<point x="810" y="1068"/>
			<point x="1235" y="1520"/>
			<point x="1590" y="1520" type="qcurve" smooth="yes"/>
			<point x="1945" y="1520"/>
			<point x="2370" y="1097"/>
			<point x="2370" y="752" type="qcurve" smooth="yes"/>
			<point x="2370" y="423"/>
			<point x="1949" y="-31"/>
			<point x="1594" y="-31" type="qcurve" smooth="yes"/>
			<point x="1248" y="-31"/>
			<point x="810" y="396"/>
		</contour>
		<contour>
			<point x="1049" y="769" type="qcurve" smooth="yes"/>
			<point x="1049" y="499"/>
			<point x="1350" y="151"/>
			<point x="1592" y="151" type="qcurve" smooth="yes"/>
			<point x="1855" y="151"/>
			<point x="2131" y="460"/>
			<point x="2131" y="745" type="qcurve" smooth="yes"/>
			<point x="2131" y="998"/>
			<point x="1836" y="1330"/>
			<point x="1592" y="1330" type="qcurve" smooth="yes"/>
			<point x="1329" y="1330"/>
			<point x="1049" y="1029"/>
		</contour>
	</outline>
	<guideline x="732" y="785" angle="90" identifier="6nH5tb4DEh"/>
</glyph>
<glyph name="Ya" format="2">
  <advance width="1475"/>
  <unicode hex="042F"/>
  <anchor x="679" y="0" name="bottom"/>
  <anchor x="819" y="1500" name="top"/>
  <outline>
    <contour>
      <point x="1393" y="0" type="line"/>
      <point x="1393" y="150" type="line"/>
      <point x="1185" y="186" type="line"/>
      <point x="1183" y="754" type="line"/>
      <point x="1185" y="1302" type="line"/>
      <point x="1393" y="1336" type="line"/>
      <point x="1393" y="1500" type="line"/>
      <point x="716" y="1500" type="line" smooth="yes"/>
      <point x="471" y="1500"/>
      <point x="245" y="1256"/>
      <point x="245" y="1064" type="qcurve" smooth="yes"/>
      <point x="245" y="876"/>
      <point x="488" y="659"/>
      <point x="689" y="646" type="qcurve"/>
      <point x="700" y="636" type="line"/>
      <point x="1074" y="643" type="line"/>
      <point x="1074" y="790" type="line"/>
      <point x="785" y="790" type="line" smooth="yes"/>
      <point x="629" y="790"/>
      <point x="487" y="929"/>
      <point x="487" y="1056" type="qcurve" smooth="yes"/>
      <point x="487" y="1178"/>
      <point x="610" y="1332"/>
      <point x="747" y="1332" type="qcurve" smooth="yes"/>
      <point x="930" y="1332" type="line"/>
      <point x="959" y="1314" type="line"/>
      <point x="963" y="736" type="line"/>
      <point x="961" y="186" type="line"/>
      <point x="745" y="150" type="line"/>
      <point x="745" y="0" type="line"/>
    </contour>
    <contour>
      <point x="749" y="687" type="line"/>
      <point x="557" y="761" type="line"/>
      <point x="306" y="356" type="line" smooth="yes"/>
      <point x="233" y="239"/>
      <point x="96" y="151"/>
      <point x="10" y="150" type="qcurve"/>
      <point x="10" y="0" type="line"/>
      <point x="293" y="0" type="line"/>
      <point x="370" y="75" type="line"/>
    </contour>
  </outline>
</glyph>
<glyph name="ve" format="2">
	<unicode hex="0432"/>
	<advance width="1032"/>
	<outline>
		<contour>
			<point x="586" y="0" type="qcurve" smooth="yes"/>
			<point x="76" y="0" type="line"/>
			<point x="76" y="80" type="line"/>
			<point x="224" y="115" type="line"/>
			<point x="226" y="500" type="line"/>
			<point x="224" y="885" type="line"/>
			<point x="76" y="920" type="line"/>
			<point x="76" y="1000" type="line"/>
			<point x="583" y="1000" type="line" smooth="yes"/>
			<point x="745" y="1000"/>
			<point x="905" y="878"/>
			<point x="905" y="773" type="qcurve" smooth="yes"/>
			<point x="905" y="686"/>
			<point x="816" y="565"/>
			<point x="735" y="545" type="qcurve"/>
			<point x="735" y="541" type="line"/>
			<point x="834" y="522"/>
			<point x="967" y="398"/>
			<point x="967" y="286" type="qcurve" smooth="yes"/>
			<point x="967" y="149"/>
			<point x="763" y="0"/>
		</contour>
		<contour>
			<point x="309" y="574" type="line"/>
			<point x="549" y="574" type="line" smooth="yes"/>
			<point x="644" y="574"/>
			<point x="740" y="663"/>
			<point x="740" y="744" type="qcurve" smooth="yes"/>
			<point x="740" y="828"/>
			<point x="646" y="900"/>
			<point x="556" y="900" type="qcurve" smooth="yes"/>
			<point x="394" y="900" type="line"/>
			<point x="392" y="500" type="line"/>
			<point x="394" y="100" type="line"/>
			<point x="580" y="100" type="line" smooth="yes"/>
			<point x="687" y="100"/>
			<point x="798" y="195"/>
			<point x="798" y="290" type="qcurve" smooth="yes"/>
			<point x="798" y="379"/>
			<point x="696" y="474"/>
			<point x="600" y="474" type="qcurve" smooth="yes"/>
			<point x="309" y="474" type="line"/>
		</contour>
	</outline>
	<guideline x="302" y="625" angle="90" identifier="FqbstdQzDn"/>
	<guideline x="953" y="554" angle="90" identifier="zbbKiP68t3"/>
</glyph>
<glyph name="ghe" format="2">
  <advance width="986"/>
  <unicode hex="0433"/>
  <guideline x="302" y="625" angle="90" identifier="jHuxcyi1x5"/>
  <guideline x="953" y="554" angle="90" identifier="b1mHk7wgTR"/>
  <guideline x="627" y="553" angle="90" identifier="m4aYe0x4PZ"/>
  <guideline x="302" y="625" angle="90" identifier="YjCqpjiis4"/>
  <guideline x="953" y="554" angle="90" identifier="kl32Wf4RiS"/>
  <guideline x="627" y="553" angle="90" identifier="yGBxWYiyVF"/>
  <outline>
    <contour>
      <point x="730" y="890" type="line"/>
      <point x="441" y="890" type="line"/>
      <point x="439" y="525" type="line"/>
      <point x="441" y="172" type="line"/>
      <point x="609" y="137" type="line"/>
      <point x="609" y="0" type="line"/>
      <point x="80" y="0" type="line"/>
      <point x="80" y="137" type="line"/>
      <point x="228" y="172" type="line"/>
      <point x="230" y="525" type="line"/>
      <point x="228" y="878" type="line"/>
      <point x="80" y="913" type="line"/>
      <point x="80" y="1050" type="line"/>
      <point x="931" y="1050" type="line"/>
      <point x="941" y="624" type="line"/>
      <point x="819" y="624" type="line"/>
    </contour>
  </outline>
</glyph>
<glyph name="de" format="2">
  <advance width="1310"/>
  <unicode hex="0434"/>
  <guideline x="302" y="625" angle="90" identifier="jHuxcyi1x5"/>
  <guideline x="953" y="554" angle="90" identifier="b1mHk7wgTR"/>
  <guideline x="627" y="553" angle="90" identifier="m4aYe0x4PZ"/>
  <guideline x="302" y="625" angle="90" identifier="jJQglyXWqp"/>
  <guideline x="953" y="554" angle="90" identifier="49LKabpt8w"/>
  <guideline x="627" y="553" angle="90" identifier="feHY0ENmLf"/>
  <guideline x="302" y="625" angle="90" identifier="HY74OowaTj"/>
  <guideline x="953" y="554" angle="90" identifier="eGlO3NWN3i"/>
  <guideline x="627" y="553" angle="90" identifier="4oIMlZ73Te"/>
  <outline>
    <contour>
      <point x="307" y="878" type="line"/>
      <point x="159" y="913" type="line"/>
      <point x="159" y="1050" type="line"/>
      <point x="1222" y="1050" type="line"/>
      <point x="1222" y="913" type="line"/>
      <point x="1074" y="878" type="line"/>
      <point x="1072" y="525" type="line"/>
      <point x="1074" y="0" type="line"/>
      <point x="861" y="0" type="line"/>
      <point x="863" y="525" type="line"/>
      <point x="861" y="890" type="line"/>
      <point x="489" y="890" type="line"/>
      <point x="456" y="534" type="line" smooth="yes"/>
      <point x="437" y="330"/>
      <point x="384" y="140"/>
      <point x="355" y="81" type="qcurve"/>
      <point x="150" y="81" type="line"/>
      <point x="193" y="141"/>
      <point x="256" y="335"/>
      <point x="275" y="534" type="qcurve" smooth="yes"/>
    </contour>
    <contour>
      <point x="1108" y="-318" type="line"/>
      <point x="1009" y="0" type="line"/>
      <point x="261" y="0" type="line"/>
      <point x="162" y="-318" type="line"/>
      <point x="40" y="-318" type="line"/>
      <point x="50" y="158" type="line"/>
      <point x="1220" y="158" type="line"/>
      <point x="1230" y="-318" type="line"/>
    </contour>
  </outline>
</glyph>
<glyph name="zhe" format="2">
	<unicode hex="0436"/>
	<advance width="1687"/>
	<outline>
		<contour>
			<point x="948" y="525" type="line"/>
			<point x="950" y="172" type="line"/>
			<point x="1088" y="137" type="line"/>
			<point x="1088" y="0" type="line"/>
			<point x="599" y="0" type="line"/>
			<point x="599" y="137" type="line"/>
			<point x="737" y="172" type="line"/>
			<point x="739" y="525" type="line"/>
			<point x="737" y="878" type="line"/>
			<point x="599" y="913" type="line"/>
			<point x="599" y="1050" type="line"/>
			<point x="1088" y="1050" type="line"/>
			<point x="1088" y="913" type="line"/>
			<point x="950" y="878" type="line"/>
		</contour>
		<contour>
			<point x="1034" y="496" type="line"/>
			<point x="1188" y="622" type="line"/>
			<point x="1554" y="179" type="line"/>
			<point x="1712" y="137" type="line"/>
			<point x="1712" y="0" type="line"/>
			<point x="1425" y="0" type="line"/>
			<point x="1391" y="25" type="line"/>
			<point x="1347" y="115" type="line"/>
		</contour>
		<contour>
			<point x="1316" y="883" type="line"/>
			<point x="1183" y="913" type="line"/>
			<point x="1183" y="1050" type="line"/>
			<point x="1691" y="1050" type="line"/>
			<point x="1691" y="913" type="line"/>
			<point x="1515" y="878" type="line"/>
			<point x="1100" y="453" type="line"/>
			<point x="844" y="451" type="line"/>
			<point x="844" y="612" type="line"/>
			<point x="1071" y="609" type="line"/>
		</contour>
		<contour>
			<point x="653" y="496" type="line"/>
			<point x="340" y="115" type="line"/>
			<point x="296" y="25" type="line"/>
			<point x="262" y="0" type="line"/>
			<point x="-25" y="0" type="line"/>
			<point x="-25" y="137" type="line"/>
			<point x="138" y="179" type="line"/>
			<point x="504" y="622" type="line"/>
		</contour>
		<contour>
			<point x="371" y="883" type="line"/>
			<point x="616" y="609" type="line"/>
			<point x="844" y="612" type="line"/>
			<point x="844" y="451" type="line"/>
			<point x="582" y="453" type="line"/>
			<point x="167" y="878" type="line"/>
			<point x="-4" y="913" type="line"/>
			<point x="-4" y="1050" type="line"/>
			<point x="504" y="1050" type="line"/>
			<point x="504" y="913" type="line"/>
		</contour>
	</outline>
	<guideline x="241" y="553" angle="90" identifier="8KgqZm3A67"/>
	<guideline x="241" y="553" angle="90" identifier="ZWB2DUFXKA"/>
	<guideline x="786" y="880" angle="0" identifier="z7Pi27rVbx"/>
	<guideline x="302" y="625" angle="90" identifier="ewmNgyRznQ"/>
	<guideline x="953" y="554" angle="90" identifier="Jo7jWWIJk2"/>
	<guideline x="627" y="553" angle="90" identifier="YXGIyrmg0M"/>
</glyph>
<glyph name="icyr" format="2">
  <advance width="1372"/>
  <unicode hex="0438"/>
  <guideline x="302" y="625" angle="90" identifier="jHuxcyi1x5"/>
  <guideline x="973" y="554" angle="90" identifier="b1mHk7wgTR"/>
  <guideline x="627" y="553" angle="90" identifier="m4aYe0x4PZ"/>
  <guideline x="641" y="891" angle="90" identifier="cgCypNhhfk"/>
  <guideline x="302" y="625" angle="90" identifier="Mli06gcSCP"/>
  <guideline x="953" y="554" angle="90" identifier="2iUX6yiLir"/>
  <guideline x="627" y="553" angle="90" identifier="TubCfbdj8C"/>
  <guideline x="686" y="566" angle="90" identifier="VfYcqOrSl6"/>
  <guideline x="706" y="525" angle="0" identifier="jpcDBSLNvc"/>
  <anchor x="686.0" y="0" name="bottom"/>
  <anchor x="686.0" y="1050" name="top"/>
  <outline>
    <contour>
      <point x="343" y="357" type="line"/>
      <point x="635" y="572" type="line"/>
      <point x="932" y="808" type="line"/>
      <point x="1029" y="693" type="line"/>
      <point x="741" y="481" type="line"/>
      <point x="440" y="242" type="line"/>
    </contour>
    <contour>
      <point x="230" y="525" type="line"/>
      <point x="228" y="878" type="line"/>
      <point x="80" y="913" type="line"/>
      <point x="80" y="1050" type="line"/>
      <point x="579" y="1050" type="line"/>
      <point x="579" y="913" type="line"/>
      <point x="441" y="878" type="line"/>
      <point x="439" y="525" type="line"/>
      <point x="441" y="172" type="line"/>
      <point x="579" y="137" type="line"/>
      <point x="579" y="0" type="line"/>
      <point x="80" y="0" type="line"/>
      <point x="80" y="137" type="line"/>
      <point x="228" y="172" type="line"/>
    </contour>
    <contour>
      <point x="1142" y="525" type="line"/>
      <point x="1144" y="172" type="line"/>
      <point x="1292" y="137" type="line"/>
      <point x="1292" y="0" type="line"/>
      <point x="793" y="0" type="line"/>
      <point x="793" y="137" type="line"/>
      <point x="931" y="172" type="line"/>
      <point x="933" y="525" type="line"/>
      <point x="931" y="878" type="line"/>
      <point x="793" y="913" type="line"/>
      <point x="793" y="1050" type="line"/>
      <point x="1292" y="1050" type="line"/>
      <point x="1292" y="913" type="line"/>
      <point x="1144" y="878" type="line"/>
    </contour>
  </outline>
</glyph>
<glyph name="en" format="2">
	<unicode hex="043D"/>
	<advance width="1352"/>
	<outline>
		<contour>
			<point x="334" y="612" type="line"/>
			<point x="675" y="609" type="line"/>
			<point x="1019" y="612" type="line"/>
			<point x="1019" y="451" type="line"/>
			<point x="675" y="453" type="line"/>
			<point x="334" y="451" type="line"/>
		</contour>
		<contour>
			<point x="230" y="525" type="line"/>
			<point x="228" y="878" type="line"/>
			<point x="80" y="913" type="line"/>
			<point x="80" y="1050" type="line"/>
			<point x="579" y="1050" type="line"/>
			<point x="579" y="913" type="line"/>
			<point x="441" y="878" type="line"/>
			<point x="439" y="525" type="line"/>
			<point x="441" y="172" type="line"/>
			<point x="579" y="137" type="line"/>
			<point x="579" y="0" type="line"/>
			<point x="80" y="0" type="line"/>
			<point x="80" y="137" type="line"/>
			<point x="228" y="172" type="line"/>
		</contour>
		<contour>
			<point x="1122" y="525" type="line"/>
			<point x="1124" y="172" type="line"/>
			<point x="1272" y="137" type="line"/>
			<point x="1272" y="0" type="line"/>
			<point x="773" y="0" type="line"/>
			<point x="773" y="137" type="line"/>
			<point x="911" y="172" type="line"/>
			<point x="913" y="525" type="line"/>
			<point x="911" y="878" type="line"/>
			<point x="773" y="913" type="line"/>
			<point x="773" y="1050" type="line"/>
			<point x="1272" y="1050" type="line"/>
			<point x="1272" y="913" type="line"/>
			<point x="1124" y="878" type="line"/>
		</contour>
	</outline>
	<guideline x="302" y="625" angle="90" identifier="jHuxcyi1x5"/>
	<guideline x="953" y="554" angle="90" identifier="b1mHk7wgTR"/>
	<guideline x="627" y="553" angle="90" identifier="m4aYe0x4PZ"/>
</glyph>
<glyph name="te" format="2">
  <advance width="1133"/>
  <unicode hex="0442"/>
  <guideline x="302" y="625" angle="90" identifier="0glbwjr6f1"/>
  <guideline x="953" y="554" angle="90" identifier="41A0uQDzZV"/>
  <guideline x="627" y="553" angle="90" identifier="rA3XBl1QkZ"/>
  <guideline x="302" y="625" angle="90" identifier="vGC95begyG"/>
  <guideline x="953" y="554" angle="90" identifier="HLDRr1rjHm"/>
  <guideline x="627" y="553" angle="90" identifier="juCreE1tgG"/>
  <guideline x="302" y="625" angle="90" identifier="nmUla82PRJ"/>
  <guideline x="953" y="554" angle="90" identifier="pPFAyOfA92"/>
  <guideline x="627" y="553" angle="90" identifier="yltGdqQGH4"/>
  <outline>
    <contour>
      <point x="841" y="137" type="line"/>
      <point x="841" y="0" type="line"/>
      <point x="292" y="0" type="line"/>
      <point x="292" y="137" type="line"/>
      <point x="460" y="172" type="line"/>
      <point x="462" y="525" type="line"/>
      <point x="460" y="890" type="line"/>
      <point x="256" y="890" type="line"/>
      <point x="167" y="624" type="line"/>
      <point x="45" y="624" type="line"/>
      <point x="55" y="1050" type="line"/>
      <point x="1078" y="1050" type="line"/>
      <point x="1088" y="624" type="line"/>
      <point x="966" y="624" type="line"/>
      <point x="877" y="890" type="line"/>
      <point x="673" y="890" type="line"/>
      <point x="671" y="525" type="line"/>
      <point x="673" y="172" type="line"/>
    </contour>
  </outline>
</glyph>
<glyph name="che" format="2">
  <advance width="1302"/>
  <unicode hex="0447"/>
  <guideline x="302" y="625" angle="90" identifier="jHuxcyi1x5"/>
  <guideline x="953" y="554" angle="90" identifier="b1mHk7wgTR"/>
  <guideline x="627" y="553" angle="90" identifier="m4aYe0x4PZ"/>
  <guideline x="302" y="625" angle="90" identifier="UvAFmXEi6Q"/>
  <guideline x="953" y="554" angle="90" identifier="ydXTGR0GfB"/>
  <guideline x="627" y="553" angle="90" identifier="jKYPl26cpp"/>
  <guideline x="988" y="629" angle="90" identifier="9lOuVnAGhG"/>
  <outline>
    <contour>
      <point x="419" y="738" type="line" smooth="yes"/>
      <point x="417.5639847673" y="637.4789337095"/>
      <point x="517" y="563"/>
      <point x="633" y="563" type="qcurve" smooth="yes"/>
      <point x="722" y="563"/>
      <point x="880" y="588"/>
      <point x="968" y="619" type="qcurve"/>
      <point x="968" y="465" type="line"/>
      <point x="883" y="433"/>
      <point x="704" y="402"/>
      <point x="583" y="402" type="qcurve" smooth="yes"/>
      <point x="398" y="402"/>
      <point x="210.1671382168" y="559.4306821271"/>
      <point x="209" y="731" type="qcurve" smooth="yes"/>
      <point x="208" y="878" type="line"/>
      <point x="60" y="913" type="line"/>
      <point x="60" y="1050" type="line"/>
      <point x="559" y="1050" type="line"/>
      <point x="559" y="913" type="line"/>
      <point x="421" y="878" type="line"/>
    </contour>
    <contour>
      <point x="1072" y="525" type="line"/>
      <point x="1074" y="172" type="line"/>
      <point x="1222" y="137" type="line"/>
      <point x="1222" y="0" type="line"/>
      <point x="684" y="0" type="line"/>
      <point x="684" y="137" type="line"/>
      <point x="862" y="172" type="line"/>
      <point x="864" y="525" type="line"/>
      <point x="862" y="878" type="line"/>
      <point x="724" y="913" type="line"/>
      <point x="724" y="1050" type="line"/>
      <point x="1222" y="1050" type="line"/>
      <point x="1222" y="913" type="line"/>
      <point x="1074" y="878" type="line"/>
    </contour>
  </outline>
</glyph>
<glyph name="yeru" format="2">
	<unicode hex="044B"/>
	<advance width="1652"/>
	<outline>
		<contour>
			<point x="1213" y="525" type="line"/>
			<point x="1211" y="878" type="line"/>
			<point x="1073" y="913" type="line"/>
			<point x="1073" y="1050" type="line"/>
			<point x="1572" y="1050" type="line"/>
			<point x="1572" y="913" type="line"/>
			<point x="1424" y="878" type="line"/>
			<point x="1422" y="525" type="line"/>
			<point x="1424" y="172" type="line"/>
			<point x="1572" y="137" type="line"/>
			<point x="1572" y="0" type="line"/>
			<point x="1073" y="0" type="line"/>
			<point x="1073" y="137" type="line"/>
			<point x="1211" y="172" type="line"/>
		</contour>
		<component base="soft"/>
	</outline>
</glyph>
<glyph name="ecyr" format="2">
	<unicode hex="044D"/>
	<advance width="1175"/>
	<outline>
		<contour>
			<point x="540" y="141" type="qcurve" smooth="yes"/>
			<point x="705" y="141"/>
			<point x="884" y="354"/>
			<point x="884" y="529" type="qcurve" smooth="yes"/>
			<point x="884" y="694"/>
			<point x="701" y="909"/>
			<point x="549" y="909" type="qcurve" smooth="yes"/>
			<point x="444" y="909"/>
			<point x="332" y="833"/>
			<point x="307" y="759" type="qcurve" smooth="yes"/>
			<point x="271" y="661" type="line"/>
			<point x="139" y="663" type="line"/>
			<point x="139" y="1053" type="line"/>
			<point x="264" y="1053" type="line"/>
			<point x="295" y="995" type="line"/>
			<point x="327" y="1026"/>
			<point x="461" y="1072"/>
			<point x="560" y="1072" type="qcurve" smooth="yes"/>
			<point x="808" y="1072"/>
			<point x="1111" y="774"/>
			<point x="1111" y="531" type="qcurve" smooth="yes"/>
			<point x="1111" y="303"/>
			<point x="805" y="-22"/>
			<point x="551" y="-22" type="qcurve" smooth="yes"/>
			<point x="452" y="-22"/>
			<point x="318" y="24"/>
			<point x="286" y="55" type="qcurve"/>
			<point x="255" y="-3" type="line"/>
			<point x="130" y="-3" type="line"/>
			<point x="130" y="387" type="line"/>
			<point x="262" y="389" type="line"/>
			<point x="298" y="291" type="line" smooth="yes"/>
			<point x="325" y="218"/>
			<point x="435" y="141"/>
		</contour>
		<contour>
			<point x="423" y="612" type="line"/>
			<point x="997" y="609" type="line"/>
			<point x="997" y="453" type="line"/>
			<point x="423" y="451" type="line"/>
		</contour>
	</outline>
	<guideline x="180" y="548" angle="90" identifier="n4jm0tBg3Y"/>
	<guideline x="585" y="692" angle="90" identifier="5YHDimtfWx"/>
</glyph>
<glyph name="yu" format="2">
	<unicode hex="044E"/>
	<advance width="1806"/>
	<outline>
		<contour>
			<point x="334" y="612" type="line"/>
			<point x="765" y="609" type="line"/>
			<point x="765" y="453" type="line"/>
			<point x="334" y="451" type="line"/>
		</contour>
		<contour>
			<point x="230" y="525" type="line"/>
			<point x="228" y="878" type="line"/>
			<point x="80" y="913" type="line"/>
			<point x="80" y="1050" type="line"/>
			<point x="579" y="1050" type="line"/>
			<point x="579" y="913" type="line"/>
			<point x="441" y="878" type="line"/>
			<point x="439" y="525" type="line"/>
			<point x="441" y="172" type="line"/>
			<point x="579" y="137" type="line"/>
			<point x="579" y="0" type="line"/>
			<point x="80" y="0" type="line"/>
			<point x="80" y="137" type="line"/>
			<point x="228" y="172" type="line"/>
		</contour>
		<contour>
			<point x="654" y="525" type="qcurve" smooth="yes"/>
			<point x="654" y="754"/>
			<point x="953" y="1072"/>
			<point x="1196" y="1072" type="qcurve" smooth="yes"/>
			<point x="1442" y="1072"/>
			<point x="1742" y="774"/>
			<point x="1742" y="531" type="qcurve" smooth="yes"/>
			<point x="1742" y="303"/>
			<point x="1447" y="-22"/>
			<point x="1202" y="-22" type="qcurve" smooth="yes"/>
			<point x="957" y="-22"/>
			<point x="654" y="281"/>
		</contour>
		<contour>
			<point x="876" y="542" type="qcurve" smooth="yes"/>
			<point x="877" y="376"/>
			<point x="1051" y="147"/>
			<point x="1195" y="147" type="qcurve" smooth="yes"/>
			<point x="1348" y="147"/>
			<point x="1515" y="356"/>
			<point x="1515" y="529" type="qcurve" smooth="yes"/>
			<point x="1515" y="688"/>
			<point x="1341" y="895"/>
			<point x="1196" y="895" type="qcurve" smooth="yes"/>
			<point x="1041" y="895"/>
			<point x="875" y="707"/>
		</contour>
	</outline>
	<guideline x="302" y="625" angle="90" identifier="jHuxcyi1x5"/>
	<guideline x="953" y="554" angle="90" identifier="b1mHk7wgTR"/>
	<guideline x="627" y="553" angle="90" identifier="m4aYe0x4PZ"/>
	<guideline x="302" y="625" angle="90" identifier="63u66F8hRj"/>
	<guideline x="953" y="554" angle="90" identifier="AMp2xVSzDK"/>
	<guideline x="627" y="553" angle="90" identifier="e2vLHvpFvi"/>
</glyph>
<glyph name="ya" format="2">
  <advance width="1150"/>
  <unicode hex="044F"/>
  <guideline x="302" y="625" angle="90" identifier="XQgmgmO2xX"/>
  <guideline x="953" y="554" angle="90" identifier="MobSutKfE9"/>
  <guideline x="627" y="553" angle="90" identifier="l2g0Cp9ZiO"/>
  <guideline x="302" y="625" angle="90" identifier="dR66VQEY8N"/>
  <guideline x="953" y="554" angle="90" identifier="xd0WlPFaJW"/>
  <guideline x="627" y="553" angle="90" identifier="vZFnPiU6fA"/>
  <guideline x="329" y="565" angle="0" identifier="htNMsKE56i"/>
  <anchor x="575.0" y="0" name="bottom"/>
  <anchor x="627.0" y="1050" name="top"/>
  <outline>
    <contour>
      <point x="710" y="892" type="line"/>
      <point x="535" y="892" type="line" smooth="yes"/>
      <point x="416" y="892"/>
      <point x="319" y="800"/>
      <point x="319" y="720" type="qcurve" smooth="yes"/>
      <point x="319" y="638"/>
      <point x="416" y="544"/>
      <point x="526" y="544" type="qcurve" smooth="yes"/>
      <point x="816" y="544" type="line"/>
      <point x="816" y="402" type="line"/>
      <point x="506" y="399" type="line"/>
      <point x="460" y="413" type="line"/>
      <point x="291" y="429"/>
      <point x="109" y="581"/>
      <point x="109" y="724" type="qcurve" smooth="yes"/>
      <point x="109" y="880"/>
      <point x="326" y="1050"/>
      <point x="535" y="1050" type="qcurve" smooth="yes"/>
      <point x="1070" y="1050" type="line"/>
      <point x="1070" y="913" type="line"/>
      <point x="922" y="878" type="line"/>
      <point x="920" y="515" type="line"/>
      <point x="922" y="172" type="line"/>
      <point x="1070" y="137" type="line"/>
      <point x="1070" y="0" type="line"/>
      <point x="572" y="0" type="line"/>
      <point x="572" y="137" type="line"/>
      <point x="710" y="172" type="line"/>
      <point x="712" y="505" type="line"/>
    </contour>
    <contour>
      <point x="555" y="451" type="line"/>
      <point x="370" y="115" type="line"/>
      <point x="326" y="25" type="line"/>
      <point x="292" y="0" type="line"/>
      <point x="25" y="0" type="line"/>
      <point x="25" y="137" type="line"/>
      <point x="178" y="179" type="line"/>
      <point x="379" y="525" type="line"/>
    </contour>
  </outline>
</glyph>
<glyph name="dje" format="2">
  <advance width="1296"/>
  <unicode hex="0452"/>
  <outline>
    <contour>
      <point x="332" y="1130" type="line"/>
      <point x="30" y="1120" type="line"/>
      <point x="41" y="1266" type="line"/>
      <point x="372" y="1256" type="line"/>
      <point x="677" y="1266" type="line"/>
      <point x="677" y="1120" type="line"/>
    </contour>
    <contour>
      <point x="661" y="-484" type="qcurve"/>
      <point x="661" y="-333" type="line"/>
      <point x="813" y="-338"/>
      <point x="923" y="-222"/>
      <point x="922" y="-48" type="qcurve" smooth="yes"/>
      <point x="920" y="552" type="line"/>
      <point x="920" y="712" type="line" smooth="yes"/>
      <point x="920" y="778"/>
      <point x="818" y="886"/>
      <point x="723" y="886" type="qcurve" smooth="yes"/>
      <point x="644" y="886"/>
      <point x="482" y="810"/>
      <point x="430" y="734" type="qcurve"/>
      <point x="430" y="552" type="line"/>
      <point x="432" y="172" type="line"/>
      <point x="570" y="137" type="line"/>
      <point x="570" y="0" type="line"/>
      <point x="76" y="0" type="line"/>
      <point x="76" y="137" type="line"/>
      <point x="218" y="172" type="line"/>
      <point x="220" y="552" type="line"/>
      <point x="218" y="1319" type="line"/>
      <point x="52" y="1349" type="line"/>
      <point x="52" y="1500" type="line"/>
      <point x="372" y="1534" type="line"/>
      <point x="404" y="1534" type="line"/>
      <point x="432" y="1502" type="line"/>
      <point x="430" y="914" type="line"/>
      <point x="493" y="985"/>
      <point x="691" y="1072"/>
      <point x="799" y="1072" type="qcurve" smooth="yes"/>
      <point x="967" y="1072"/>
      <point x="1132" y="922"/>
      <point x="1132" y="792" type="qcurve" smooth="yes"/>
      <point x="1132" y="718"/>
      <point x="1127" y="552"/>
      <point x="1127" y="552" type="qcurve"/>
      <point x="1134" y="-27" type="line" smooth="yes"/>
      <point x="1137" y="-271"/>
      <point x="902" y="-501"/>
    </contour>
  </outline>
</glyph>
<glyph name="yi" format="2">
	<unicode hex="0457"/>
	<advance width="683"/>
	<outline>
		<contour>
			<point x="77" y="0" type="line"/>
			<point x="77" y="137" type="line"/>
			<point x="245" y="172" type="line"/>
			<point x="247" y="552" type="line"/>
			<point x="240" y="835" type="line"/>
			<point x="72" y="865" type="line"/>
			<point x="72" y="1017" type="line"/>
			<point x="394" y="1050" type="line"/>
			<point x="441" y="1050" type="line"/>
			<point x="464" y="1011" type="line"/>
			<point x="457" y="552" type="line"/>
			<point x="459" y="172" type="line"/>
			<point x="617" y="137" type="line"/>
			<point x="617" y="0" type="line"/>
		</contour>
		<contour>
			<point x="40" y="1357" type="qcurve" smooth="yes"/>
			<point x="40" y="1418"/>
			<point x="111" y="1493"/>
			<point x="177" y="1493" type="qcurve" smooth="yes"/>
			<point x="239" y="1493"/>
			<point x="314" y="1416"/>
			<point x="314" y="1357" type="qcurve" smooth="yes"/>
			<point x="314" y="1296"/>
			<point x="243" y="1225"/>
			<point x="177" y="1225" type="qcurve" smooth="yes"/>
			<point x="115" y="1225"/>
			<point x="40" y="1300"/>
		</contour>
		<contour>
			<point x="380" y="1357" type="qcurve" smooth="yes"/>
			<point x="380" y="1418"/>
			<point x="451" y="1493"/>
			<point x="517" y="1493" type="qcurve" smooth="yes"/>
			<point x="579" y="1493"/>
			<point x="654" y="1416"/>
			<point x="654" y="1357" type="qcurve" smooth="yes"/>
			<point x="654" y="1296"/>
			<point x="583" y="1225"/>
			<point x="517" y="1225" type="qcurve" smooth="yes"/>
			<point x="455" y="1225"/>
			<point x="380" y="1300"/>
		</contour>
	</outline>
</glyph>
<glyph name="lje" format="2">
	<unicode hex="0459"/>
	<advance width="1657"/>
	<outline>
		<contour>
			<point x="807" y="890" type="line"/>
			<point x="810" y="535" type="line"/>
			<point x="808" y="172" type="line"/>
			<point x="650" y="137" type="line"/>
			<point x="650" y="0" type="line"/>
			<point x="1186" y="0" type="line" smooth="yes"/>
			<point x="1395" y="0"/>
			<point x="1612" y="175"/>
			<point x="1612" y="336" type="qcurve" smooth="yes"/>
			<point x="1612" y="512"/>
			<point x="1390" y="681"/>
			<point x="1186" y="681" type="qcurve" smooth="yes"/>
			<point x="915" y="681" type="line"/>
			<point x="915" y="526" type="line"/>
			<point x="1195" y="526" type="line" smooth="yes"/>
			<point x="1305" y="526"/>
			<point x="1402" y="427"/>
			<point x="1402" y="340" type="qcurve" smooth="yes"/>
			<point x="1402" y="255"/>
			<point x="1305" y="158"/>
			<point x="1186" y="158" type="qcurve" smooth="yes"/>
			<point x="1021" y="158" type="line"/>
			<point x="1019" y="545" type="line"/>
			<point x="1021" y="878" type="line"/>
			<point x="1169" y="913" type="line"/>
			<point x="1169" y="1050" type="line"/>
			<point x="175" y="1050" type="line"/>
			<point x="175" y="913" type="line"/>
			<point x="323" y="878" type="line"/>
			<point x="296" y="454" type="line" smooth="yes"/>
			<point x="288" y="327"/>
			<point x="212" y="196"/>
			<point x="127" y="196" type="qcurve" smooth="yes"/>
			<point x="108" y="196"/>
			<point x="72" y="201"/>
			<point x="50" y="208" type="qcurve"/>
			<point x="50" y="-2" type="line"/>
			<point x="76" y="-11"/>
			<point x="109" y="-17"/>
			<point x="130" y="-17" type="qcurve" smooth="yes"/>
			<point x="301" y="-17"/>
			<point x="464" y="185"/>
			<point x="480" y="439" type="qcurve" smooth="yes"/>
			<point x="509" y="890" type="line"/>
		</contour>
	</outline>
	<guideline x="302" y="625" angle="90" identifier="jHuxcyi1x5"/>
	<guideline x="953" y="554" angle="90" identifier="b1mHk7wgTR"/>
	<guideline x="627" y="553" angle="90" identifier="m4aYe0x4PZ"/>
	<guideline x="302" y="625" angle="90" identifier="Ky1lHbuwqH"/>
	<guideline x="953" y="554" angle="90" identifier="KcHye0wYbo"/>
	<guideline x="627" y="553" angle="90" identifier="duMaS7Nr94"/>
	<guideline x="302" y="625" angle="90" identifier="km3B4ZF61a"/>
	<guideline x="953" y="554" angle="90" identifier="sYGFGP1xCk"/>
	<guideline x="627" y="553" angle="90" identifier="JWWDZPBvAC"/>
	<guideline x="329" y="565" angle="0" identifier="iyXHdwuhIM"/>
</glyph>
<glyph name="nje" format="2">
	<unicode hex="045A"/>
	<advance width="1739"/>
	<outline>
		<contour>
			<point x="334" y="642" type="line"/>
			<point x="675" y="639" type="line"/>
			<point x="997" y="642" type="line"/>
			<point x="997" y="481" type="line"/>
			<point x="675" y="483" type="line"/>
			<point x="334" y="481" type="line"/>
		</contour>
		<contour>
			<point x="439" y="525" type="line"/>
			<point x="441" y="172" type="line"/>
			<point x="579" y="137" type="line"/>
			<point x="579" y="0" type="line"/>
			<point x="80" y="0" type="line"/>
			<point x="80" y="137" type="line"/>
			<point x="228" y="172" type="line"/>
			<point x="230" y="525" type="line"/>
			<point x="228" y="878" type="line"/>
			<point x="80" y="913" type="line"/>
			<point x="80" y="1050" type="line"/>
			<point x="579" y="1050" type="line"/>
			<point x="579" y="913" type="line"/>
			<point x="441" y="878" type="line"/>
		</contour>
		<contour>
			<point x="1103" y="158" type="line"/>
			<point x="1283" y="158" type="line" smooth="yes"/>
			<point x="1394" y="158"/>
			<point x="1484" y="244"/>
			<point x="1484" y="320" type="qcurve" smooth="yes"/>
			<point x="1484" y="398"/>
			<point x="1394" y="486"/>
			<point x="1292" y="486" type="qcurve" smooth="yes"/>
			<point x="997" y="486" type="line"/>
			<point x="997" y="641" type="line"/>
			<point x="1283" y="641" type="line" smooth="yes"/>
			<point x="1480" y="641"/>
			<point x="1694" y="482"/>
			<point x="1694" y="316" type="qcurve" smooth="yes"/>
			<point x="1694" y="165"/>
			<point x="1485" y="0"/>
			<point x="1283" y="0" type="qcurve" smooth="yes"/>
			<point x="752" y="0" type="line"/>
			<point x="752" y="137" type="line"/>
			<point x="890" y="172" type="line"/>
			<point x="892" y="535" type="line"/>
			<point x="890" y="878" type="line"/>
			<point x="752" y="913" type="line"/>
			<point x="752" y="1050" type="line"/>
			<point x="1241" y="1050" type="line"/>
			<point x="1241" y="913" type="line"/>
			<point x="1103" y="878" type="line"/>
			<point x="1101" y="545" type="line"/>
		</contour>
	</outline>
	<guideline x="302" y="625" angle="90" identifier="jHuxcyi1x5"/>
	<guideline x="953" y="554" angle="90" identifier="b1mHk7wgTR"/>
	<guideline x="627" y="553" angle="90" identifier="m4aYe0x4PZ"/>
	<guideline x="302" y="625" angle="90" identifier="DaDGNHnrJC"/>
	<guideline x="953" y="554" angle="90" identifier="Bbny8iww5g"/>
	<guideline x="627" y="553" angle="90" identifier="3531CBsGwL"/>
	<guideline x="329" y="565" angle="0" identifier="14O6IW97PN"/>
</glyph>
<glyph name="gheup" format="2">
	<unicode hex="0491"/>
	<advance width="983"/>
	<outline>
		<contour>
			<point x="441" y="890" type="line"/>
			<point x="439" y="525" type="line"/>
			<point x="441" y="172" type="line"/>
			<point x="609" y="137" type="line"/>
			<point x="609" y="0" type="line"/>
			<point x="80" y="0" type="line"/>
			<point x="80" y="137" type="line"/>
			<point x="228" y="172" type="line"/>
			<point x="230" y="525" type="line"/>
			<point x="228" y="878" type="line"/>
			<point x="80" y="913" type="line"/>
			<point x="80" y="1050" type="line"/>
			<point x="716" y="1050" type="line"/>
			<point x="815" y="1366" type="line"/>
			<point x="937" y="1366" type="line"/>
			<point x="927" y="890" type="line"/>
		</contour>
	</outline>
	<guideline x="302" y="625" angle="90" identifier="jHuxcyi1x5"/>
	<guideline x="953" y="554" angle="90" identifier="b1mHk7wgTR"/>
	<guideline x="627" y="553" angle="90" identifier="m4aYe0x4PZ"/>
	<guideline x="302" y="625" angle="90" identifier="YjCqpjiis4"/>
	<guideline x="953" y="554" angle="90" identifier="kl32Wf4RiS"/>
	<guideline x="627" y="553" angle="90" identifier="yGBxWYiyVF"/>
</glyph>
<glyph name="Zhedescender" format="2">
  <advance width="2248"/>
  <unicode hex="0496"/>
  <guideline x="480" y="796" angle="90" identifier="vQLQteAbfW"/>
  <guideline x="480" y="796" angle="90" identifier="c1CJzngGNH"/>
  <outline>
    <contour>
      <point x="789" y="0" type="line"/>
      <point x="789" y="150" type="line"/>
      <point x="997" y="185" type="line"/>
      <point x="999" y="754" type="line"/>
      <point x="997" y="1302" type="line"/>
      <point x="789" y="1336" type="line"/>
      <point x="789" y="1500" type="line"/>
      <point x="1429" y="1500" type="line"/>
      <point x="1429" y="1336" type="line"/>
      <point x="1221" y="1302" type="line"/>
      <point x="1219" y="729" type="line"/>
      <point x="1221" y="185" type="line"/>
      <point x="1429" y="150" type="line"/>
      <point x="1429" y="0" type="line"/>
    </contour>
    <contour>
      <point x="1109" y="691" type="line"/>
      <point x="1109" y="873" type="line"/>
      <point x="1383" y="869" type="line"/>
      <point x="1742" y="1298" type="line"/>
      <point x="1587" y="1336" type="line"/>
      <point x="1587" y="1500" type="line"/>
      <point x="2142" y="1500" type="line"/>
      <point x="2142" y="1336" type="line"/>
      <point x="1949" y="1288" type="line"/>
      <point x="1473" y="745" type="line"/>
      <point x="1425" y="691" type="line"/>
    </contour>
    <contour>
      <point x="1370" y="722" type="line"/>
      <point x="1512" y="865" type="line"/>
      <point x="2089" y="158" type="line"/>
      <point x="2089" y="0" type="line"/>
      <point x="1633" y="0" type="line"/>
      <point x="1633" y="150" type="line"/>
      <point x="1801" y="185" type="line"/>
    </contour>
    <contour>
      <point x="1109" y="691" type="line"/>
      <point x="793" y="691" type="line"/>
      <point x="717" y="745" type="line"/>
      <point x="241" y="1288" type="line"/>
      <point x="56" y="1336" type="line"/>
      <point x="56" y="1500" type="line"/>
      <point x="631" y="1500" type="line"/>
      <point x="631" y="1336" type="line"/>
      <point x="476" y="1298" type="line"/>
      <point x="835" y="869" type="line"/>
      <point x="1109" y="873" type="line"/>
    </contour>
    <contour>
      <point x="848" y="722" type="line"/>
      <point x="417" y="185" type="line"/>
      <point x="585" y="150" type="line"/>
      <point x="585" y="0" type="line"/>
      <point x="-20" y="0" type="line"/>
      <point x="-20" y="150" type="line"/>
      <point x="161" y="185" type="line"/>
      <point x="716" y="865" type="line"/>
    </contour>
    <contour>
      <point x="1995" y="158" type="line"/>
      <point x="2248" y="158" type="line"/>
      <point x="2258" y="-338" type="line"/>
      <point x="2106" y="-338" type="line"/>
      <point x="2037" y="0" type="line"/>
      <point x="1995" y="0" type="line"/>
    </contour>
  </outline>
</glyph>
<glyph name="Kadescender" format="2">
  <advance width="1561"/>
  <unicode hex="049A"/>
  <guideline x="480" y="796" angle="90" identifier="LxfLwWU0sJ"/>
  <outline>
    <contour>
      <point x="82" y="0" type="line"/>
      <point x="82" y="150" type="line"/>
      <point x="290" y="185" type="line"/>
      <point x="292" y="754" type="line"/>
      <point x="290" y="1302" type="line"/>
      <point x="82" y="1336" type="line"/>
      <point x="82" y="1500" type="line"/>
      <point x="722" y="1500" type="line"/>
      <point x="722" y="1336" type="line"/>
      <point x="514" y="1302" type="line"/>
      <point x="512" y="729" type="line"/>
      <point x="514" y="185" type="line"/>
      <point x="722" y="150" type="line"/>
      <point x="722" y="0" type="line"/>
    </contour>
    <contour>
      <point x="402" y="691" type="line"/>
      <point x="402" y="873" type="line"/>
      <point x="676" y="869" type="line"/>
      <point x="1055" y="1298" type="line"/>
      <point x="900" y="1336" type="line"/>
      <point x="900" y="1500" type="line"/>
      <point x="1455" y="1500" type="line"/>
      <point x="1455" y="1336" type="line"/>
      <point x="1262" y="1288" type="line"/>
      <point x="766" y="745" type="line"/>
      <point x="718" y="691" type="line"/>
    </contour>
    <contour>
      <point x="663" y="722" type="line"/>
      <point x="805" y="865" type="line"/>
      <point x="1404" y="158" type="line"/>
      <point x="1404" y="0" type="line"/>
      <point x="946" y="0" type="line"/>
      <point x="946" y="150" type="line"/>
      <point x="1114" y="185" type="line"/>
    </contour>
    <contour>
      <point x="1307" y="158" type="line"/>
      <point x="1561" y="158" type="line"/>
      <point x="1571" y="-338" type="line"/>
      <point x="1419" y="-338" type="line"/>
      <point x="1350" y="0" type="line"/>
      <point x="1307" y="0" type="line"/>
    </contour>
  </outline>
</glyph>
<glyph name="Kaverticalstrokecyr" format="2">
  <advance width="1822"/>
  <unicode hex="049C"/>
  <guideline x="480" y="796" angle="90" identifier="LxfLwWU0sJ"/>
  <guideline x="872" y="734" angle="90" identifier="zfRSmGG1Re"/>
  <outline>
    <contour>
      <point x="913" y="1193" type="line"/>
      <point x="913" y="371" type="line"/>
      <point x="723" y="371" type="line"/>
      <point x="723" y="1193" type="line"/>
    </contour>
    <contour>
      <point x="82" y="0" type="line"/>
      <point x="82" y="150" type="line"/>
      <point x="290" y="185" type="line"/>
      <point x="292" y="754" type="line"/>
      <point x="290" y="1302" type="line"/>
      <point x="82" y="1336" type="line"/>
      <point x="82" y="1500" type="line"/>
      <point x="722" y="1500" type="line"/>
      <point x="722" y="1336" type="line"/>
      <point x="514" y="1302" type="line"/>
      <point x="512" y="729" type="line"/>
      <point x="514" y="185" type="line"/>
      <point x="722" y="150" type="line"/>
      <point x="722" y="0" type="line"/>
    </contour>
    <contour>
      <point x="818" y="691" type="line"/>
      <point x="818" y="873" type="line"/>
      <point x="1022" y="869" type="line"/>
      <point x="1341" y="1298" type="line"/>
      <point x="1186" y="1336" type="line"/>
      <point x="1186" y="1500" type="line"/>
      <point x="1736" y="1500" type="line"/>
      <point x="1736" y="1336" type="line"/>
      <point x="1543" y="1288" type="line"/>
      <point x="1115" y="745" type="line"/>
      <point x="1064" y="691" type="line"/>
    </contour>
    <contour>
      <point x="1009" y="722" type="line"/>
      <point x="1159" y="866" type="line"/>
      <point x="1661" y="185" type="line"/>
      <point x="1842" y="150" type="line"/>
      <point x="1842" y="0" type="line"/>
      <point x="1232" y="0" type="line"/>
      <point x="1232" y="150" type="line"/>
      <point x="1400" y="185" type="line"/>
    </contour>
  </outline>
</glyph>
<glyph name="kaverticalstrokecyr" format="2">
  <advance width="1363"/>
  <unicode hex="049D"/>
  <guideline x="241" y="553" angle="90" identifier="lmgRx0QBdK"/>
  <guideline x="786" y="880" angle="0" identifier="nFoPGEsufr"/>
  <guideline x="302" y="625" angle="90" identifier="nrNFUrpxzB"/>
  <guideline x="953" y="554" angle="90" identifier="8MDf64Nvwa"/>
  <guideline x="627" y="553" angle="90" identifier="P0g5t2f8zl"/>
  <outline>
    <contour>
      <point x="723" y="210" type="line"/>
      <point x="578" y="210" type="line"/>
      <point x="578" y="792" type="line"/>
      <point x="723" y="792" type="line"/>
    </contour>
    <contour>
      <point x="740" y="496" type="line"/>
      <point x="896" y="622" type="line"/>
      <point x="1210" y="179" type="line"/>
      <point x="1368" y="137" type="line"/>
      <point x="1368" y="0" type="line"/>
      <point x="1081" y="0" type="line"/>
      <point x="1047" y="25" type="line"/>
      <point x="1003" y="115" type="line"/>
    </contour>
    <contour>
      <point x="650" y="612" type="line"/>
      <point x="777" y="609" type="line"/>
      <point x="972" y="883" type="line"/>
      <point x="839" y="913" type="line"/>
      <point x="839" y="1050" type="line"/>
      <point x="1347" y="1050" type="line"/>
      <point x="1347" y="913" type="line"/>
      <point x="1171" y="878" type="line"/>
      <point x="816" y="453" type="line"/>
      <point x="650" y="451" type="line"/>
    </contour>
    <contour>
      <point x="230" y="525" type="line"/>
      <point x="228" y="878" type="line"/>
      <point x="80" y="913" type="line"/>
      <point x="80" y="1050" type="line"/>
      <point x="579" y="1050" type="line"/>
      <point x="579" y="913" type="line"/>
      <point x="441" y="878" type="line"/>
      <point x="439" y="525" type="line"/>
      <point x="441" y="172" type="line"/>
      <point x="579" y="137" type="line"/>
      <point x="579" y="0" type="line"/>
      <point x="80" y="0" type="line"/>
      <point x="80" y="137" type="line"/>
      <point x="228" y="172" type="line"/>
    </contour>
  </outline>
</glyph>
<glyph name="ustraightstroke" format="2">
  <advance width="1116"/>
  <unicode hex="04B1"/>
  <outline>
    <contour>
      <point x="206" y="-143" type="line"/>
      <point x="206" y="0" type="line"/>
      <point x="898" y="0" type="line"/>
      <point x="898" y="-143" type="line"/>
    </contour>
    <contour>
      <point x="-10" y="909" type="line"/>
      <point x="-10" y="1050" type="line"/>
      <point x="479" y="1050" type="line"/>
      <point x="479" y="919" type="line"/>
      <point x="339" y="882" type="line"/>
      <point x="449" y="561" type="line"/>
      <point x="573" y="198" type="line"/>
      <point x="705" y="572" type="line"/>
      <point x="812" y="889" type="line"/>
      <point x="675" y="919" type="line"/>
      <point x="675" y="1050" type="line"/>
      <point x="1126" y="1050" type="line"/>
      <point x="1126" y="909" type="line"/>
      <point x="971" y="874" type="line"/>
      <point x="837" y="523" type="line"/>
      <point x="658" y="0" type="line"/>
      <point x="659" y="-308" type="line"/>
      <point x="822" y="-343" type="line"/>
      <point x="822" y="-480" type="line"/>
      <point x="283" y="-480" type="line"/>
      <point x="283" y="-343" type="line"/>
      <point x="445" y="-308" type="line"/>
      <point x="446" y="0" type="line"/>
      <point x="267" y="504" type="line"/>
      <point x="122" y="874" type="line"/>
    </contour>
  </outline>
</glyph>
<glyph name="chedescender-cy" format="2">
	<unicode hex="04B7"/>
	<advance width="1311"/>
	<outline>
		<contour>
			<point x="209" y="731" type="qcurve" smooth="yes"/>
			<point x="208" y="878" type="line"/>
			<point x="60" y="913" type="line"/>
			<point x="60" y="1050" type="line"/>
			<point x="559" y="1050" type="line"/>
			<point x="559" y="913" type="line"/>
			<point x="421" y="878" type="line"/>
			<point x="419" y="738" type="line" smooth="yes"/>
			<point x="417" y="626"/>
			<point x="517" y="543"/>
			<point x="633" y="543" type="qcurve" smooth="yes"/>
			<point x="722" y="543"/>
			<point x="880" y="568"/>
			<point x="968" y="599" type="qcurve"/>
			<point x="968" y="445" type="line"/>
			<point x="883" y="413"/>
			<point x="704" y="382"/>
			<point x="583" y="382" type="qcurve" smooth="yes"/>
			<point x="398" y="382"/>
			<point x="210" y="549"/>
		</contour>
		<contour>
			<point x="1074" y="158" type="line"/>
			<point x="1221" y="158" type="line"/>
			<point x="1231" y="-318" type="line"/>
			<point x="1109" y="-318" type="line"/>
			<point x="1010" y="0" type="line"/>
			<point x="683" y="0" type="line"/>
			<point x="683" y="137" type="line"/>
			<point x="861" y="172" type="line"/>
			<point x="863" y="525" type="line"/>
			<point x="861" y="878" type="line"/>
			<point x="723" y="913" type="line"/>
			<point x="723" y="1050" type="line"/>
			<point x="1222" y="1050" type="line"/>
			<point x="1222" y="913" type="line"/>
			<point x="1074" y="878" type="line"/>
			<point x="1072" y="525" type="line"/>
		</contour>
	</outline>
	<guideline x="302" y="625" angle="90" identifier="jHuxcyi1x5"/>
	<guideline x="953" y="554" angle="90" identifier="b1mHk7wgTR"/>
	<guideline x="627" y="553" angle="90" identifier="m4aYe0x4PZ"/>
	<guideline x="302" y="625" angle="90" identifier="UvAFmXEi6Q"/>
	<guideline x="953" y="554" angle="90" identifier="ydXTGR0GfB"/>
	<guideline x="627" y="553" angle="90" identifier="jKYPl26cpp"/>
	<guideline x="988" y="629" angle="90" identifier="9lOuVnAGhG"/>
</glyph>
<glyph name="Cheverticalstroke-cy" format="2">
	<unicode hex="04B8"/>
	<advance width="1678"/>
	<outline>
		<contour>
			<point x="899" y="1145" type="line"/>
			<point x="899" y="289" type="line"/>
			<point x="749" y="289" type="line"/>
			<point x="749" y="1145" type="line"/>
		</contour>
		<contour>
			<point x="1000" y="0" type="line"/>
			<point x="1000" y="100" type="line"/>
			<point x="1208" y="135" type="line"/>
			<point x="1210" y="754" type="line"/>
			<point x="1208" y="1352" type="line"/>
			<point x="1000" y="1386" type="line"/>
			<point x="1000" y="1500" type="line"/>
			<point x="1596" y="1500" type="line"/>
			<point x="1596" y="1386" type="line"/>
			<point x="1388" y="1352" type="line"/>
			<point x="1386" y="754" type="line"/>
			<point x="1388" y="135" type="line"/>
			<point x="1596" y="100" type="line"/>
			<point x="1596" y="0" type="line"/>
		</contour>
		<contour>
			<point x="50" y="1386" type="line"/>
			<point x="50" y="1500" type="line"/>
			<point x="646" y="1500" type="line"/>
			<point x="646" y="1386" type="line"/>
			<point x="439" y="1352" type="line"/>
			<point x="438" y="1094" type="line" smooth="yes"/>
			<point x="437.2447055543" y="899.1340330147"/>
			<point x="642" y="744"/>
			<point x="868" y="744" type="qcurve" smooth="yes"/>
			<point x="988" y="744"/>
			<point x="1190" y="781"/>
			<point x="1298" y="818" type="qcurve"/>
			<point x="1298" y="691" type="line"/>
			<point x="1188" y="651"/>
			<point x="983" y="609"/>
			<point x="826" y="609" type="qcurve" smooth="yes"/>
			<point x="555" y="609"/>
			<point x="258" y="824.25"/>
			<point x="258" y="1101" type="qcurve" smooth="yes"/>
			<point x="258" y="1352" type="line"/>
		</contour>
	</outline>
	<guideline x="1330" y="777" angle="90" identifier="SFQDOVOlnA"/>
</glyph>
<glyph name="cheverticalstroke-cy" format="2">
	<unicode hex="04B9"/>
	<advance width="1322"/>
	<outline>
		<contour>
			<point x="209" y="731" type="qcurve" smooth="yes"/>
			<point x="208" y="878" type="line"/>
			<point x="60" y="913" type="line"/>
			<point x="60" y="1050" type="line"/>
			<point x="559" y="1050" type="line"/>
			<point x="559" y="913" type="line"/>
			<point x="421" y="878" type="line"/>
			<point x="419" y="738" type="line" smooth="yes"/>
			<point x="417" y="626"/>
			<point x="522" y="543"/>
			<point x="643" y="543" type="qcurve" smooth="yes"/>
			<point x="735" y="543"/>
			<point x="898" y="567"/>
			<point x="988" y="599" type="qcurve"/>
			<point x="988" y="445" type="line"/>
			<point x="901" y="412"/>
			<point x="717" y="382"/>
			<point x="593" y="382" type="qcurve" smooth="yes"/>
			<point x="403" y="382"/>
			<point x="210" y="549"/>
		</contour>
		<contour>
			<point x="1092" y="525" type="line"/>
			<point x="1094" y="172" type="line"/>
			<point x="1242" y="137" type="line"/>
			<point x="1242" y="0" type="line"/>
			<point x="703" y="0" type="line"/>
			<point x="703" y="137" type="line"/>
			<point x="881" y="172" type="line"/>
			<point x="883" y="525" type="line"/>
			<point x="881" y="878" type="line"/>
			<point x="743" y="913" type="line"/>
			<point x="743" y="1050" type="line"/>
			<point x="1242" y="1050" type="line"/>
			<point x="1242" y="913" type="line"/>
			<point x="1094" y="878" type="line"/>
		</contour>
		<contour>
			<point x="723" y="792" type="line"/>
			<point x="723" y="210" type="line"/>
			<point x="578" y="210" type="line"/>
			<point x="578" y="792" type="line"/>
		</contour>
	</outline>
	<guideline x="302" y="625" angle="90" identifier="ghzYOvRP0g"/>
	<guideline x="953" y="554" angle="90" identifier="yWzP0ZeDvZ"/>
	<guideline x="627" y="553" angle="90" identifier="2rptuWkdhO"/>
	<guideline x="302" y="625" angle="90" identifier="LGUqhQwoCq"/>
	<guideline x="953" y="554" angle="90" identifier="dXEGROBWBf"/>
	<guideline x="627" y="553" angle="90" identifier="G0ArhAjbj2"/>
	<guideline x="302" y="625" angle="90" identifier="4nQaEwIPFl"/>
	<guideline x="953" y="554" angle="90" identifier="kX4mVYgYSf"/>
	<guideline x="627" y="553" angle="90" identifier="cLLz1iSsMp"/>
	<guideline x="988" y="629" angle="90" identifier="tZWowkO817"/>
</glyph>
<glyph name="Shha" format="2">
	<unicode hex="04BA"/>
	<advance width="1756"/>
	<outline>
		<contour>
			<point x="1476" y="403" type="qcurve" smooth="yes"/>
			<point x="1478" y="185" type="line"/>
			<point x="1686" y="150" type="line"/>
			<point x="1686" y="0" type="line"/>
			<point x="1046" y="0" type="line"/>
			<point x="1046" y="150" type="line"/>
			<point x="1254" y="185" type="line"/>
			<point x="1255" y="410" type="line" smooth="yes"/>
			<point x="1256" y="614"/>
			<point x="1066" y="772"/>
			<point x="877" y="772" type="qcurve" smooth="yes"/>
			<point x="733" y="772"/>
			<point x="517" y="735"/>
			<point x="402" y="696" type="qcurve"/>
			<point x="402" y="863" type="line"/>
			<point x="515" y="901"/>
			<point x="735" y="945"/>
			<point x="906" y="945" type="qcurve" smooth="yes"/>
			<point x="1184" y="945"/>
			<point x="1473" y="699"/>
		</contour>
		<contour>
			<point x="722" y="1500" type="line"/>
			<point x="722" y="1336" type="line"/>
			<point x="514" y="1302" type="line"/>
			<point x="512" y="746" type="line"/>
			<point x="514" y="185" type="line"/>
			<point x="722" y="150" type="line"/>
			<point x="722" y="0" type="line"/>
			<point x="82" y="0" type="line"/>
			<point x="82" y="150" type="line"/>
			<point x="290" y="185" type="line"/>
			<point x="292" y="746" type="line"/>
			<point x="290" y="1302" type="line"/>
			<point x="82" y="1336" type="line"/>
			<point x="82" y="1500" type="line"/>
		</contour>
	</outline>
</glyph>
<glyph name="Schwacyr" format="2">
	<unicode hex="04D8"/>
	<advance width="1560"/>
	<outline>
		<contour>
			<point x="199" y="636" type="line"/>
			<point x="86" y="818" type="line"/>
			<point x="778" y="810" type="line"/>
			<point x="1360" y="818" type="line"/>
			<point x="1360" y="636" type="line"/>
			<point x="778" y="636" type="line"/>
		</contour>
		<contour>
			<point x="734" y="1336" type="qcurve" smooth="yes"/>
			<point x="548" y="1336"/>
			<point x="383" y="1257"/>
			<point x="354" y="1141" type="qcurve" smooth="yes"/>
			<point x="327" y="1031" type="line"/>
			<point x="170" y="1031" type="line"/>
			<point x="170" y="1501" type="line"/>
			<point x="299" y="1501" type="line"/>
			<point x="328" y="1420" type="line"/>
			<point x="387" y="1468"/>
			<point x="594" y="1520"/>
			<point x="755" y="1520" type="qcurve" smooth="yes"/>
			<point x="1103" y="1520"/>
			<point x="1480" y="1089"/>
			<point x="1480" y="752" type="qcurve" smooth="yes"/>
			<point x="1480" y="423"/>
			<point x="1102" y="-31"/>
			<point x="784" y="-31" type="qcurve" smooth="yes"/>
			<point x="473" y="-31"/>
			<point x="80" y="379"/>
			<point x="80" y="707" type="qcurve" smooth="yes"/>
			<point x="80" y="735"/>
			<point x="83" y="791"/>
			<point x="86" y="818" type="qcurve"/>
			<point x="316" y="807" type="line"/>
			<point x="315" y="791"/>
			<point x="314" y="756"/>
			<point x="314" y="739" type="qcurve" smooth="yes"/>
			<point x="314" y="482"/>
			<point x="574" y="151"/>
			<point x="782" y="151" type="qcurve" smooth="yes"/>
			<point x="1008" y="151"/>
			<point x="1246" y="460"/>
			<point x="1246" y="745" type="qcurve" smooth="yes"/>
			<point x="1246" y="988"/>
			<point x="991" y="1336"/>
		</contour>
	</outline>
	<guideline x="212" y="786" angle="90" identifier="UtNSclIhRG"/>
	<guideline x="1248" y="730" angle="90" identifier="hwb5F7EShy"/>
	<guideline x="176" y="804" angle="90" identifier="CC6biuYdY2"/>
	<guideline x="1489" y="880" angle="90" identifier="5SLpVGRhqp"/>
	<guideline x="212" y="786" angle="90" identifier="YqAWIUvpZk"/>
	<guideline x="1248" y="730" angle="90" identifier="MSkcSNR2TA"/>
	<guideline x="176" y="804" angle="90" identifier="8gh2ua0uAP"/>
	<guideline x="1489" y="880" angle="90" identifier="2I5t00CVyb"/>
	<guideline x="199" y="769" angle="90" identifier="TgeYty0k4c"/>
	<guideline x="1560" y="893" angle="90" identifier="4HQBTNXOzW"/>
</glyph>
<glyph name="Hastroke-cy" format="2">
  <advance width="1415"/>
  <unicode hex="04FE"/>
  <outline>
    <contour>
      <point x="314" y="695" type="line"/>
      <point x="314" y="881" type="line"/>
      <point x="714" y="881" type="line"/>
      <point x="1124" y="881" type="line"/>
      <point x="1124" y="695" type="line"/>
      <point x="714" y="695" type="line"/>
    </contour>
    <contour>
      <point x="-20" y="0" type="line"/>
      <point x="-20" y="150" type="line"/>
      <point x="155" y="185" type="line"/>
      <point x="659" y="844" type="line"/>
      <point x="696" y="844" type="line"/>
      <point x="1000" y="1310" type="line"/>
      <point x="828" y="1336" type="line"/>
      <point x="828" y="1500" type="line"/>
      <point x="1378" y="1500" type="line"/>
      <point x="1378" y="1336" type="line"/>
      <point x="1193" y="1305" type="line"/>
      <point x="789" y="742" type="line"/>
      <point x="752" y="742" type="line"/>
      <point x="349" y="180" type="line"/>
      <point x="526" y="150" type="line"/>
      <point x="526" y="0" type="line"/>
    </contour>
    <contour>
      <point x="50" y="1336" type="line"/>
      <point x="50" y="1500" type="line"/>
      <point x="670" y="1500" type="line"/>
      <point x="670" y="1336" type="line"/>
      <point x="497" y="1303" type="line"/>
      <point x="783" y="861" type="line"/>
      <point x="1257" y="185" type="line"/>
      <point x="1455" y="150" type="line"/>
      <point x="1455" y="0" type="line"/>
      <point x="830" y="0" type="line"/>
      <point x="830" y="150" type="line"/>
      <point x="1003" y="185" type="line"/>
      <point x="640" y="742" type="line"/>
      <point x="242" y="1305" type="line"/>
    </contour>
  </outline>
</glyph>
<glyph name="guilsinglright" format="2">
	<unicode hex="203A"/>
	<advance width="838"/>
	<outline>
		<contour>
			<point x="814" y="577" type="line"/>
			<point x="750" y="531"/>
			<point x="285" y="181"/>
			<point x="220" y="137" type="qcurve" smooth="yes"/>
			<point x="151" y="90"/>
			<point x="65" y="234"/>
			<point x="127" y="282" type="qcurve" smooth="yes"/>
			<point x="230" y="363"/>
			<point x="501" y="584"/>
			<point x="521" y="599" type="qcurve"/>
			<point x="501" y="614"/>
			<point x="212" y="861"/>
			<point x="123" y="931" type="qcurve" smooth="yes"/>
			<point x="62" y="979"/>
			<point x="140" y="1121"/>
			<point x="211" y="1077" type="qcurve" smooth="yes"/>
			<point x="277" y="1036"/>
			<point x="738" y="687"/>
			<point x="812" y="637" type="qcurve"/>
		</contour>
	</outline>
</glyph>
<glyph name="peseta" format="2">
  <advance width="2553"/>
  <unicode hex="20A7"/>
  <outline>
    <contour>
      <point x="82" y="0" type="line"/>
      <point x="82" y="150" type="line"/>
      <point x="290" y="187" type="line"/>
      <point x="292" y="854" type="line"/>
      <point x="290" y="1302" type="line"/>
      <point x="82" y="1336" type="line"/>
      <point x="82" y="1500" type="line"/>
      <point x="731" y="1500" type="line" smooth="yes"/>
      <point x="980" y="1500"/>
      <point x="1236" y="1281"/>
      <point x="1236" y="1117" type="qcurve"/>
      <point x="1236" y="938"/>
      <point x="963" y="685"/>
      <point x="704" y="685" type="qcurve" smooth="yes"/>
      <point x="590" y="685"/>
      <point x="485" y="705"/>
      <point x="432" y="714" type="qcurve"/>
      <point x="441" y="858" type="line"/>
      <point x="500" y="846"/>
      <point x="545" y="838"/>
      <point x="647" y="838" type="qcurve" smooth="yes"/>
      <point x="818" y="838"/>
      <point x="997" y="993"/>
      <point x="997" y="1118" type="qcurve"/>
      <point x="997" y="1206"/>
      <point x="827" y="1332"/>
      <point x="667" y="1332" type="qcurve" smooth="yes"/>
      <point x="549" y="1332" type="line"/>
      <point x="515" y="1310" type="line"/>
      <point x="512" y="864" type="line"/>
      <point x="514" y="182" type="line"/>
      <point x="672" y="150" type="line"/>
      <point x="742" y="0" type="line"/>
    </contour>
    <contour>
      <point x="1116" y="715" type="line"/>
      <point x="1116" y="800" type="line"/>
      <point x="1244" y="835"/>
      <point x="1339" y="1005"/>
      <point x="1356" y="1128" type="qcurve"/>
      <point x="1439" y="1128" type="line"/>
      <point x="1480" y="1080" type="line"/>
      <point x="1473" y="874" type="line"/>
      <point x="1708" y="874" type="line"/>
      <point x="1708" y="715" type="line"/>
      <point x="1468" y="715" type="line"/>
      <point x="1470" y="382" type="line"/>
      <point x="1470" y="270" type="line" smooth="yes"/>
      <point x="1470" y="204"/>
      <point x="1530" y="167"/>
      <point x="1608" y="167" type="qcurve" smooth="yes"/>
      <point x="1735" y="167" type="line"/>
      <point x="1735" y="30" type="line"/>
      <point x="1431" y="-8" type="line"/>
      <point x="1352" y="-8"/>
      <point x="1260" y="74"/>
      <point x="1264" y="184" type="qcurve" smooth="yes"/>
      <point x="1271" y="382" type="line"/>
      <point x="1271" y="683" type="line"/>
    </contour>
    <contour>
      <point x="1725" y="29" type="line"/>
      <point x="1725" y="314" type="line"/>
      <point x="1867" y="314" type="line"/>
      <point x="1878" y="266" type="line" smooth="yes"/>
      <point x="1896" y="186"/>
      <point x="2016" y="110"/>
      <point x="2114" y="110" type="qcurve" smooth="yes"/>
      <point x="2179" y="110"/>
      <point x="2262" y="165"/>
      <point x="2262" y="228" type="qcurve" smooth="yes"/>
      <point x="2262" y="284"/>
      <point x="2179" y="342"/>
      <point x="2030" y="385" type="qcurve" smooth="yes"/>
      <point x="1873" y="428"/>
      <point x="1731" y="585"/>
      <point x="1731" y="689" type="qcurve" smooth="yes"/>
      <point x="1731" y="794"/>
      <point x="1892" y="939"/>
      <point x="2057" y="939" type="qcurve" smooth="yes"/>
      <point x="2122" y="939"/>
      <point x="2219" y="918"/>
      <point x="2255" y="902" type="qcurve"/>
      <point x="2266" y="920" type="line"/>
      <point x="2381" y="920" type="line"/>
      <point x="2381" y="658" type="line"/>
      <point x="2240" y="658" type="line"/>
      <point x="2214" y="771" type="line"/>
      <point x="2179" y="785"/>
      <point x="2095" y="804"/>
      <point x="2053" y="804" type="qcurve" smooth="yes"/>
      <point x="1974" y="804"/>
      <point x="1914" y="745"/>
      <point x="1914" y="702" type="qcurve" smooth="yes"/>
      <point x="1914" y="658"/>
      <point x="1976" y="615"/>
      <point x="2129" y="574" type="qcurve" smooth="yes"/>
      <point x="2277" y="534"/>
      <point x="2453" y="398"/>
      <point x="2453" y="270" type="qcurve" smooth="yes"/>
      <point x="2453" y="145"/>
      <point x="2292" y="-20"/>
      <point x="2131" y="-20" type="qcurve" smooth="yes"/>
      <point x="2050" y="-20"/>
      <point x="1922" y="13"/>
      <point x="1871" y="43" type="qcurve"/>
      <point x="1840" y="-2" type="line"/>
    </contour>
  </outline>
</glyph>
<glyph name="hryvnia" format="2">
	<unicode hex="20B4"/>
	<advance width="1174"/>
	<outline>
		<contour>
			<point x="1135" y="254" type="line"/>
			<point x="1060" y="127"/>
			<point x="778" y="-19"/>
			<point x="591" y="-19" type="qcurve" smooth="yes"/>
			<point x="344" y="-19"/>
			<point x="98" y="208"/>
			<point x="98" y="383" type="qcurve" smooth="yes"/>
			<point x="98" y="439"/>
			<point x="117" y="535"/>
			<point x="135" y="576" type="qcurve"/>
			<point x="160" y="590" type="line"/>
			<point x="208" y="690"/>
			<point x="416" y="823"/>
			<point x="570" y="871" type="qcurve" smooth="yes"/>
			<point x="634" y="891"/>
			<point x="727" y="932"/>
			<point x="760" y="954" type="qcurve"/>
			<point x="753" y="962" type="line"/>
			<point x="806" y="1001"/>
			<point x="839" y="1095"/>
			<point x="839" y="1156" type="qcurve" smooth="yes"/>
			<point x="839" y="1250"/>
			<point x="733" y="1348"/>
			<point x="617" y="1348" type="qcurve" smooth="yes"/>
			<point x="501" y="1348"/>
			<point x="333" y="1269"/>
			<point x="274" y="1230" type="qcurve"/>
			<point x="177" y="1390" type="line"/>
			<point x="261" y="1455"/>
			<point x="488" y="1521"/>
			<point x="620" y="1521" type="qcurve" smooth="yes"/>
			<point x="844" y="1521"/>
			<point x="1071" y="1317"/>
			<point x="1071" y="1148" type="qcurve" smooth="yes"/>
			<point x="1071" y="1088"/>
			<point x="1045" y="987"/>
			<point x="1019" y="945" type="qcurve"/>
			<point x="995" y="931" type="line"/>
			<point x="947" y="862"/>
			<point x="772" y="761"/>
			<point x="643" y="721" type="qcurve" smooth="yes"/>
			<point x="547" y="691"/>
			<point x="414" y="615"/>
			<point x="376" y="565" type="qcurve"/>
			<point x="383" y="553" type="line"/>
			<point x="359" y="518"/>
			<point x="336" y="436"/>
			<point x="336" y="388" type="qcurve" smooth="yes"/>
			<point x="336" y="278"/>
			<point x="463" y="163"/>
			<point x="598" y="163" type="qcurve" smooth="yes"/>
			<point x="728" y="163"/>
			<point x="938" y="312"/>
			<point x="996" y="393" type="qcurve"/>
		</contour>
		<contour>
			<point x="30" y="667" type="line"/>
			<point x="1144" y="667" type="line"/>
			<point x="1130" y="501" type="line"/>
			<point x="44" y="501" type="line"/>
		</contour>
		<contour>
			<point x="44" y="1024" type="line"/>
			<point x="1130" y="1024" type="line"/>
			<point x="1144" y="858" type="line"/>
			<point x="30" y="858" type="line"/>
		</contour>
	</outline>
</glyph>
<glyph name="tenge" format="2">
  <advance width="1330"/>
  <unicode hex="20B8"/>
  <outline>
    <contour>
      <point x="43" y="1334" type="line"/>
      <point x="57" y="1500" type="line"/>
      <point x="1273" y="1500" type="line"/>
      <point x="1287" y="1334" type="line"/>
    </contour>
    <contour>
      <point x="43" y="681" type="line"/>
      <point x="43" y="1143" type="line"/>
      <point x="1287" y="1143" type="line"/>
      <point x="1287" y="681" type="line"/>
      <point x="1127" y="681" type="line"/>
      <point x="1092" y="979" type="line"/>
      <point x="796" y="979" type="line"/>
      <point x="777" y="959" type="line"/>
      <point x="775" y="397" type="line"/>
      <point x="777" y="186" type="line"/>
      <point x="996" y="150" type="line"/>
      <point x="996" y="0" type="line"/>
      <point x="334" y="0" type="line"/>
      <point x="334" y="150" type="line"/>
      <point x="553" y="186" type="line"/>
      <point x="555" y="397" type="line"/>
      <point x="553" y="959" type="line"/>
      <point x="544" y="979" type="line"/>
      <point x="238" y="979" type="line"/>
      <point x="203" y="681" type="line"/>
    </contour>
  </outline>
</glyph>
<glyph name="divisionslash" format="2">
	<unicode hex="2215"/>
	<advance width="656"/>
	<outline>
		<contour>
			<point x="-72" y="-118" type="line"/>
			<point x="544" y="1555" type="line"/>
			<point x="705" y="1502" type="line"/>
			<point x="89" y="-171" type="line"/>
		</contour>
	</outline>
</glyph>
<glyph name="De.bgr" format="2">
  <advance width="1703"/>
  <outline>
    <contour>
      <point x="1314" y="81" type="line"/>
      <point x="1074" y="649" type="line"/>
      <point x="818" y="1219" type="line"/>
      <point x="568" y="650" type="line"/>
      <point x="331" y="80" type="line"/>
      <point x="144" y="85" type="line"/>
      <point x="443" y="760" type="line"/>
      <point x="759" y="1508" type="line"/>
      <point x="930" y="1508" type="line"/>
      <point x="1265" y="735" type="line"/>
      <point x="1560" y="85" type="line"/>
    </contour>
    <contour>
      <point x="1536" y="-338" type="line"/>
      <point x="1467" y="0" type="line"/>
      <point x="236" y="0" type="line"/>
      <point x="167" y="-338" type="line"/>
      <point x="15" y="-338" type="line"/>
      <point x="25" y="158" type="line"/>
      <point x="1678" y="158" type="line"/>
      <point x="1688" y="-338" type="line"/>
    </contour>
  </outline>
</glyph>
<glyph name="Ef" format="2">
	<advance width="1829"/>
	<outline>
		<contour>
			<point x="619" y="-60" type="line"/>
			<point x="619" y="84" type="line"/>
			<point x="807" y="118" type="line"/>
			<point x="807" y="224" type="line"/>
			<point x="817" y="224" type="line"/>
			<point x="819" y="740" type="line"/>
			<point x="1009" y="740" type="line"/>
			<point x="1011" y="224" type="line"/>
			<point x="1021" y="224" type="line"/>
			<point x="1021" y="118" type="line"/>
			<point x="1209" y="84" type="line"/>
			<point x="1209" y="-60" type="line"/>
		</contour>
		<contour>
			<point x="819" y="740" type="line"/>
			<point x="817" y="1256" type="line"/>
			<point x="807" y="1256" type="line"/>
			<point x="807" y="1382" type="line"/>
			<point x="619" y="1416" type="line"/>
			<point x="619" y="1560" type="line"/>
			<point x="1209" y="1560" type="line"/>
			<point x="1209" y="1416" type="line"/>
			<point x="1021" y="1382" type="line"/>
			<point x="1021" y="1256" type="line"/>
			<point x="1011" y="1256" type="line"/>
			<point x="1009" y="740" type="line"/>
		</contour>
		<contour>
			<point x="858" y="205" type="line"/>
			<point x="428" y="205"/>
			<point x="80" y="472"/>
			<point x="80" y="713" type="qcurve" smooth="yes"/>
			<point x="80" y="993"/>
			<point x="469" y="1283"/>
			<point x="858" y="1293" type="qcurve"/>
			<point x="860" y="1143" type="line"/>
			<point x="571" y="1130"/>
			<point x="304" y="922"/>
			<point x="304" y="727" type="qcurve" smooth="yes"/>
			<point x="304" y="537"/>
			<point x="571" y="358"/>
			<point x="860" y="347" type="qcurve"/>
		</contour>
		<contour>
			<point x="970" y="205" type="qcurve"/>
			<point x="968" y="347" type="line"/>
			<point x="1258" y="360"/>
			<point x="1525" y="568"/>
			<point x="1525" y="763" type="qcurve" smooth="yes"/>
			<point x="1525" y="953"/>
			<point x="1258" y="1132"/>
			<point x="968" y="1143" type="qcurve"/>
			<point x="970" y="1293" type="line"/>
			<point x="1401" y="1293"/>
			<point x="1749" y="1026"/>
			<point x="1749" y="785" type="qcurve" smooth="yes"/>
			<point x="1749" y="505"/>
			<point x="1360" y="215"/>
		</contour>
	</outline>
</glyph>
<glyph name="Zhe.bgr" format="2">
	<advance width="2166"/>
	<outline>
		<contour>
			<point x="763" y="0" type="line"/>
			<point x="763" y="150" type="line"/>
			<point x="971" y="185" type="line"/>
			<point x="973" y="754" type="line"/>
			<point x="971" y="1302" type="line"/>
			<point x="763" y="1336" type="line"/>
			<point x="763" y="1500" type="line"/>
			<point x="1403" y="1500" type="line"/>
			<point x="1403" y="1336" type="line"/>
			<point x="1195" y="1302" type="line"/>
			<point x="1193" y="754" type="line"/>
			<point x="1195" y="185" type="line"/>
			<point x="1403" y="150" type="line"/>
			<point x="1403" y="0" type="line"/>
		</contour>
		<contour>
			<point x="1096" y="461" type="line"/>
			<point x="1096" y="657" type="line"/>
			<point x="1686" y="1298" type="line"/>
			<point x="1541" y="1336" type="line"/>
			<point x="1541" y="1500" type="line"/>
			<point x="2086" y="1500" type="line"/>
			<point x="2086" y="1336" type="line"/>
			<point x="1889" y="1288" type="line"/>
			<point x="1474" y="841" type="line"/>
			<point x="1437" y="804" type="line"/>
		</contour>
		<contour>
			<point x="1344" y="812" type="line"/>
			<point x="1489" y="957" type="line"/>
			<point x="2007" y="185" type="line"/>
			<point x="2200" y="150" type="line"/>
			<point x="2200" y="0" type="line"/>
			<point x="1597" y="0" type="line"/>
			<point x="1597" y="150" type="line"/>
			<point x="1765" y="185" type="line"/>
		</contour>
		<contour>
			<point x="1070" y="458" type="line"/>
			<point x="729" y="801" type="line"/>
			<point x="689" y="841" type="line"/>
			<point x="274" y="1288" type="line"/>
			<point x="80" y="1336" type="line"/>
			<point x="80" y="1500" type="line"/>
			<point x="625" y="1500" type="line"/>
			<point x="625" y="1336" type="line"/>
			<point x="480" y="1298" type="line"/>
			<point x="1070" y="657" type="line"/>
		</contour>
		<contour>
			<point x="822" y="812" type="line"/>
			<point x="401" y="185" type="line"/>
			<point x="569" y="150" type="line"/>
			<point x="569" y="0" type="line"/>
			<point x="-34" y="0" type="line"/>
			<point x="-34" y="150" type="line"/>
			<point x="167" y="185" type="line"/>
			<point x="685" y="957" type="line"/>
		</contour>
	</outline>
</glyph>
<glyph name="acutecomb.case" format="2">
  <advance width="1024"/>
  <anchor x="512.0" y="1500" name="_top"/>
  <anchor x="512.0" y="2131.0" name="top"/>
  <outline>
    <contour>
      <point x="762.0" y="2042.0" type="qcurve" smooth="yes"/>
      <point x="762.0" y="1995.0"/>
      <point x="727.0" y="1950.0"/>
      <point x="686.0" y="1920.0" type="qcurve" smooth="yes"/>
      <point x="380.0" y="1700.0" type="line"/>
      <point x="286.0" y="1806.0" type="line"/>
      <point x="505.0" y="2041.0" type="line" smooth="yes"/>
      <point x="542.0" y="2081.0"/>
      <point x="613.0" y="2131.0"/>
      <point x="650.0" y="2131.0" type="qcurve" smooth="yes"/>
      <point x="699.0" y="2131.0"/>
      <point x="762.0" y="2077.0"/>
    </contour>
  </outline>
</glyph>
<glyph name="acutecombstack.case" format="2">
  <advance width="1024"/>
  <anchor x="512.0" y="1500" name="_top"/>
  <anchor x="511.0" y="2131" name="top"/>
  <outline>
    <contour>
      <point x="762" y="2042" type="qcurve" smooth="yes"/>
      <point x="762" y="1995"/>
      <point x="727" y="1950"/>
      <point x="686" y="1920" type="qcurve" smooth="yes"/>
      <point x="380" y="1700" type="line"/>
      <point x="286" y="1806" type="line"/>
      <point x="505" y="2041" type="line" smooth="yes"/>
      <point x="542" y="2081"/>
      <point x="613" y="2131"/>
      <point x="650" y="2131" type="qcurve" smooth="yes"/>
      <point x="699" y="2131"/>
      <point x="762" y="2077"/>
    </contour>
  </outline>
</glyph>
<glyph name="be.locl" format="2">
	<advance width="1256"/>
	<outline>
		<contour>
			<point x="286" y="522" type="qcurve" smooth="yes"/>
			<point x="287" y="364"/>
			<point x="472" y="147"/>
			<point x="625" y="147" type="qcurve" smooth="yes"/>
			<point x="788" y="147"/>
			<point x="965" y="345"/>
			<point x="965" y="509" type="qcurve" smooth="yes"/>
			<point x="965" y="659"/>
			<point x="780" y="855"/>
			<point x="626" y="855" type="qcurve" smooth="yes"/>
			<point x="461" y="855"/>
			<point x="285" y="678"/>
		</contour>
		<contour>
			<point x="64" y="505" type="qcurve" smooth="yes"/>
			<point x="64" y="660.1501057082"/>
			<point x="217.2624038567" y="896.1744653884"/>
			<point x="389" y="958" type="qcurve"/>
			<point x="389" y="962" type="line"/>
			<point x="272.2593848919" y="987.2937999401"/>
			<point x="150" y="1117"/>
			<point x="150" y="1222" type="qcurve" smooth="yes"/>
			<point x="150" y="1343"/>
			<point x="333" y="1485"/>
			<point x="541" y="1485" type="qcurve" smooth="yes"/>
			<point x="697" y="1485" type="line" smooth="yes"/>
			<point x="835" y="1485"/>
			<point x="960" y="1502"/>
			<point x="969" y="1537" type="qcurve"/>
			<point x="1106" y="1537" type="line"/>
			<point x="1091.4351956074" y="1403.8360741252"/>
			<point x="918" y="1282"/>
			<point x="709" y="1282" type="qcurve" smooth="yes"/>
			<point x="533" y="1282" type="line" smooth="yes"/>
			<point x="417" y="1282"/>
			<point x="342" y="1235"/>
			<point x="342" y="1181" type="qcurve" smooth="yes"/>
			<point x="342" y="1118"/>
			<point x="501" y="1043"/>
			<point x="688" y="1023" type="qcurve" smooth="yes"/>
			<point x="929" y="997"/>
			<point x="1192" y="721.2857142857"/>
			<point x="1192" y="511" type="qcurve" smooth="yes"/>
			<point x="1192" y="291"/>
			<point x="886" y="-22"/>
			<point x="632" y="-22" type="qcurve" smooth="yes"/>
			<point x="378" y="-22"/>
			<point x="64" y="270"/>
		</contour>
	</outline>
	<guideline x="585" y="692" angle="90" identifier="rRut3CsJo5"/>
</glyph>
<glyph name="breve.cyr.case" format="2">
  <advance width="1024"/>
  <anchor x="512.0" y="1500" name="_top"/>
  <anchor x="512.0" y="1989" name="top"/>
  <outline>
    <contour>
      <point x="512" y="1802" type="qcurve" smooth="yes"/>
      <point x="606.6991869919" y="1802"/>
      <point x="727.8035751854" y="1880.4647423803"/>
      <point x="768" y="1990" type="qcurve"/>
      <point x="914" y="1909" type="line"/>
      <point x="850" y="1772"/>
      <point x="642.2397959184" y="1654"/>
      <point x="512" y="1654" type="qcurve" smooth="yes"/>
      <point x="381.7602040816" y="1654"/>
      <point x="173" y="1771"/>
      <point x="110" y="1909" type="qcurve"/>
      <point x="256" y="1990" type="line"/>
      <point x="296.1996303593" y="1881.4609980299"/>
      <point x="417.3008130081" y="1802"/>
    </contour>
  </outline>
</glyph>
<glyph name="breve.cyr" format="2">
  <advance width="1022"/>
  <anchor x="511.0" y="1050" name="_top"/>
  <outline>
    <contour>
      <point x="511" y="1370" type="qcurve" smooth="yes"/>
      <point x="604" y="1370"/>
      <point x="716" y="1459"/>
      <point x="748" y="1554" type="qcurve"/>
      <point x="905" y="1475" type="line"/>
      <point x="850.2653929142" y="1322.9594247615"/>
      <point x="643.4463276836" y="1211"/>
      <point x="511" y="1211" type="qcurve" smooth="yes"/>
      <point x="378.5536723164" y="1211"/>
      <point x="171.7346070858" y="1322.9594247615"/>
      <point x="117" y="1475" type="qcurve"/>
      <point x="274" y="1554" type="line"/>
      <point x="306" y="1459"/>
      <point x="418" y="1370"/>
    </contour>
  </outline>
</glyph>
<glyph name="breveacutecomb.case" format="2">
  <advance width="1024"/>
  <anchor x="512.0" y="1500" name="_top"/>
  <outline>
    <contour>
      <point x="759" y="2017" type="qcurve"/>
      <point x="915" y="1959" type="line"/>
      <point x="879" y="1848"/>
      <point x="669" y="1700"/>
      <point x="512" y="1700" type="qcurve"/>
      <point x="354" y="1700"/>
      <point x="144" y="1847"/>
      <point x="109" y="1959" type="qcurve"/>
      <point x="265" y="2017" type="line"/>
      <point x="295" y="1958"/>
      <point x="413" y="1882"/>
      <point x="511" y="1882" type="qcurve"/>
      <point x="609" y="1882"/>
      <point x="727" y="1957"/>
    </contour>
    <contour>
      <point x="821" y="2527" type="qcurve" smooth="yes"/>
      <point x="834" y="2490"/>
      <point x="778" y="2416"/>
      <point x="744" y="2380" type="qcurve" smooth="yes"/>
      <point x="496" y="2117" type="line"/>
      <point x="397" y="2193" type="line"/>
      <point x="569" y="2475" type="line" smooth="yes"/>
      <point x="595" y="2517"/>
      <point x="662" y="2596"/>
      <point x="697" y="2603" type="qcurve" smooth="yes"/>
      <point x="744" y="2612"/>
      <point x="811" y="2560"/>
    </contour>
  </outline>
</glyph>
<glyph name="breveacutecomb" format="2">
  <advance width="1024"/>
  <anchor x="512.0" y="1050" name="_top"/>
  <outline>
    <contour>
      <point x="754" y="1590" type="qcurve"/>
      <point x="908" y="1537" type="line"/>
      <point x="885" y="1446"/>
      <point x="668" y="1270"/>
      <point x="519" y="1270" type="qcurve" smooth="yes"/>
      <point x="360" y="1270"/>
      <point x="144" y="1425"/>
      <point x="116" y="1534" type="qcurve"/>
      <point x="270" y="1591" type="line"/>
      <point x="301" y="1545"/>
      <point x="415" y="1450"/>
      <point x="512" y="1450" type="qcurve" smooth="yes"/>
      <point x="603" y="1450"/>
      <point x="721" y="1538"/>
    </contour>
    <contour>
      <point x="846" y="2025" type="qcurve" smooth="yes"/>
      <point x="846" y="1978"/>
      <point x="811" y="1932"/>
      <point x="770" y="1903" type="qcurve" smooth="yes"/>
      <point x="472" y="1691" type="line"/>
      <point x="378" y="1797" type="line"/>
      <point x="589" y="2024" type="line" smooth="yes"/>
      <point x="626" y="2063"/>
      <point x="697" y="2114"/>
      <point x="734" y="2114" type="qcurve" smooth="yes"/>
      <point x="783" y="2114"/>
      <point x="846" y="2060"/>
    </contour>
  </outline>
</glyph>
<glyph name="brevecomb.case" format="2">
  <advance width="1024"/>
  <anchor x="512.0" y="1500" name="_top"/>
  <anchor x="512.0" y="2027.0" name="top"/>
  <outline>
    <contour>
      <point x="759.0" y="2027.0" type="qcurve"/>
      <point x="915.0" y="1969.0" type="line"/>
      <point x="879.0" y="1858.0"/>
      <point x="669.0" y="1700.0"/>
      <point x="512.0" y="1700.0" type="qcurve"/>
      <point x="354.0" y="1700.0"/>
      <point x="144.0" y="1857.0"/>
      <point x="109.0" y="1969.0" type="qcurve"/>
      <point x="265.0" y="2027.0" type="line"/>
      <point x="295.0" y="1978.0"/>
      <point x="413.0" y="1882.0"/>
      <point x="511.0" y="1882.0" type="qcurve"/>
      <point x="609.0" y="1882.0"/>
      <point x="727.0" y="1978.0"/>
    </contour>
  </outline>
</glyph>
<glyph name="brevecombstack.case" format="2">
  <advance width="1024"/>
  <anchor x="512.0" y="1500" name="_top"/>
  <anchor x="512.0" y="2017" name="top"/>
  <outline>
    <contour>
      <point x="759" y="2017" type="qcurve"/>
      <point x="915" y="1959" type="line"/>
      <point x="879" y="1848"/>
      <point x="669" y="1700"/>
      <point x="512" y="1700" type="qcurve"/>
      <point x="354" y="1700"/>
      <point x="144" y="1847"/>
      <point x="109" y="1959" type="qcurve"/>
      <point x="265" y="2017" type="line"/>
      <point x="295" y="1958"/>
      <point x="413" y="1882"/>
      <point x="511" y="1882" type="qcurve"/>
      <point x="609" y="1882"/>
      <point x="727" y="1957"/>
    </contour>
  </outline>
</glyph>
